  0
SECTION
  2
HEADER
  9
$ACADVER
  1
AC1014
  9
$HANDSEED
  5
FFFF
  9
$INSUNITS
 70
     4
  9
$MEASUREMENT
 70
     1
  0
ENDSEC
  0
SECTION
  2
TABLES
  0
TABLE
  2
VPORT
  5
8
330
0
100
AcDbSymbolTable
 70
     4
  0
VPORT
  5
2E
330
8
100
AcDbSymbolTableRecord
100
AcDbViewportTableRecord
  2
*ACTIVE
 70
     0
 10
0.0
 20
0.0
 11
1.0
 21
1.0
 12
210.0
 22
148.5
 13
0.0
 23
0.0
 14
10.0
 24
10.0
 15
10.0
 25
10.0
 16
0.0
 26
0.0
 36
1.0
 17
0.0
 27
0.0
 37
0.0
 40
341.0
 41
1.24
 42
50.0
 43
0.0
 44
0.0
 50
0.0
 51
0.0
 71
     0
 72
   100
 73
     1
 74
     3
 75
     0
 76
     0
 77
     0
 78
     0
  0
ENDTAB
  0
TABLE
  2
LTYPE
  5
5
330
0
100
AcDbSymbolTable
 70
     1
  0
LTYPE
  5
14
330
5
100
AcDbSymbolTableRecord
100
AcDbLinetypeTableRecord
  2
BYBLOCK
 70
     0
  3

 72
    65
 73
     0
 40
0.0
  0
LTYPE
  5
15
330
5
100
AcDbSymbolTableRecord
100
AcDbLinetypeTableRecord
  2
BYLAYER
 70
     0
  3

 72
    65
 73
     0
 40
0.0
  0
LTYPE
  5
16
330
5
100
AcDbSymbolTableRecord
100
AcDbLinetypeTableRecord
  2
CONTINUOUS
 70
     0
  3
Solid line
 72
    65
 73
     0
 40
0.0
  0
ENDTAB
  0
TABLE
  2
LAYER
  5
2
100
AcDbSymbolTable
 70
2
  0
LAYER
  5
50
100
AcDbSymbolTableRecord
100
AcDbLayerTableRecord
  2
0
 70
0
  6
CONTINUOUS
  0
LAYER
  5
51
100
AcDbSymbolTableRecord
100
AcDbLayerTableRecord
  2
Calque_1
 70
0
  6
CONTINUOUS
  0
ENDTAB
  0
TABLE
  2
STYLE
  5
3
330
0
100
AcDbSymbolTable
 70
     1
  0
STYLE
  5
11
330
3
100
AcDbSymbolTableRecord
100
AcDbTextStyleTableRecord
  2
STANDARD
 70
     0
 40
0.0
 41
1.0
 50
0.0
 71
     0
 42
2.5
  3
txt
  4

  0
ENDTAB
  0
TABLE
  2
VIEW
  5
6
330
0
100
AcDbSymbolTable
 70
     0
  0
ENDTAB
  0
TABLE
  2
UCS
  5
7
330
0
100
AcDbSymbolTable
 70
     0
  0
ENDTAB
  0
TABLE
  2
APPID
  5
9
330
0
100
AcDbSymbolTable
 70
     2
  0
APPID
  5
12
330
9
100
AcDbSymbolTableRecord
100
AcDbRegAppTableRecord
  2
ACAD
 70
     0
  0
ENDTAB
  0
TABLE
  2
DIMSTYLE
  5
A
330
0
100
AcDbSymbolTable
 70
     1
  0
DIMSTYLE
105
27
330
A
100
AcDbSymbolTableRecord
100
AcDbDimStyleTableRecord
  2
ISO-25
 70
     0
  3

  4

  5

  6

  7

 40
1.0
 41
2.5
 42
0.625
 43
3.75
 44
1.25
 45
0.0
 46
0.0
 47
0.0
 48
0.0
140
2.5
141
2.5
142
0.0
143
0.03937007874016
144
1.0
145
0.0
146
1.0
147
0.625
 71
     0
 72
     0
 73
     0
 74
     0
 75
     0
 76
     0
 77
     1
 78
     8
170
     0
171
     3
172
     1
173
     0
174
     0
175
     0
176
     0
177
     0
178
     0
270
     2
271
     2
272
     2
273
     2
274
     3
340
11
275
     0
280
     0
281
     0
282
     0
283
     0
284
     8
285
     0
286
     0
287
     3
288
     0
  0
ENDTAB
  0
TABLE
  2
BLOCK_RECORD
  5
1
330
0
100
AcDbSymbolTable
 70
     1
  0
BLOCK_RECORD
  5
1F
330
1
100
AcDbSymbolTableRecord
100
AcDbBlockTableRecord
  2
*MODEL_SPACE
  0
BLOCK_RECORD
  5
1B
330
1
100
AcDbSymbolTableRecord
100
AcDbBlockTableRecord
  2
*PAPER_SPACE
  0
ENDTAB
  0
ENDSEC
  0
SECTION
  2
BLOCKS
  0
BLOCK
  5
20
330
1F
100
AcDbEntity
  8
0
100
AcDbBlockBegin
  2
*MODEL_SPACE
 70
     0
 10
0.0
 20
0.0
 30
0.0
  3
*MODEL_SPACE
  1

  0
ENDBLK
  5
21
330
1F
100
AcDbEntity
  8
0
100
AcDbBlockEnd
  0
BLOCK
  5
1C
330
1B
100
AcDbEntity
 67
     1
  8
0
100
AcDbBlockBegin
  2
*PAPER_SPACE
  1

  0
ENDBLK
  5
1D
330
1B
100
AcDbEntity
 67
     1
  8
0
100
AcDbBlockEnd
  0
ENDSEC
  0
SECTION
  2
ENTITIES
  0
LWPOLYLINE
  5
100
100
AcDbEntity
  8
Calque_1
 62
7
100
AcDbPolyline
 90
40
 70
1
 10
105.025222
 20
128.926110
 30
0.0
 10
105.269168
 20
128.867901
 30
0.0
 10
105.501207
 20
128.772651
 30
0.0
 10
105.715255
 20
128.640360
 30
0.0
 10
105.906284
 20
128.476318
 30
0.0
 10
106.069267
 20
128.285819
 30
0.0
 10
106.200500
 20
128.071506
 30
0.0
 10
106.296544
 20
127.841319
 30
0.0
 10
106.355016
 20
127.595257
 30
0.0
 10
106.374860
 20
127.346549
 30
0.0
 10
106.355016
 20
127.095195
 30
0.0
 10
106.296544
 20
126.851779
 30
0.0
 10
106.200500
 20
126.618946
 30
0.0
 10
106.069267
 20
126.404634
 30
0.0
 10
105.906284
 20
126.214134
 30
0.0
 10
105.715255
 20
126.052738
 30
0.0
 10
105.501207
 20
125.920447
 30
0.0
 10
105.269168
 20
125.825197
 30
0.0
 10
105.025222
 20
125.764343
 30
0.0
 10
104.774927
 20
125.745822
 30
0.0
 10
104.524631
 20
125.764343
 30
0.0
 10
104.280421
 20
125.825197
 30
0.0
 10
104.048382
 20
125.920447
 30
0.0
 10
103.834334
 20
126.052738
 30
0.0
 10
103.643570
 20
126.214134
 30
0.0
 10
103.480322
 20
126.404634
 30
0.0
 10
103.349089
 20
126.618946
 30
0.0
 10
103.253045
 20
126.851779
 30
0.0
 10
103.194573
 20
127.095195
 30
0.0
 10
103.174729
 20
127.346549
 30
0.0
 10
103.194573
 20
127.595257
 30
0.0
 10
103.253045
 20
127.841319
 30
0.0
 10
103.349089
 20
128.071506
 30
0.0
 10
103.480322
 20
128.285819
 30
0.0
 10
103.643570
 20
128.476318
 30
0.0
 10
103.834334
 20
128.640360
 30
0.0
 10
104.048382
 20
128.772651
 30
0.0
 10
104.280421
 20
128.867901
 30
0.0
 10
104.524631
 20
128.926110
 30
0.0
 10
104.774927
 20
128.944630
 30
0.0
  0
LWPOLYLINE
  5
101
100
AcDbEntity
  8
Calque_1
 62
7
100
AcDbPolyline
 90
38
 70
1
 10
103.389306
 20
127.113716
 30
0.0
 10
103.446191
 20
126.888820
 30
0.0
 10
103.539324
 20
126.677154
 30
0.0
 10
103.666324
 20
126.484008
 30
0.0
 10
103.823486
 20
126.312030
 30
0.0
 10
104.006578
 20
126.169155
 30
0.0
 10
104.210571
 20
126.060676
 30
0.0
 10
104.429911
 20
125.983947
 30
0.0
 10
104.658775
 20
125.946905
 30
0.0
 10
104.890814
 20
125.946905
 30
0.0
 10
105.119678
 20
125.983947
 30
0.0
 10
105.339018
 20
126.060676
 30
0.0
 10
105.543276
 20
126.169155
 30
0.0
 10
105.726367
 20
126.312030
 30
0.0
 10
105.883265
 20
126.484008
 30
0.0
 10
106.010265
 20
126.677154
 30
0.0
 10
106.103398
 20
126.888820
 30
0.0
 10
106.160548
 20
127.113716
 30
0.0
 10
106.179598
 20
127.346549
 30
0.0
 10
106.160548
 20
127.576736
 30
0.0
 10
106.103398
 20
127.801632
 30
0.0
 10
106.010265
 20
128.013298
 30
0.0
 10
105.883265
 20
128.209090
 30
0.0
 10
105.726367
 20
128.378423
 30
0.0
 10
105.543276
 20
128.521298
 30
0.0
 10
105.339018
 20
128.632422
 30
0.0
 10
105.119678
 20
128.706506
 30
0.0
 10
104.890814
 20
128.746193
 30
0.0
 10
104.658775
 20
128.746193
 30
0.0
 10
104.429911
 20
128.706506
 30
0.0
 10
104.210571
 20
128.632422
 30
0.0
 10
104.006578
 20
128.521298
 30
0.0
 10
103.823486
 20
128.378423
 30
0.0
 10
103.666324
 20
128.209090
 30
0.0
 10
103.539324
 20
128.013298
 30
0.0
 10
103.446191
 20
127.801632
 30
0.0
 10
103.389306
 20
127.576736
 30
0.0
 10
103.369991
 20
127.346549
 30
0.0
  0
LWPOLYLINE
  5
102
100
AcDbEntity
  8
Calque_1
 62
7
100
AcDbPolyline
 90
40
 70
1
 10
83.801432
 20
150.150958
 30
0.0
 10
84.045642
 20
150.090104
 30
0.0
 10
84.277417
 20
149.994854
 30
0.0
 10
84.491729
 20
149.865208
 30
0.0
 10
84.682494
 20
149.701167
 30
0.0
 10
84.845477
 20
149.510667
 30
0.0
 10
84.976710
 20
149.296355
 30
0.0
 10
85.072754
 20
149.063522
 30
0.0
 10
85.131491
 20
148.820105
 30
0.0
 10
85.151070
 20
148.568751
 30
0.0
 10
85.131491
 20
148.320043
 30
0.0
 10
85.072754
 20
148.073981
 30
0.0
 10
84.976710
 20
147.843794
 30
0.0
 10
84.845477
 20
147.629482
 30
0.0
 10
84.682494
 20
147.438982
 30
0.0
 10
84.491729
 20
147.274941
 30
0.0
 10
84.277417
 20
147.142649
 30
0.0
 10
84.045642
 20
147.047399
 30
0.0
 10
83.801432
 20
146.989191
 30
0.0
 10
83.551137
 20
146.970670
 30
0.0
 10
83.300841
 20
146.989191
 30
0.0
 10
83.056631
 20
147.047399
 30
0.0
 10
82.824857
 20
147.142649
 30
0.0
 10
82.610809
 20
147.274941
 30
0.0
 10
82.419780
 20
147.438982
 30
0.0
 10
82.256797
 20
147.629482
 30
0.0
 10
82.125564
 20
147.843794
 30
0.0
 10
82.029520
 20
148.073981
 30
0.0
 10
81.970783
 20
148.320043
 30
0.0
 10
81.951203
 20
148.568751
 30
0.0
 10
81.970783
 20
148.820105
 30
0.0
 10
82.029520
 20
149.063522
 30
0.0
 10
82.125564
 20
149.296355
 30
0.0
 10
82.256797
 20
149.510667
 30
0.0
 10
82.419780
 20
149.701167
 30
0.0
 10
82.610809
 20
149.865208
 30
0.0
 10
82.824857
 20
149.994854
 30
0.0
 10
83.056631
 20
150.090104
 30
0.0
 10
83.300841
 20
150.150958
 30
0.0
 10
83.551137
 20
150.169479
 30
0.0
  0
LWPOLYLINE
  5
103
100
AcDbEntity
  8
Calque_1
 62
7
100
AcDbPolyline
 90
38
 70
1
 10
82.165516
 20
148.338564
 30
0.0
 10
82.222401
 20
148.113669
 30
0.0
 10
82.315799
 20
147.902002
 30
0.0
 10
82.442534
 20
147.706211
 30
0.0
 10
82.599696
 20
147.536878
 30
0.0
 10
82.782788
 20
147.394003
 30
0.0
 10
82.986781
 20
147.282878
 30
0.0
 10
83.206385
 20
147.208795
 30
0.0
 10
83.435249
 20
147.169107
 30
0.0
 10
83.667289
 20
147.169107
 30
0.0
 10
83.895888
 20
147.208795
 30
0.0
 10
84.115492
 20
147.282878
 30
0.0
 10
84.319486
 20
147.394003
 30
0.0
 10
84.502577
 20
147.536878
 30
0.0
 10
84.659740
 20
147.706211
 30
0.0
 10
84.786739
 20
147.902002
 30
0.0
 10
84.879873
 20
148.113669
 30
0.0
 10
84.936758
 20
148.338564
 30
0.0
 10
84.956073
 20
148.568751
 30
0.0
 10
84.936758
 20
148.801585
 30
0.0
 10
84.879873
 20
149.026480
 30
0.0
 10
84.786739
 20
149.238146
 30
0.0
 10
84.659740
 20
149.431292
 30
0.0
 10
84.502577
 20
149.603271
 30
0.0
 10
84.319486
 20
149.746146
 30
0.0
 10
84.115492
 20
149.857271
 30
0.0
 10
83.895888
 20
149.931354
 30
0.0
 10
83.667289
 20
149.968396
 30
0.0
 10
83.435249
 20
149.968396
 30
0.0
 10
83.206385
 20
149.931354
 30
0.0
 10
82.986781
 20
149.857271
 30
0.0
 10
82.782788
 20
149.746146
 30
0.0
 10
82.599696
 20
149.603271
 30
0.0
 10
82.442534
 20
149.431292
 30
0.0
 10
82.315799
 20
149.238146
 30
0.0
 10
82.222401
 20
149.026480
 30
0.0
 10
82.165516
 20
148.801585
 30
0.0
 10
82.146466
 20
148.568751
 30
0.0
  0
LWPOLYLINE
  5
104
100
AcDbEntity
  8
Calque_1
 62
7
100
AcDbPolyline
 90
40
 70
1
 10
126.248748
 20
150.150958
 30
0.0
 10
126.492958
 20
150.090104
 30
0.0
 10
126.724732
 20
149.994854
 30
0.0
 10
126.939045
 20
149.865208
 30
0.0
 10
127.129809
 20
149.701167
 30
0.0
 10
127.292792
 20
149.510667
 30
0.0
 10
127.424025
 20
149.296355
 30
0.0
 10
127.520069
 20
149.063522
 30
0.0
 10
127.578806
 20
148.820105
 30
0.0
 10
127.598386
 20
148.568751
 30
0.0
 10
127.578806
 20
148.320043
 30
0.0
 10
127.520069
 20
148.073981
 30
0.0
 10
127.424025
 20
147.843794
 30
0.0
 10
127.292792
 20
147.629482
 30
0.0
 10
127.129809
 20
147.438982
 30
0.0
 10
126.939045
 20
147.274941
 30
0.0
 10
126.724732
 20
147.142649
 30
0.0
 10
126.492958
 20
147.047399
 30
0.0
 10
126.248748
 20
146.989191
 30
0.0
 10
125.998452
 20
146.970670
 30
0.0
 10
125.748157
 20
146.989191
 30
0.0
 10
125.503946
 20
147.047399
 30
0.0
 10
125.272172
 20
147.142649
 30
0.0
 10
125.058124
 20
147.274941
 30
0.0
 10
124.867095
 20
147.438982
 30
0.0
 10
124.704112
 20
147.629482
 30
0.0
 10
124.572879
 20
147.843794
 30
0.0
 10
124.476835
 20
148.073981
 30
0.0
 10
124.418098
 20
148.320043
 30
0.0
 10
124.398519
 20
148.568751
 30
0.0
 10
124.418098
 20
148.820105
 30
0.0
 10
124.476835
 20
149.063522
 30
0.0
 10
124.572879
 20
149.296355
 30
0.0
 10
124.704112
 20
149.510667
 30
0.0
 10
124.867095
 20
149.701167
 30
0.0
 10
125.058124
 20
149.865208
 30
0.0
 10
125.272172
 20
149.994854
 30
0.0
 10
125.503946
 20
150.090104
 30
0.0
 10
125.748157
 20
150.150958
 30
0.0
 10
125.998452
 20
150.169479
 30
0.0
  0
LWPOLYLINE
  5
105
100
AcDbEntity
  8
Calque_1
 62
7
100
AcDbPolyline
 90
38
 70
1
 10
124.612831
 20
148.338564
 30
0.0
 10
124.669716
 20
148.113669
 30
0.0
 10
124.763114
 20
147.902002
 30
0.0
 10
124.889849
 20
147.706211
 30
0.0
 10
125.047012
 20
147.536878
 30
0.0
 10
125.230103
 20
147.394003
 30
0.0
 10
125.434097
 20
147.282878
 30
0.0
 10
125.653700
 20
147.208795
 30
0.0
 10
125.882565
 20
147.169107
 30
0.0
 10
126.114604
 20
147.169107
 30
0.0
 10
126.343204
 20
147.208795
 30
0.0
 10
126.562808
 20
147.282878
 30
0.0
 10
126.766801
 20
147.394003
 30
0.0
 10
126.949893
 20
147.536878
 30
0.0
 10
127.107055
 20
147.706211
 30
0.0
 10
127.234055
 20
147.902002
 30
0.0
 10
127.327188
 20
148.113669
 30
0.0
 10
127.384073
 20
148.338564
 30
0.0
 10
127.403388
 20
148.568751
 30
0.0
 10
127.384073
 20
148.801585
 30
0.0
 10
127.327188
 20
149.026480
 30
0.0
 10
127.234055
 20
149.238146
 30
0.0
 10
127.107055
 20
149.431292
 30
0.0
 10
126.949893
 20
149.603271
 30
0.0
 10
126.766801
 20
149.746146
 30
0.0
 10
126.562808
 20
149.857271
 30
0.0
 10
126.343204
 20
149.931354
 30
0.0
 10
126.114604
 20
149.968396
 30
0.0
 10
125.882565
 20
149.968396
 30
0.0
 10
125.653700
 20
149.931354
 30
0.0
 10
125.434097
 20
149.857271
 30
0.0
 10
125.230103
 20
149.746146
 30
0.0
 10
125.047012
 20
149.603271
 30
0.0
 10
124.889849
 20
149.431292
 30
0.0
 10
124.763114
 20
149.238146
 30
0.0
 10
124.669716
 20
149.026480
 30
0.0
 10
124.612831
 20
148.801585
 30
0.0
 10
124.593781
 20
148.568751
 30
0.0
  0
LWPOLYLINE
  5
106
100
AcDbEntity
  8
Calque_1
 62
7
100
AcDbPolyline
 90
40
 70
1
 10
105.025222
 20
171.373160
 30
0.0
 10
105.269168
 20
171.314952
 30
0.0
 10
105.501207
 20
171.219702
 30
0.0
 10
105.715255
 20
171.087411
 30
0.0
 10
105.906284
 20
170.923369
 30
0.0
 10
106.069267
 20
170.732869
 30
0.0
 10
106.200500
 20
170.518557
 30
0.0
 10
106.296544
 20
170.288370
 30
0.0
 10
106.355016
 20
170.042308
 30
0.0
 10
106.374860
 20
169.793600
 30
0.0
 10
106.355016
 20
169.542246
 30
0.0
 10
106.296544
 20
169.298830
 30
0.0
 10
106.200500
 20
169.065996
 30
0.0
 10
106.069267
 20
168.851684
 30
0.0
 10
105.906284
 20
168.661184
 30
0.0
 10
105.715255
 20
168.499789
 30
0.0
 10
105.501207
 20
168.367497
 30
0.0
 10
105.269168
 20
168.272247
 30
0.0
 10
105.025222
 20
168.214039
 30
0.0
 10
104.774927
 20
168.192873
 30
0.0
 10
104.524631
 20
168.214039
 30
0.0
 10
104.280421
 20
168.272247
 30
0.0
 10
104.048382
 20
168.367497
 30
0.0
 10
103.834334
 20
168.499789
 30
0.0
 10
103.643570
 20
168.661184
 30
0.0
 10
103.480322
 20
168.851684
 30
0.0
 10
103.349089
 20
169.065996
 30
0.0
 10
103.253045
 20
169.298830
 30
0.0
 10
103.194573
 20
169.542246
 30
0.0
 10
103.174729
 20
169.793600
 30
0.0
 10
103.194573
 20
170.042308
 30
0.0
 10
103.253045
 20
170.288370
 30
0.0
 10
103.349089
 20
170.518557
 30
0.0
 10
103.480322
 20
170.732869
 30
0.0
 10
103.643570
 20
170.923369
 30
0.0
 10
103.834334
 20
171.087411
 30
0.0
 10
104.048382
 20
171.219702
 30
0.0
 10
104.280421
 20
171.314952
 30
0.0
 10
104.524631
 20
171.373160
 30
0.0
 10
104.774927
 20
171.394327
 30
0.0
  0
LWPOLYLINE
  5
107
100
AcDbEntity
  8
Calque_1
 62
7
100
AcDbPolyline
 90
38
 70
1
 10
103.389306
 20
169.560767
 30
0.0
 10
103.446191
 20
169.335871
 30
0.0
 10
103.539324
 20
169.124205
 30
0.0
 10
103.666324
 20
168.931059
 30
0.0
 10
103.823486
 20
168.759080
 30
0.0
 10
104.006578
 20
168.616205
 30
0.0
 10
104.210571
 20
168.507726
 30
0.0
 10
104.429911
 20
168.430997
 30
0.0
 10
104.658775
 20
168.393956
 30
0.0
 10
104.890814
 20
168.393956
 30
0.0
 10
105.119678
 20
168.430997
 30
0.0
 10
105.339018
 20
168.507726
 30
0.0
 10
105.543276
 20
168.616205
 30
0.0
 10
105.726367
 20
168.759080
 30
0.0
 10
105.883265
 20
168.931059
 30
0.0
 10
106.010265
 20
169.124205
 30
0.0
 10
106.103398
 20
169.335871
 30
0.0
 10
106.160548
 20
169.560767
 30
0.0
 10
106.179598
 20
169.793600
 30
0.0
 10
106.160548
 20
170.023787
 30
0.0
 10
106.103398
 20
170.248682
 30
0.0
 10
106.010265
 20
170.462995
 30
0.0
 10
105.883265
 20
170.656140
 30
0.0
 10
105.726367
 20
170.825473
 30
0.0
 10
105.543276
 20
170.968348
 30
0.0
 10
105.339018
 20
171.079473
 30
0.0
 10
105.119678
 20
171.156202
 30
0.0
 10
104.890814
 20
171.193244
 30
0.0
 10
104.658775
 20
171.193244
 30
0.0
 10
104.429911
 20
171.156202
 30
0.0
 10
104.210571
 20
171.079473
 30
0.0
 10
104.006578
 20
170.968348
 30
0.0
 10
103.823486
 20
170.825473
 30
0.0
 10
103.666324
 20
170.656140
 30
0.0
 10
103.539324
 20
170.462995
 30
0.0
 10
103.446191
 20
170.248682
 30
0.0
 10
103.389306
 20
170.023787
 30
0.0
 10
103.369991
 20
169.793600
 30
0.0
  0
LWPOLYLINE
  5
108
100
AcDbEntity
  8
Calque_1
 62
7
100
AcDbPolyline
 90
75
 70
0
 10
120.353838
 20
172.217180
 30
0.0
 10
120.906552
 20
172.198659
 30
0.0
 10
121.456885
 20
172.143097
 30
0.0
 10
122.001926
 20
172.047847
 30
0.0
 10
122.539294
 20
171.918201
 30
0.0
 10
123.066343
 20
171.751514
 30
0.0
 10
123.580957
 20
171.547785
 30
0.0
 10
124.080490
 20
171.309660
 30
0.0
 10
124.562560
 20
171.039786
 30
0.0
 10
125.025051
 20
170.735515
 30
0.0
 10
125.465582
 20
170.402141
 30
0.0
 10
125.882565
 20
170.037016
 30
0.0
 10
126.273618
 20
169.648079
 30
0.0
 10
126.637155
 20
169.230038
 30
0.0
 10
126.971324
 20
168.790830
 30
0.0
 10
127.274801
 20
168.327810
 30
0.0
 10
127.545733
 20
167.846269
 30
0.0
 10
127.783329
 20
167.346207
 30
0.0
 10
127.986264
 20
166.830270
 30
0.0
 10
128.153481
 20
166.303750
 30
0.0
 10
128.284449
 20
165.766646
 30
0.0
 10
128.378376
 20
165.221605
 30
0.0
 10
128.434997
 20
164.671273
 30
0.0
 10
128.453782
 20
164.118294
 30
0.0
 10
128.453782
 20
164.118294
 30
0.0
 10
128.453782
 20
133.021854
 30
0.0
 10
128.434997
 20
132.468876
 30
0.0
 10
128.378376
 20
131.918543
 30
0.0
 10
128.284449
 20
131.373502
 30
0.0
 10
128.153481
 20
130.836399
 30
0.0
 10
127.986264
 20
130.307233
 30
0.0
 10
127.783329
 20
129.793942
 30
0.0
 10
127.545733
 20
129.293880
 30
0.0
 10
127.274801
 20
128.812339
 30
0.0
 10
126.971324
 20
128.349319
 30
0.0
 10
126.637155
 20
127.910111
 30
0.0
 10
126.273618
 20
127.492070
 30
0.0
 10
125.882565
 20
127.100487
 30
0.0
 10
125.465582
 20
126.738008
 30
0.0
 10
125.025051
 20
126.401988
 30
0.0
 10
124.562560
 20
126.100363
 30
0.0
 10
124.080490
 20
125.827843
 30
0.0
 10
123.580957
 20
125.592364
 30
0.0
 10
123.066343
 20
125.388635
 30
0.0
 10
122.539294
 20
125.221948
 30
0.0
 10
122.001926
 20
125.089656
 30
0.0
 10
121.456885
 20
124.997052
 30
0.0
 10
120.906552
 20
124.938844
 30
0.0
 10
120.353838
 20
124.920323
 30
0.0
 10
120.353838
 20
124.920323
 30
0.0
 10
89.195751
 20
124.920323
 30
0.0
 10
88.643037
 20
124.938844
 30
0.0
 10
88.092704
 20
124.997052
 30
0.0
 10
87.547663
 20
125.089656
 30
0.0
 10
87.010295
 20
125.221948
 30
0.0
 10
86.483246
 20
125.388635
 30
0.0
 10
85.968632
 20
125.592364
 30
0.0
 10
85.469099
 20
125.827843
 30
0.0
 10
84.987029
 20
126.100363
 30
0.0
 10
84.524538
 20
126.401988
 30
0.0
 10
84.084007
 20
126.738008
 30
0.0
 10
83.667024
 20
127.100487
 30
0.0
 10
83.275971
 20
127.492070
 30
0.0
 10
82.912433
 20
127.910111
 30
0.0
 10
82.578265
 20
128.349319
 30
0.0
 10
82.275053
 20
128.812339
 30
0.0
 10
82.003855
 20
129.293880
 30
0.0
 10
81.766260
 20
129.793942
 30
0.0
 10
81.563325
 20
130.307233
 30
0.0
 10
81.396108
 20
130.836399
 30
0.0
 10
81.265140
 20
131.373502
 30
0.0
 10
81.171213
 20
131.918543
 30
0.0
 10
81.114592
 20
132.468876
 30
0.0
 10
81.095807
 20
133.019209
 30
0.0
 10
81.095807
 20
133.019209
 30
0.0
  0
LWPOLYLINE
  5
109
100
AcDbEntity
  8
Calque_1
 62
7
100
AcDbPolyline
 90
26
 70
0
 10
81.095807
 20
133.021854
 30
0.0
 10
81.095807
 20
164.118294
 30
0.0
 10
81.114592
 20
164.671273
 30
0.0
 10
81.171213
 20
165.221605
 30
0.0
 10
81.265140
 20
165.766646
 30
0.0
 10
81.396108
 20
166.303750
 30
0.0
 10
81.563325
 20
166.830270
 30
0.0
 10
81.766260
 20
167.346207
 30
0.0
 10
82.003855
 20
167.846269
 30
0.0
 10
82.275053
 20
168.327810
 30
0.0
 10
82.578265
 20
168.790830
 30
0.0
 10
82.912433
 20
169.230038
 30
0.0
 10
83.275971
 20
169.648079
 30
0.0
 10
83.667024
 20
170.037016
 30
0.0
 10
84.084007
 20
170.402141
 30
0.0
 10
84.524538
 20
170.735515
 30
0.0
 10
84.987029
 20
171.039786
 30
0.0
 10
85.469099
 20
171.309660
 30
0.0
 10
85.968632
 20
171.547785
 30
0.0
 10
86.483246
 20
171.751514
 30
0.0
 10
87.010295
 20
171.918201
 30
0.0
 10
87.547663
 20
172.047847
 30
0.0
 10
88.092704
 20
172.143097
 30
0.0
 10
88.643037
 20
172.198659
 30
0.0
 10
89.195751
 20
172.217180
 30
0.0
 10
120.353838
 20
172.217180
 30
0.0
  0
LWPOLYLINE
  5
10a
100
AcDbEntity
  8
Calque_1
 62
7
100
AcDbPolyline
 90
53
 70
0
 10
89.195751
 20
172.018743
 30
0.0
 10
88.925876
 20
172.018743
 30
0.0
 10
88.387449
 20
171.981701
 30
0.0
 10
87.852727
 20
171.907618
 30
0.0
 10
87.324090
 20
171.799139
 30
0.0
 10
86.804449
 20
171.653618
 30
0.0
 10
86.295921
 20
171.471056
 30
0.0
 10
85.800886
 20
171.256744
 30
0.0
 10
85.321726
 20
171.008036
 30
0.0
 10
84.860558
 20
170.727578
 30
0.0
 10
84.419498
 20
170.418016
 30
0.0
 10
84.000928
 20
170.076704
 30
0.0
 10
83.606435
 20
169.708933
 30
0.0
 10
83.237871
 20
169.314705
 30
0.0
 10
82.897352
 20
168.894018
 30
0.0
 10
82.585938
 20
168.454810
 30
0.0
 10
82.305480
 20
167.991790
 30
0.0
 10
82.057301
 20
167.512894
 30
0.0
 10
81.842195
 20
167.018124
 30
0.0
 10
81.661485
 20
166.510125
 30
0.0
 10
81.515964
 20
165.988896
 30
0.0
 10
81.406162
 20
165.462376
 30
0.0
 10
81.332608
 20
164.927918
 30
0.0
 10
81.295831
 20
164.388169
 30
0.0
 10
81.295831
 20
164.118294
 30
0.0
 10
81.295831
 20
133.021854
 30
0.0
 10
81.295831
 20
133.021854
 30
0.0
 10
81.295831
 20
132.751980
 30
0.0
 10
81.332608
 20
132.212230
 30
0.0
 10
81.406162
 20
131.677773
 30
0.0
 10
81.515964
 20
131.148607
 30
0.0
 10
81.661485
 20
130.630024
 30
0.0
 10
81.842195
 20
130.122025
 30
0.0
 10
82.057301
 20
129.624609
 30
0.0
 10
82.305480
 20
129.145713
 30
0.0
 10
82.585938
 20
128.685339
 30
0.0
 10
82.897352
 20
128.243485
 30
0.0
 10
83.237871
 20
127.825444
 30
0.0
 10
83.606435
 20
127.431216
 30
0.0
 10
84.000928
 20
127.063445
 30
0.0
 10
84.419498
 20
126.722133
 30
0.0
 10
84.860558
 20
126.409925
 30
0.0
 10
85.321726
 20
126.129467
 30
0.0
 10
85.800886
 20
125.883405
 30
0.0
 10
86.295921
 20
125.666447
 30
0.0
 10
86.804449
 20
125.486531
 30
0.0
 10
87.324090
 20
125.341010
 30
0.0
 10
87.852727
 20
125.229885
 30
0.0
 10
88.387449
 20
125.158448
 30
0.0
 10
88.925876
 20
125.121406
 30
0.0
 10
89.195751
 20
125.121406
 30
0.0
 10
120.353838
 20
125.121406
 30
0.0
 10
120.353838
 20
125.121406
 30
0.0
  0
LWPOLYLINE
  5
10b
100
AcDbEntity
  8
Calque_1
 62
7
100
AcDbPolyline
 90
52
 70
0
 10
120.354103
 20
125.121406
 30
0.0
 10
120.623713
 20
125.121406
 30
0.0
 10
121.162139
 20
125.158448
 30
0.0
 10
121.696862
 20
125.229885
 30
0.0
 10
122.225499
 20
125.341010
 30
0.0
 10
122.745140
 20
125.486531
 30
0.0
 10
123.253668
 20
125.666447
 30
0.0
 10
123.748703
 20
125.883405
 30
0.0
 10
124.228127
 20
126.129467
 30
0.0
 10
124.689295
 20
126.409925
 30
0.0
 10
125.130091
 20
126.722133
 30
0.0
 10
125.548926
 20
127.063445
 30
0.0
 10
125.943419
 20
127.431216
 30
0.0
 10
126.311718
 20
127.825444
 30
0.0
 10
126.652237
 20
128.243485
 30
0.0
 10
126.963651
 20
128.685339
 30
0.0
 10
127.244109
 20
129.145713
 30
0.0
 10
127.492288
 20
129.624609
 30
0.0
 10
127.707394
 20
130.122025
 30
0.0
 10
127.888104
 20
130.630024
 30
0.0
 10
128.033625
 20
131.148607
 30
0.0
 10
128.143426
 20
131.677773
 30
0.0
 10
128.216981
 20
132.212230
 30
0.0
 10
128.253758
 20
132.751980
 30
0.0
 10
128.253758
 20
133.021854
 30
0.0
 10
128.253758
 20
164.118294
 30
0.0
 10
128.253758
 20
164.118294
 30
0.0
 10
128.253758
 20
164.388169
 30
0.0
 10
128.216981
 20
164.927918
 30
0.0
 10
128.143426
 20
165.462376
 30
0.0
 10
128.033625
 20
165.988896
 30
0.0
 10
127.888104
 20
166.510125
 30
0.0
 10
127.707394
 20
167.018124
 30
0.0
 10
127.492288
 20
167.512894
 30
0.0
 10
127.244109
 20
167.991790
 30
0.0
 10
126.963651
 20
168.454810
 30
0.0
 10
126.652237
 20
168.894018
 30
0.0
 10
126.311718
 20
169.314705
 30
0.0
 10
125.943419
 20
169.708933
 30
0.0
 10
125.548926
 20
170.076704
 30
0.0
 10
125.130091
 20
170.418016
 30
0.0
 10
124.689295
 20
170.727578
 30
0.0
 10
124.228127
 20
171.008036
 30
0.0
 10
123.748703
 20
171.256744
 30
0.0
 10
123.253668
 20
171.471056
 30
0.0
 10
122.745140
 20
171.653618
 30
0.0
 10
122.225499
 20
171.799139
 30
0.0
 10
121.696862
 20
171.907618
 30
0.0
 10
121.162139
 20
171.981701
 30
0.0
 10
120.623713
 20
172.018743
 30
0.0
 10
120.353838
 20
172.018743
 30
0.0
 10
89.195751
 20
172.018743
 30
0.0
  0
LWPOLYLINE
  5
10c
100
AcDbEntity
  8
Calque_1
 62
7
100
AcDbPolyline
 90
57
 70
0
 10
88.889009
 20
155.964263
 30
0.0
 10
89.123430
 20
155.884889
 30
0.0
 10
89.341182
 20
155.765826
 30
0.0
 10
89.536708
 20
155.615014
 30
0.0
 10
89.704454
 20
155.432452
 30
0.0
 10
89.839921
 20
155.223431
 30
0.0
 10
89.939668
 20
154.998536
 30
0.0
 10
90.000258
 20
154.757765
 30
0.0
 10
90.020895
 20
154.511703
 30
0.0
 10
90.000258
 20
154.262995
 30
0.0
 10
89.939668
 20
154.022224
 30
0.0
 10
89.839921
 20
153.797329
 30
0.0
 10
89.704454
 20
153.588308
 30
0.0
 10
89.536708
 20
153.405746
 30
0.0
 10
89.341182
 20
153.254934
 30
0.0
 10
89.123430
 20
153.135871
 30
0.0
 10
89.020772
 20
153.101475
 30
0.0
 10
89.020772
 20
151.717706
 30
0.0
 10
89.913210
 20
152.609351
 30
0.0
 10
89.962422
 20
152.654330
 30
0.0
 10
89.962422
 20
152.654330
 30
0.0
 10
90.075399
 20
152.717830
 30
0.0
 10
90.201606
 20
152.752226
 30
0.0
 10
90.201606
 20
152.752226
 30
0.0
 10
90.266958
 20
152.757518
 30
0.0
 10
93.618695
 20
152.757518
 30
0.0
 10
93.648328
 20
152.813080
 30
0.0
 10
93.772682
 20
152.963892
 30
0.0
 10
93.924288
 20
153.088246
 30
0.0
 10
94.097061
 20
153.180850
 30
0.0
 10
94.284650
 20
153.236413
 30
0.0
 10
94.479913
 20
153.257579
 30
0.0
 10
94.674910
 20
153.236413
 30
0.0
 10
94.862500
 20
153.180850
 30
0.0
 10
95.035272
 20
153.088246
 30
0.0
 10
95.186878
 20
152.963892
 30
0.0
 10
95.311232
 20
152.813080
 30
0.0
 10
95.403572
 20
152.638455
 30
0.0
 10
95.460722
 20
152.450601
 30
0.0
 10
95.479772
 20
152.257456
 30
0.0
 10
95.460722
 20
152.061664
 30
0.0
 10
95.403572
 20
151.873810
 30
0.0
 10
95.311232
 20
151.701831
 30
0.0
 10
95.186878
 20
151.548373
 30
0.0
 10
95.035272
 20
151.424019
 30
0.0
 10
94.862500
 20
151.331415
 30
0.0
 10
94.674910
 20
151.275853
 30
0.0
 10
94.479913
 20
151.257332
 30
0.0
 10
94.284650
 20
151.275853
 30
0.0
 10
94.097061
 20
151.331415
 30
0.0
 10
93.924288
 20
151.424019
 30
0.0
 10
93.772682
 20
151.548373
 30
0.0
 10
93.648328
 20
151.701831
 30
0.0
 10
93.618695
 20
151.757394
 30
0.0
 10
90.473861
 20
151.757394
 30
0.0
 10
89.374519
 20
150.656729
 30
0.0
 10
89.374519
 20
150.656729
 30
0.0
  0
LWPOLYLINE
  5
10d
100
AcDbEntity
  8
Calque_1
 62
7
100
AcDbPolyline
 90
142
 70
0
 10
89.374254
 20
150.656729
 30
0.0
 10
88.020912
 20
149.304709
 30
0.0
 10
88.020912
 20
134.575374
 30
0.0
 10
89.231909
 20
133.366229
 30
0.0
 10
90.278864
 20
133.366229
 30
0.0
 10
90.372526
 20
133.580542
 30
0.0
 10
90.507993
 20
133.786916
 30
0.0
 10
90.676003
 20
133.969479
 30
0.0
 10
90.871530
 20
134.120291
 30
0.0
 10
91.089281
 20
134.239353
 30
0.0
 10
91.323702
 20
134.318728
 30
0.0
 10
91.567912
 20
134.361062
 30
0.0
 10
91.815826
 20
134.361062
 30
0.0
 10
92.060037
 20
134.318728
 30
0.0
 10
92.294457
 20
134.239353
 30
0.0
 10
92.512209
 20
134.120291
 30
0.0
 10
92.707736
 20
133.969479
 30
0.0
 10
92.875481
 20
133.786916
 30
0.0
 10
93.010948
 20
133.580542
 30
0.0
 10
93.110431
 20
133.353000
 30
0.0
 10
93.171285
 20
133.112230
 30
0.0
 10
93.191923
 20
132.866168
 30
0.0
 10
93.171285
 20
132.617460
 30
0.0
 10
93.110431
 20
132.379335
 30
0.0
 10
93.010948
 20
132.151793
 30
0.0
 10
92.875481
 20
131.945419
 30
0.0
 10
92.707736
 20
131.762856
 30
0.0
 10
92.512209
 20
131.609398
 30
0.0
 10
92.294457
 20
131.492982
 30
0.0
 10
92.060037
 20
131.410961
 30
0.0
 10
91.815826
 20
131.371274
 30
0.0
 10
91.567912
 20
131.371274
 30
0.0
 10
91.323702
 20
131.410961
 30
0.0
 10
91.089281
 20
131.492982
 30
0.0
 10
90.871530
 20
131.609398
 30
0.0
 10
90.676003
 20
131.762856
 30
0.0
 10
90.507993
 20
131.945419
 30
0.0
 10
90.372526
 20
132.151793
 30
0.0
 10
90.278864
 20
132.366106
 30
0.0
 10
90.020895
 20
132.366106
 30
0.0
 10
90.020895
 20
128.511131
 30
0.0
 10
98.813782
 20
128.511131
 30
0.0
 10
100.668774
 20
130.365858
 30
0.0
 10
100.668774
 20
140.896262
 30
0.0
 10
100.613211
 20
140.925366
 30
0.0
 10
100.461605
 20
141.049720
 30
0.0
 10
100.337251
 20
141.200532
 30
0.0
 10
100.244912
 20
141.372511
 30
0.0
 10
100.188026
 20
141.560365
 30
0.0
 10
100.168712
 20
141.756156
 30
0.0
 10
100.188026
 20
141.951948
 30
0.0
 10
100.244912
 20
142.139802
 30
0.0
 10
100.337251
 20
142.311781
 30
0.0
 10
100.461605
 20
142.462593
 30
0.0
 10
100.613211
 20
142.586947
 30
0.0
 10
100.786248
 20
142.679551
 30
0.0
 10
100.973838
 20
142.737759
 30
0.0
 10
101.168835
 20
142.756280
 30
0.0
 10
101.363833
 20
142.737759
 30
0.0
 10
101.551422
 20
142.679551
 30
0.0
 10
101.724460
 20
142.586947
 30
0.0
 10
101.875801
 20
142.462593
 30
0.0
 10
102.000155
 20
142.311781
 30
0.0
 10
102.092759
 20
142.139802
 30
0.0
 10
102.149645
 20
141.951948
 30
0.0
 10
102.168695
 20
141.756156
 30
0.0
 10
102.149645
 20
141.560365
 30
0.0
 10
102.092759
 20
141.372511
 30
0.0
 10
102.000155
 20
141.200532
 30
0.0
 10
101.875801
 20
141.049720
 30
0.0
 10
101.724460
 20
140.925366
 30
0.0
 10
101.668897
 20
140.896262
 30
0.0
 10
101.668897
 20
130.159483
 30
0.0
 10
101.664664
 20
130.093338
 30
0.0
 10
101.664664
 20
130.093338
 30
0.0
 10
101.640852
 20
130.006025
 30
0.0
 10
101.630797
 20
129.966338
 30
0.0
 10
101.565445
 20
129.855213
 30
0.0
 10
101.565445
 20
129.855213
 30
0.0
 10
101.522318
 20
129.804942
 30
0.0
 10
99.374434
 20
127.656528
 30
0.0
 10
99.325221
 20
127.614195
 30
0.0
 10
99.325221
 20
127.614195
 30
0.0
 10
99.212244
 20
127.548049
 30
0.0
 10
99.086038
 20
127.513653
 30
0.0
 10
99.086038
 20
127.513653
 30
0.0
 10
99.020686
 20
127.511008
 30
0.0
 10
89.520833
 20
127.511008
 30
0.0
 10
89.455481
 20
127.513653
 30
0.0
 10
89.329540
 20
127.548049
 30
0.0
 10
89.216563
 20
127.614195
 30
0.0
 10
89.124224
 20
127.706799
 30
0.0
 10
89.058872
 20
127.817924
 30
0.0
 10
89.025005
 20
127.944924
 30
0.0
 10
89.020772
 20
128.011070
 30
0.0
 10
89.020772
 20
132.162377
 30
0.0
 10
88.671257
 20
132.511626
 30
0.0
 10
88.636597
 20
132.551314
 30
0.0
 10
88.596645
 20
132.585710
 30
0.0
 10
87.167368
 20
134.017104
 30
0.0
 10
87.124241
 20
134.064729
 30
0.0
 10
87.124241
 20
134.064729
 30
0.0
 10
87.058889
 20
134.178499
 30
0.0
 10
87.025022
 20
134.305499
 30
0.0
 10
87.025022
 20
134.305499
 30
0.0
 10
87.020789
 20
134.368999
 30
0.0
 10
87.020789
 20
149.511084
 30
0.0
 10
87.025022
 20
149.574584
 30
0.0
 10
87.025022
 20
149.574584
 30
0.0
 10
87.058889
 20
149.701584
 30
0.0
 10
87.124241
 20
149.815355
 30
0.0
 10
87.124241
 20
149.815355
 30
0.0
 10
87.167368
 20
149.862980
 30
0.0
 10
88.313806
 20
151.011270
 30
0.0
 10
88.167227
 20
151.156790
 30
0.0
 10
88.124100
 20
151.207061
 30
0.0
 10
88.124100
 20
151.207061
 30
0.0
 10
88.059012
 20
151.318186
 30
0.0
 10
88.055308
 20
151.331415
 30
0.0
 10
88.025146
 20
151.445186
 30
0.0
 10
88.025146
 20
151.445186
 30
0.0
 10
88.020912
 20
151.511332
 30
0.0
 10
88.020912
 20
153.101475
 30
0.0
 10
87.918254
 20
153.135871
 30
0.0
 10
87.700502
 20
153.254934
 30
0.0
 10
87.504976
 20
153.405746
 30
0.0
 10
87.337230
 20
153.588308
 30
0.0
 10
87.201499
 20
153.797329
 30
0.0
 10
87.102016
 20
154.022224
 30
0.0
 10
87.041162
 20
154.262995
 30
0.0
 10
87.020789
 20
154.511703
 30
0.0
 10
87.041162
 20
154.757765
 30
0.0
 10
87.102016
 20
154.998536
 30
0.0
 10
87.201499
 20
155.223431
 30
0.0
 10
87.337230
 20
155.432452
 30
0.0
 10
87.504976
 20
155.615014
 30
0.0
 10
87.700502
 20
155.765826
 30
0.0
 10
87.918254
 20
155.884889
 30
0.0
 10
88.152675
 20
155.964263
 30
0.0
 10
88.396885
 20
156.006597
 30
0.0
 10
88.644799
 20
156.006597
 30
0.0
 10
88.889009
 20
155.964263
 30
0.0
  0
LWPOLYLINE
  5
10e
100
AcDbEntity
  8
Calque_1
 62
7
100
AcDbPolyline
 90
1
 70
1
 10
106.854989
 20
130.754795
 30
0.0
  0
LWPOLYLINE
  5
10f
100
AcDbEntity
  8
Calque_1
 62
7
100
AcDbPolyline
 90
1
 70
1
 10
106.856047
 20
130.754795
 30
0.0
  0
LWPOLYLINE
  5
110
100
AcDbEntity
  8
Calque_1
 62
7
100
AcDbPolyline
 90
1
 70
1
 10
106.856841
 20
130.752149
 30
0.0
  0
LWPOLYLINE
  5
111
100
AcDbEntity
  8
Calque_1
 62
7
100
AcDbPolyline
 90
1
 70
1
 10
106.857635
 20
130.752149
 30
0.0
  0
LWPOLYLINE
  5
112
100
AcDbEntity
  8
Calque_1
 62
7
100
AcDbPolyline
 90
5
 70
0
 10
106.858693
 20
130.752149
 30
0.0
 10
106.870335
 20
130.749504
 30
0.0
 10
106.956059
 20
130.715108
 30
0.0
 10
106.969024
 20
130.709816
 30
0.0
 10
106.969024
 20
130.709816
 30
0.0
  0
LWPOLYLINE
  5
113
100
AcDbEntity
  8
Calque_1
 62
7
100
AcDbPolyline
 90
1
 70
1
 10
106.971670
 20
130.707170
 30
0.0
  0
LWPOLYLINE
  5
114
100
AcDbEntity
  8
Calque_1
 62
7
100
AcDbPolyline
 90
5
 70
0
 10
106.975109
 20
130.704524
 30
0.0
 10
106.985693
 20
130.693941
 30
0.0
 10
107.042843
 20
130.627795
 30
0.0
 10
107.046282
 20
130.622504
 30
0.0
 10
107.046282
 20
130.622504
 30
0.0
  0
LWPOLYLINE
  5
115
100
AcDbEntity
  8
Calque_1
 62
7
100
AcDbPolyline
 90
1
 70
1
 10
107.047870
 20
130.622504
 30
0.0
  0
LWPOLYLINE
  5
116
100
AcDbEntity
  8
Calque_1
 62
7
100
AcDbPolyline
 90
1
 70
1
 10
107.049457
 20
130.619858
 30
0.0
  0
LWPOLYLINE
  5
117
100
AcDbEntity
  8
Calque_1
 62
7
100
AcDbPolyline
 90
1
 70
1
 10
107.051309
 20
130.617212
 30
0.0
  0
LWPOLYLINE
  5
118
100
AcDbEntity
  8
Calque_1
 62
7
100
AcDbPolyline
 90
8
 70
0
 10
107.051838
 20
130.614566
 30
0.0
 10
107.054749
 20
130.609275
 30
0.0
 10
107.083324
 20
130.543129
 30
0.0
 10
107.085705
 20
130.535191
 30
0.0
 10
107.087822
 20
130.529900
 30
0.0
 10
107.116397
 20
130.394962
 30
0.0
 10
107.116397
 20
130.394962
 30
0.0
 10
107.116397
 20
130.394962
 30
0.0
  0
LWPOLYLINE
  5
119
100
AcDbEntity
  8
Calque_1
 62
7
100
AcDbPolyline
 90
5
 70
0
 10
107.116661
 20
130.394962
 30
0.0
 10
107.117190
 20
130.387025
 30
0.0
 10
107.117984
 20
130.381733
 30
0.0
 10
107.117984
 20
130.381733
 30
0.0
 10
107.117984
 20
130.381733
 30
0.0
  0
LWPOLYLINE
  5
11a
100
AcDbEntity
  8
Calque_1
 62
7
100
AcDbPolyline
 90
7
 70
0
 10
107.117984
 20
130.379087
 30
0.0
 10
107.117984
 20
130.278546
 30
0.0
 10
107.117984
 20
130.278546
 30
0.0
 10
107.117984
 20
130.278546
 30
0.0
 10
107.117190
 20
130.270608
 30
0.0
 10
107.116661
 20
130.265317
 30
0.0
 10
107.116661
 20
130.265317
 30
0.0
  0
LWPOLYLINE
  5
11b
100
AcDbEntity
  8
Calque_1
 62
7
100
AcDbPolyline
 90
8
 70
0
 10
107.116397
 20
130.265317
 30
0.0
 10
107.116397
 20
130.265317
 30
0.0
 10
107.087822
 20
130.130379
 30
0.0
 10
107.085705
 20
130.125088
 30
0.0
 10
107.083324
 20
130.117150
 30
0.0
 10
107.054749
 20
130.051004
 30
0.0
 10
107.051838
 20
130.045713
 30
0.0
 10
107.051838
 20
130.045713
 30
0.0
  0
LWPOLYLINE
  5
11c
100
AcDbEntity
  8
Calque_1
 62
7
100
AcDbPolyline
 90
1
 70
1
 10
107.051309
 20
130.043067
 30
0.0
  0
LWPOLYLINE
  5
11d
100
AcDbEntity
  8
Calque_1
 62
7
100
AcDbPolyline
 90
1
 70
1
 10
107.049457
 20
130.040421
 30
0.0
  0
LWPOLYLINE
  5
11e
100
AcDbEntity
  8
Calque_1
 62
7
100
AcDbPolyline
 90
1
 70
1
 10
107.047870
 20
130.037775
 30
0.0
  0
LWPOLYLINE
  5
11f
100
AcDbEntity
  8
Calque_1
 62
7
100
AcDbPolyline
 90
5
 70
0
 10
107.046282
 20
130.035129
 30
0.0
 10
107.042843
 20
130.029838
 30
0.0
 10
106.985693
 20
129.963692
 30
0.0
 10
106.975109
 20
129.953109
 30
0.0
 10
106.975109
 20
129.953109
 30
0.0
  0
LWPOLYLINE
  5
120
100
AcDbEntity
  8
Calque_1
 62
7
100
AcDbPolyline
 90
1
 70
1
 10
106.971670
 20
129.953109
 30
0.0
  0
LWPOLYLINE
  5
121
100
AcDbEntity
  8
Calque_1
 62
7
100
AcDbPolyline
 90
5
 70
0
 10
106.969024
 20
129.950463
 30
0.0
 10
106.956059
 20
129.942525
 30
0.0
 10
106.870335
 20
129.910775
 30
0.0
 10
106.858693
 20
129.905484
 30
0.0
 10
106.858693
 20
129.905484
 30
0.0
  0
LWPOLYLINE
  5
122
100
AcDbEntity
  8
Calque_1
 62
7
100
AcDbPolyline
 90
1
 70
1
 10
106.857635
 20
129.905484
 30
0.0
  0
LWPOLYLINE
  5
123
100
AcDbEntity
  8
Calque_1
 62
7
100
AcDbPolyline
 90
1
 70
1
 10
106.856841
 20
129.905484
 30
0.0
  0
LWPOLYLINE
  5
124
100
AcDbEntity
  8
Calque_1
 62
7
100
AcDbPolyline
 90
1
 70
1
 10
106.856047
 20
129.905484
 30
0.0
  0
LWPOLYLINE
  5
125
100
AcDbEntity
  8
Calque_1
 62
7
100
AcDbPolyline
 90
16
 70
0
 10
106.854989
 20
129.905484
 30
0.0
 10
106.843082
 20
129.905484
 30
0.0
 10
106.700208
 20
129.905484
 30
0.0
 10
106.685656
 20
129.905484
 30
0.0
 10
106.658668
 20
129.916067
 30
0.0
 10
106.637766
 20
129.937234
 30
0.0
 10
106.626654
 20
129.966338
 30
0.0
 10
106.625331
 20
129.979567
 30
0.0
 10
106.625331
 20
130.680712
 30
0.0
 10
106.626654
 20
130.693941
 30
0.0
 10
106.637766
 20
130.720399
 30
0.0
 10
106.658668
 20
130.741566
 30
0.0
 10
106.685656
 20
130.752149
 30
0.0
 10
106.700208
 20
130.754795
 30
0.0
 10
106.843082
 20
130.754795
 30
0.0
 10
106.854989
 20
130.754795
 30
0.0
  0
LWPOLYLINE
  5
126
100
AcDbEntity
  8
Calque_1
 62
7
100
AcDbPolyline
 90
12
 70
1
 10
106.775085
 20
130.053650
 30
0.0
 10
106.829060
 20
130.053650
 30
0.0
 10
106.884093
 20
130.077463
 30
0.0
 10
106.921399
 20
130.119796
 30
0.0
 10
106.942566
 20
130.170067
 30
0.0
 10
106.967966
 20
130.286483
 30
0.0
 10
106.967966
 20
130.371150
 30
0.0
 10
106.942566
 20
130.490212
 30
0.0
 10
106.921399
 20
130.540483
 30
0.0
 10
106.884093
 20
130.582816
 30
0.0
 10
106.829060
 20
130.603983
 30
0.0
 10
106.775085
 20
130.603983
 30
0.0
  0
LWPOLYLINE
  5
127
100
AcDbEntity
  8
Calque_1
 62
7
100
AcDbPolyline
 90
6
 70
0
 10
107.486284
 20
130.519316
 30
0.0
 10
107.491046
 20
130.519316
 30
0.0
 10
107.496073
 20
130.516671
 30
0.0
 10
107.509567
 20
130.511379
 30
0.0
 10
107.566452
 20
130.476983
 30
0.0
 10
107.566452
 20
130.476983
 30
0.0
  0
LWPOLYLINE
  5
128
100
AcDbEntity
  8
Calque_1
 62
7
100
AcDbPolyline
 90
1
 70
1
 10
107.568569
 20
130.476983
 30
0.0
  0
LWPOLYLINE
  5
129
100
AcDbEntity
  8
Calque_1
 62
7
100
AcDbPolyline
 90
1
 70
1
 10
107.569627
 20
130.476983
 30
0.0
  0
LWPOLYLINE
  5
12a
100
AcDbEntity
  8
Calque_1
 62
7
100
AcDbPolyline
 90
6
 70
0
 10
107.570950
 20
130.474337
 30
0.0
 10
107.578359
 20
130.469046
 30
0.0
 10
107.584179
 20
130.461108
 30
0.0
 10
107.590529
 20
130.455816
 30
0.0
 10
107.595027
 20
130.447879
 30
0.0
 10
107.595027
 20
130.447879
 30
0.0
  0
LWPOLYLINE
  5
12b
100
AcDbEntity
  8
Calque_1
 62
7
100
AcDbPolyline
 90
1
 70
1
 10
107.596086
 20
130.445233
 30
0.0
  0
LWPOLYLINE
  5
12c
100
AcDbEntity
  8
Calque_1
 62
7
100
AcDbPolyline
 90
1
 70
1
 10
107.596350
 20
130.445233
 30
0.0
  0
LWPOLYLINE
  5
12d
100
AcDbEntity
  8
Calque_1
 62
7
100
AcDbPolyline
 90
4
 70
0
 10
107.597673
 20
130.442587
 30
0.0
 10
107.626248
 20
130.376442
 30
0.0
 10
107.630746
 20
130.363212
 30
0.0
 10
107.630746
 20
130.363212
 30
0.0
  0
LWPOLYLINE
  5
12e
100
AcDbEntity
  8
Calque_1
 62
7
100
AcDbPolyline
 90
1
 70
1
 10
107.630746
 20
130.360567
 30
0.0
  0
LWPOLYLINE
  5
12f
100
AcDbEntity
  8
Calque_1
 62
7
100
AcDbPolyline
 90
20
 70
0
 10
107.631011
 20
130.360567
 30
0.0
 10
107.632334
 20
130.347337
 30
0.0
 10
107.632334
 20
129.979567
 30
0.0
 10
107.631011
 20
129.966338
 30
0.0
 10
107.619634
 20
129.937234
 30
0.0
 10
107.598996
 20
129.916067
 30
0.0
 10
107.572009
 20
129.905484
 30
0.0
 10
107.542640
 20
129.905484
 30
0.0
 10
107.530205
 20
129.910775
 30
0.0
 10
107.524648
 20
129.908130
 30
0.0
 10
107.519621
 20
129.908130
 30
0.0
 10
107.514859
 20
129.905484
 30
0.0
 10
107.500307
 20
129.905484
 30
0.0
 10
107.357432
 20
129.905484
 30
0.0
 10
107.342615
 20
129.905484
 30
0.0
 10
107.338117
 20
129.908130
 30
0.0
 10
107.332826
 20
129.908130
 30
0.0
 10
107.319596
 20
129.916067
 30
0.0
 10
107.262447
 20
129.947817
 30
0.0
 10
107.262447
 20
129.947817
 30
0.0
  0
LWPOLYLINE
  5
130
100
AcDbEntity
  8
Calque_1
 62
7
100
AcDbPolyline
 90
1
 70
1
 10
107.260330
 20
129.950463
 30
0.0
  0
LWPOLYLINE
  5
131
100
AcDbEntity
  8
Calque_1
 62
7
100
AcDbPolyline
 90
1
 70
1
 10
107.259272
 20
129.950463
 30
0.0
  0
LWPOLYLINE
  5
132
100
AcDbEntity
  8
Calque_1
 62
7
100
AcDbPolyline
 90
6
 70
0
 10
107.257949
 20
129.950463
 30
0.0
 10
107.250540
 20
129.955755
 30
0.0
 10
107.244984
 20
129.963692
 30
0.0
 10
107.238369
 20
129.971630
 30
0.0
 10
107.233872
 20
129.979567
 30
0.0
 10
107.233872
 20
129.979567
 30
0.0
  0
LWPOLYLINE
  5
133
100
AcDbEntity
  8
Calque_1
 62
7
100
AcDbPolyline
 90
1
 70
1
 10
107.232813
 20
129.979567
 30
0.0
  0
LWPOLYLINE
  5
134
100
AcDbEntity
  8
Calque_1
 62
7
100
AcDbPolyline
 90
1
 70
1
 10
107.232549
 20
129.982213
 30
0.0
  0
LWPOLYLINE
  5
135
100
AcDbEntity
  8
Calque_1
 62
7
100
AcDbPolyline
 90
13
 70
0
 10
107.231226
 20
129.984859
 30
0.0
 10
107.202651
 20
130.051004
 30
0.0
 10
107.198153
 20
130.064234
 30
0.0
 10
107.198153
 20
130.064234
 30
0.0
 10
107.198153
 20
130.064234
 30
0.0
 10
107.196565
 20
130.080109
 30
0.0
 10
107.196565
 20
130.146254
 30
0.0
 10
107.198153
 20
130.162129
 30
0.0
 10
107.198153
 20
130.162129
 30
0.0
 10
107.198153
 20
130.162129
 30
0.0
 10
107.202651
 20
130.175358
 30
0.0
 10
107.231226
 20
130.241504
 30
0.0
 10
107.231226
 20
130.241504
 30
0.0
  0
LWPOLYLINE
  5
136
100
AcDbEntity
  8
Calque_1
 62
7
100
AcDbPolyline
 90
1
 70
1
 10
107.232549
 20
130.244150
 30
0.0
  0
LWPOLYLINE
  5
137
100
AcDbEntity
  8
Calque_1
 62
7
100
AcDbPolyline
 90
1
 70
1
 10
107.232813
 20
130.246796
 30
0.0
  0
LWPOLYLINE
  5
138
100
AcDbEntity
  8
Calque_1
 62
7
100
AcDbPolyline
 90
6
 70
0
 10
107.233872
 20
130.246796
 30
0.0
 10
107.238369
 20
130.254733
 30
0.0
 10
107.244984
 20
130.262671
 30
0.0
 10
107.250540
 20
130.267963
 30
0.0
 10
107.257949
 20
130.275900
 30
0.0
 10
107.257949
 20
130.275900
 30
0.0
  0
LWPOLYLINE
  5
139
100
AcDbEntity
  8
Calque_1
 62
7
100
AcDbPolyline
 90
1
 70
1
 10
107.259272
 20
130.275900
 30
0.0
  0
LWPOLYLINE
  5
13a
100
AcDbEntity
  8
Calque_1
 62
7
100
AcDbPolyline
 90
1
 70
1
 10
107.260330
 20
130.275900
 30
0.0
  0
LWPOLYLINE
  5
13b
100
AcDbEntity
  8
Calque_1
 62
7
100
AcDbPolyline
 90
8
 70
0
 10
107.262447
 20
130.278546
 30
0.0
 10
107.319596
 20
130.310296
 30
0.0
 10
107.332826
 20
130.318233
 30
0.0
 10
107.338117
 20
130.318233
 30
0.0
 10
107.342615
 20
130.320879
 30
0.0
 10
107.357432
 20
130.320879
 30
0.0
 10
107.479934
 20
130.320879
 30
0.0
 10
107.479934
 20
130.320879
 30
0.0
  0
LWPOLYLINE
  5
13c
100
AcDbEntity
  8
Calque_1
 62
7
100
AcDbPolyline
 90
22
 70
0
 10
107.482315
 20
130.323525
 30
0.0
 10
107.482315
 20
130.331462
 30
0.0
 10
107.469615
 20
130.360567
 30
0.0
 10
107.451359
 20
130.371150
 30
0.0
 10
107.377540
 20
130.371150
 30
0.0
 10
107.338117
 20
130.347337
 30
0.0
 10
107.324624
 20
130.342046
 30
0.0
 10
107.295519
 20
130.339400
 30
0.0
 10
107.267474
 20
130.344692
 30
0.0
 10
107.243926
 20
130.363212
 30
0.0
 10
107.229374
 20
130.389671
 30
0.0
 10
107.225405
 20
130.418775
 30
0.0
 10
107.232813
 20
130.445233
 30
0.0
 10
107.250540
 20
130.469046
 30
0.0
 10
107.262447
 20
130.476983
 30
0.0
 10
107.319596
 20
130.511379
 30
0.0
 10
107.332826
 20
130.516671
 30
0.0
 10
107.338117
 20
130.519316
 30
0.0
 10
107.342615
 20
130.519316
 30
0.0
 10
107.357432
 20
130.521962
 30
0.0
 10
107.471732
 20
130.521962
 30
0.0
 10
107.486284
 20
130.519316
 30
0.0
  0
LWPOLYLINE
  5
13d
100
AcDbEntity
  8
Calque_1
 62
7
100
AcDbPolyline
 90
7
 70
0
 10
107.359284
 20
130.159483
 30
0.0
 10
107.346584
 20
130.130379
 30
0.0
 10
107.346584
 20
130.095984
 30
0.0
 10
107.359284
 20
130.064234
 30
0.0
 10
107.377540
 20
130.053650
 30
0.0
 10
107.479934
 20
130.053650
 30
0.0
 10
107.479934
 20
130.053650
 30
0.0
  0
LWPOLYLINE
  5
13e
100
AcDbEntity
  8
Calque_1
 62
7
100
AcDbPolyline
 90
4
 70
0
 10
107.482315
 20
130.056296
 30
0.0
 10
107.482315
 20
130.172713
 30
0.0
 10
107.377540
 20
130.172713
 30
0.0
 10
107.359284
 20
130.159483
 30
0.0
  0
LWPOLYLINE
  5
13f
100
AcDbEntity
  8
Calque_1
 62
7
100
AcDbPolyline
 90
36
 70
0
 10
107.884746
 20
130.741566
 30
0.0
 10
107.905383
 20
130.720399
 30
0.0
 10
107.916760
 20
130.693941
 30
0.0
 10
107.918083
 20
130.680712
 30
0.0
 10
107.918083
 20
130.521962
 30
0.0
 10
107.985816
 20
130.521962
 30
0.0
 10
108.000633
 20
130.519316
 30
0.0
 10
108.027621
 20
130.508733
 30
0.0
 10
108.048258
 20
130.487566
 30
0.0
 10
108.059371
 20
130.461108
 30
0.0
 10
108.059371
 20
130.432004
 30
0.0
 10
108.048258
 20
130.405546
 30
0.0
 10
108.027621
 20
130.384379
 30
0.0
 10
108.000633
 20
130.373796
 30
0.0
 10
107.985816
 20
130.371150
 30
0.0
 10
107.918083
 20
130.371150
 30
0.0
 10
107.918083
 20
130.095984
 30
0.0
 10
107.930783
 20
130.064234
 30
0.0
 10
107.949039
 20
130.053650
 30
0.0
 10
107.985816
 20
130.053650
 30
0.0
 10
108.000633
 20
130.053650
 30
0.0
 10
108.027621
 20
130.043067
 30
0.0
 10
108.048258
 20
130.021900
 30
0.0
 10
108.059371
 20
129.995442
 30
0.0
 10
108.059371
 20
129.966338
 30
0.0
 10
108.048258
 20
129.937234
 30
0.0
 10
108.027621
 20
129.916067
 30
0.0
 10
108.000633
 20
129.905484
 30
0.0
 10
107.985816
 20
129.905484
 30
0.0
 10
107.928667
 20
129.905484
 30
0.0
 10
107.914114
 20
129.905484
 30
0.0
 10
107.909352
 20
129.908130
 30
0.0
 10
107.904325
 20
129.908130
 30
0.0
 10
107.891096
 20
129.916067
 30
0.0
 10
107.833946
 20
129.947817
 30
0.0
 10
107.833946
 20
129.947817
 30
0.0
  0
LWPOLYLINE
  5
140
100
AcDbEntity
  8
Calque_1
 62
7
100
AcDbPolyline
 90
1
 70
1
 10
107.831829
 20
129.950463
 30
0.0
  0
LWPOLYLINE
  5
141
100
AcDbEntity
  8
Calque_1
 62
7
100
AcDbPolyline
 90
1
 70
1
 10
107.830771
 20
129.950463
 30
0.0
  0
LWPOLYLINE
  5
142
100
AcDbEntity
  8
Calque_1
 62
7
100
AcDbPolyline
 90
6
 70
0
 10
107.829448
 20
129.950463
 30
0.0
 10
107.822040
 20
129.955755
 30
0.0
 10
107.816483
 20
129.963692
 30
0.0
 10
107.809869
 20
129.971630
 30
0.0
 10
107.805371
 20
129.979567
 30
0.0
 10
107.805371
 20
129.979567
 30
0.0
  0
LWPOLYLINE
  5
143
100
AcDbEntity
  8
Calque_1
 62
7
100
AcDbPolyline
 90
1
 70
1
 10
107.804313
 20
129.979567
 30
0.0
  0
LWPOLYLINE
  5
144
100
AcDbEntity
  8
Calque_1
 62
7
100
AcDbPolyline
 90
1
 70
1
 10
107.804048
 20
129.982213
 30
0.0
  0
LWPOLYLINE
  5
145
100
AcDbEntity
  8
Calque_1
 62
7
100
AcDbPolyline
 90
5
 70
0
 10
107.802725
 20
129.984859
 30
0.0
 10
107.774150
 20
130.051004
 30
0.0
 10
107.769652
 20
130.064234
 30
0.0
 10
107.769652
 20
130.064234
 30
0.0
 10
107.769652
 20
130.064234
 30
0.0
  0
LWPOLYLINE
  5
146
100
AcDbEntity
  8
Calque_1
 62
7
100
AcDbPolyline
 90
21
 70
0
 10
107.769388
 20
130.064234
 30
0.0
 10
107.768065
 20
130.080109
 30
0.0
 10
107.768065
 20
130.371150
 30
0.0
 10
107.757481
 20
130.371150
 30
0.0
 10
107.742665
 20
130.373796
 30
0.0
 10
107.715677
 20
130.384379
 30
0.0
 10
107.695040
 20
130.405546
 30
0.0
 10
107.683927
 20
130.432004
 30
0.0
 10
107.683927
 20
130.461108
 30
0.0
 10
107.695040
 20
130.487566
 30
0.0
 10
107.715677
 20
130.508733
 30
0.0
 10
107.742665
 20
130.519316
 30
0.0
 10
107.757481
 20
130.521962
 30
0.0
 10
107.768065
 20
130.521962
 30
0.0
 10
107.768065
 20
130.680712
 30
0.0
 10
107.769388
 20
130.693941
 30
0.0
 10
107.780765
 20
130.720399
 30
0.0
 10
107.801402
 20
130.741566
 30
0.0
 10
107.828390
 20
130.752149
 30
0.0
 10
107.857758
 20
130.752149
 30
0.0
 10
107.884746
 20
130.741566
 30
0.0
  0
LWPOLYLINE
  5
147
100
AcDbEntity
  8
Calque_1
 62
7
100
AcDbPolyline
 90
6
 70
0
 10
108.372108
 20
130.519316
 30
0.0
 10
108.376606
 20
130.519316
 30
0.0
 10
108.381897
 20
130.516671
 30
0.0
 10
108.395126
 20
130.511379
 30
0.0
 10
108.452276
 20
130.476983
 30
0.0
 10
108.452276
 20
130.476983
 30
0.0
  0
LWPOLYLINE
  5
148
100
AcDbEntity
  8
Calque_1
 62
7
100
AcDbPolyline
 90
1
 70
1
 10
108.454393
 20
130.476983
 30
0.0
  0
LWPOLYLINE
  5
149
100
AcDbEntity
  8
Calque_1
 62
7
100
AcDbPolyline
 90
1
 70
1
 10
108.455451
 20
130.476983
 30
0.0
  0
LWPOLYLINE
  5
14a
100
AcDbEntity
  8
Calque_1
 62
7
100
AcDbPolyline
 90
6
 70
0
 10
108.456774
 20
130.474337
 30
0.0
 10
108.464183
 20
130.469046
 30
0.0
 10
108.469739
 20
130.461108
 30
0.0
 10
108.476353
 20
130.455816
 30
0.0
 10
108.480851
 20
130.447879
 30
0.0
 10
108.480851
 20
130.447879
 30
0.0
  0
LWPOLYLINE
  5
14b
100
AcDbEntity
  8
Calque_1
 62
7
100
AcDbPolyline
 90
1
 70
1
 10
108.481910
 20
130.445233
 30
0.0
  0
LWPOLYLINE
  5
14c
100
AcDbEntity
  8
Calque_1
 62
7
100
AcDbPolyline
 90
1
 70
1
 10
108.482174
 20
130.445233
 30
0.0
  0
LWPOLYLINE
  5
14d
100
AcDbEntity
  8
Calque_1
 62
7
100
AcDbPolyline
 90
4
 70
0
 10
108.483497
 20
130.442587
 30
0.0
 10
108.512072
 20
130.376442
 30
0.0
 10
108.516570
 20
130.363212
 30
0.0
 10
108.516570
 20
130.363212
 30
0.0
  0
LWPOLYLINE
  5
14e
100
AcDbEntity
  8
Calque_1
 62
7
100
AcDbPolyline
 90
21
 70
0
 10
108.516570
 20
130.360567
 30
0.0
 10
108.516570
 20
130.360567
 30
0.0
 10
108.518157
 20
130.347337
 30
0.0
 10
108.518157
 20
129.979567
 30
0.0
 10
108.516570
 20
129.966338
 30
0.0
 10
108.505457
 20
129.937234
 30
0.0
 10
108.484820
 20
129.916067
 30
0.0
 10
108.457833
 20
129.905484
 30
0.0
 10
108.428464
 20
129.905484
 30
0.0
 10
108.416028
 20
129.910775
 30
0.0
 10
108.410472
 20
129.908130
 30
0.0
 10
108.405181
 20
129.908130
 30
0.0
 10
108.400683
 20
129.905484
 30
0.0
 10
108.385866
 20
129.905484
 30
0.0
 10
108.242991
 20
129.905484
 30
0.0
 10
108.228439
 20
129.905484
 30
0.0
 10
108.223677
 20
129.908130
 30
0.0
 10
108.218649
 20
129.908130
 30
0.0
 10
108.205156
 20
129.916067
 30
0.0
 10
108.148270
 20
129.947817
 30
0.0
 10
108.148270
 20
129.947817
 30
0.0
  0
LWPOLYLINE
  5
14f
100
AcDbEntity
  8
Calque_1
 62
7
100
AcDbPolyline
 90
1
 70
1
 10
108.146154
 20
129.950463
 30
0.0
  0
LWPOLYLINE
  5
150
100
AcDbEntity
  8
Calque_1
 62
7
100
AcDbPolyline
 90
1
 70
1
 10
108.145095
 20
129.950463
 30
0.0
  0
LWPOLYLINE
  5
151
100
AcDbEntity
  8
Calque_1
 62
7
100
AcDbPolyline
 90
6
 70
0
 10
108.143772
 20
129.950463
 30
0.0
 10
108.136100
 20
129.955755
 30
0.0
 10
108.130543
 20
129.963692
 30
0.0
 10
108.124193
 20
129.971630
 30
0.0
 10
108.119695
 20
129.979567
 30
0.0
 10
108.119695
 20
129.979567
 30
0.0
  0
LWPOLYLINE
  5
152
100
AcDbEntity
  8
Calque_1
 62
7
100
AcDbPolyline
 90
1
 70
1
 10
108.118637
 20
129.979567
 30
0.0
  0
LWPOLYLINE
  5
153
100
AcDbEntity
  8
Calque_1
 62
7
100
AcDbPolyline
 90
1
 70
1
 10
108.118108
 20
129.982213
 30
0.0
  0
LWPOLYLINE
  5
154
100
AcDbEntity
  8
Calque_1
 62
7
100
AcDbPolyline
 90
5
 70
0
 10
108.117050
 20
129.984859
 30
0.0
 10
108.088475
 20
130.051004
 30
0.0
 10
108.083977
 20
130.064234
 30
0.0
 10
108.083977
 20
130.064234
 30
0.0
 10
108.083977
 20
130.064234
 30
0.0
  0
LWPOLYLINE
  5
155
100
AcDbEntity
  8
Calque_1
 62
7
100
AcDbPolyline
 90
5
 70
0
 10
108.083712
 20
130.064234
 30
0.0
 10
108.082389
 20
130.080109
 30
0.0
 10
108.082389
 20
130.146254
 30
0.0
 10
108.083712
 20
130.162129
 30
0.0
 10
108.083712
 20
130.162129
 30
0.0
  0
LWPOLYLINE
  5
156
100
AcDbEntity
  8
Calque_1
 62
7
100
AcDbPolyline
 90
5
 70
0
 10
108.083977
 20
130.162129
 30
0.0
 10
108.083977
 20
130.162129
 30
0.0
 10
108.088475
 20
130.175358
 30
0.0
 10
108.117050
 20
130.241504
 30
0.0
 10
108.117050
 20
130.241504
 30
0.0
  0
LWPOLYLINE
  5
157
100
AcDbEntity
  8
Calque_1
 62
7
100
AcDbPolyline
 90
1
 70
1
 10
108.118108
 20
130.244150
 30
0.0
  0
LWPOLYLINE
  5
158
100
AcDbEntity
  8
Calque_1
 62
7
100
AcDbPolyline
 90
1
 70
1
 10
108.118637
 20
130.246796
 30
0.0
  0
LWPOLYLINE
  5
159
100
AcDbEntity
  8
Calque_1
 62
7
100
AcDbPolyline
 90
6
 70
0
 10
108.119695
 20
130.246796
 30
0.0
 10
108.124193
 20
130.254733
 30
0.0
 10
108.130543
 20
130.262671
 30
0.0
 10
108.136100
 20
130.267963
 30
0.0
 10
108.143772
 20
130.275900
 30
0.0
 10
108.143772
 20
130.275900
 30
0.0
  0
LWPOLYLINE
  5
15a
100
AcDbEntity
  8
Calque_1
 62
7
100
AcDbPolyline
 90
1
 70
1
 10
108.145095
 20
130.275900
 30
0.0
  0
LWPOLYLINE
  5
15b
100
AcDbEntity
  8
Calque_1
 62
7
100
AcDbPolyline
 90
1
 70
1
 10
108.146154
 20
130.275900
 30
0.0
  0
LWPOLYLINE
  5
15c
100
AcDbEntity
  8
Calque_1
 62
7
100
AcDbPolyline
 90
8
 70
0
 10
108.148006
 20
130.278546
 30
0.0
 10
108.205156
 20
130.310296
 30
0.0
 10
108.218649
 20
130.318233
 30
0.0
 10
108.223677
 20
130.318233
 30
0.0
 10
108.228439
 20
130.320879
 30
0.0
 10
108.242991
 20
130.320879
 30
0.0
 10
108.365758
 20
130.320879
 30
0.0
 10
108.365758
 20
130.320879
 30
0.0
  0
LWPOLYLINE
  5
15d
100
AcDbEntity
  8
Calque_1
 62
7
100
AcDbPolyline
 90
22
 70
0
 10
108.368139
 20
130.323525
 30
0.0
 10
108.368139
 20
130.331462
 30
0.0
 10
108.355439
 20
130.360567
 30
0.0
 10
108.337183
 20
130.371150
 30
0.0
 10
108.263364
 20
130.371150
 30
0.0
 10
108.223677
 20
130.347337
 30
0.0
 10
108.210447
 20
130.342046
 30
0.0
 10
108.181343
 20
130.339400
 30
0.0
 10
108.153033
 20
130.344692
 30
0.0
 10
108.129750
 20
130.363212
 30
0.0
 10
108.114933
 20
130.389671
 30
0.0
 10
108.110964
 20
130.418775
 30
0.0
 10
108.118637
 20
130.445233
 30
0.0
 10
108.136100
 20
130.469046
 30
0.0
 10
108.148006
 20
130.476983
 30
0.0
 10
108.205156
 20
130.511379
 30
0.0
 10
108.218649
 20
130.516671
 30
0.0
 10
108.223677
 20
130.519316
 30
0.0
 10
108.228439
 20
130.519316
 30
0.0
 10
108.242991
 20
130.521962
 30
0.0
 10
108.357291
 20
130.521962
 30
0.0
 10
108.372108
 20
130.519316
 30
0.0
  0
LWPOLYLINE
  5
15e
100
AcDbEntity
  8
Calque_1
 62
7
100
AcDbPolyline
 90
7
 70
0
 10
108.245108
 20
130.159483
 30
0.0
 10
108.232408
 20
130.130379
 30
0.0
 10
108.232408
 20
130.095984
 30
0.0
 10
108.245108
 20
130.064234
 30
0.0
 10
108.263364
 20
130.053650
 30
0.0
 10
108.365758
 20
130.053650
 30
0.0
 10
108.365758
 20
130.053650
 30
0.0
  0
LWPOLYLINE
  5
15f
100
AcDbEntity
  8
Calque_1
 62
7
100
AcDbPolyline
 90
4
 70
0
 10
108.368139
 20
130.056296
 30
0.0
 10
108.368139
 20
130.172713
 30
0.0
 10
108.263364
 20
130.172713
 30
0.0
 10
108.245108
 20
130.159483
 30
0.0
  0
LWPOLYLINE
  5
160
100
AcDbEntity
  8
Calque_1
 62
7
100
AcDbPolyline
 90
47
 70
0
 10
113.702926
 20
130.752149
 30
0.0
 10
113.707688
 20
130.752149
 30
0.0
 10
113.712715
 20
130.749504
 30
0.0
 10
113.726209
 20
130.744212
 30
0.0
 10
113.783359
 20
130.712462
 30
0.0
 10
113.795265
 20
130.701879
 30
0.0
 10
113.812992
 20
130.678066
 30
0.0
 10
113.820401
 20
130.651608
 30
0.0
 10
113.816432
 20
130.622504
 30
0.0
 10
113.801615
 20
130.596045
 30
0.0
 10
113.778332
 20
130.580170
 30
0.0
 10
113.750022
 20
130.572233
 30
0.0
 10
113.721182
 20
130.574879
 30
0.0
 10
113.707688
 20
130.582816
 30
0.0
 10
113.668001
 20
130.603983
 30
0.0
 10
113.616672
 20
130.603983
 30
0.0
 10
113.561639
 20
130.582816
 30
0.0
 10
113.524068
 20
130.540483
 30
0.0
 10
113.502901
 20
130.490212
 30
0.0
 10
113.477766
 20
130.371150
 30
0.0
 10
113.477766
 20
130.286483
 30
0.0
 10
113.502901
 20
130.170067
 30
0.0
 10
113.524068
 20
130.119796
 30
0.0
 10
113.561639
 20
130.077463
 30
0.0
 10
113.616672
 20
130.053650
 30
0.0
 10
113.645776
 20
130.053650
 30
0.0
 10
113.698957
 20
130.074817
 30
0.0
 10
113.698957
 20
130.204463
 30
0.0
 10
113.659799
 20
130.204463
 30
0.0
 10
113.645247
 20
130.207108
 30
0.0
 10
113.617995
 20
130.217692
 30
0.0
 10
113.597357
 20
130.238858
 30
0.0
 10
113.586245
 20
130.265317
 30
0.0
 10
113.586245
 20
130.294421
 30
0.0
 10
113.597357
 20
130.320879
 30
0.0
 10
113.617995
 20
130.342046
 30
0.0
 10
113.645247
 20
130.352629
 30
0.0
 10
113.659799
 20
130.355275
 30
0.0
 10
113.774099
 20
130.355275
 30
0.0
 10
113.788651
 20
130.352629
 30
0.0
 10
113.815638
 20
130.342046
 30
0.0
 10
113.836540
 20
130.320879
 30
0.0
 10
113.847653
 20
130.294421
 30
0.0
 10
113.848976
 20
130.278546
 30
0.0
 10
113.848976
 20
130.045713
 30
0.0
 10
113.848447
 20
130.040421
 30
0.0
 10
113.848447
 20
130.040421
 30
0.0
  0
LWPOLYLINE
  5
161
100
AcDbEntity
  8
Calque_1
 62
7
100
AcDbPolyline
 90
1
 70
1
 10
113.848447
 20
130.037775
 30
0.0
  0
LWPOLYLINE
  5
162
100
AcDbEntity
  8
Calque_1
 62
7
100
AcDbPolyline
 90
1
 70
1
 10
113.847917
 20
130.035129
 30
0.0
  0
LWPOLYLINE
  5
163
100
AcDbEntity
  8
Calque_1
 62
7
100
AcDbPolyline
 90
4
 70
0
 10
113.847653
 20
130.032484
 30
0.0
 10
113.843155
 20
130.021900
 30
0.0
 10
113.839451
 20
130.008671
 30
0.0
 10
113.839451
 20
130.008671
 30
0.0
  0
LWPOLYLINE
  5
164
100
AcDbEntity
  8
Calque_1
 62
7
100
AcDbPolyline
 90
1
 70
1
 10
113.837069
 20
130.006025
 30
0.0
  0
LWPOLYLINE
  5
165
100
AcDbEntity
  8
Calque_1
 62
7
100
AcDbPolyline
 90
1
 70
1
 10
113.836540
 20
130.006025
 30
0.0
  0
LWPOLYLINE
  5
166
100
AcDbEntity
  8
Calque_1
 62
7
100
AcDbPolyline
 90
5
 70
0
 10
113.834953
 20
130.003380
 30
0.0
 10
113.830984
 20
129.998088
 30
0.0
 10
113.802409
 20
129.963692
 30
0.0
 10
113.791826
 20
129.953109
 30
0.0
 10
113.791826
 20
129.953109
 30
0.0
  0
LWPOLYLINE
  5
167
100
AcDbEntity
  8
Calque_1
 62
7
100
AcDbPolyline
 90
1
 70
1
 10
113.788386
 20
129.953109
 30
0.0
  0
LWPOLYLINE
  5
168
100
AcDbEntity
  8
Calque_1
 62
7
100
AcDbPolyline
 90
5
 70
0
 10
113.785740
 20
129.950463
 30
0.0
 10
113.772776
 20
129.942525
 30
0.0
 10
113.687051
 20
129.910775
 30
0.0
 10
113.675409
 20
129.905484
 30
0.0
 10
113.675409
 20
129.905484
 30
0.0
  0
LWPOLYLINE
  5
169
100
AcDbEntity
  8
Calque_1
 62
7
100
AcDbPolyline
 90
1
 70
1
 10
113.674351
 20
129.905484
 30
0.0
  0
LWPOLYLINE
  5
16a
100
AcDbEntity
  8
Calque_1
 62
7
100
AcDbPolyline
 90
1
 70
1
 10
113.673557
 20
129.905484
 30
0.0
  0
LWPOLYLINE
  5
16b
100
AcDbEntity
  8
Calque_1
 62
7
100
AcDbPolyline
 90
1
 70
1
 10
113.672763
 20
129.905484
 30
0.0
  0
LWPOLYLINE
  5
16c
100
AcDbEntity
  8
Calque_1
 62
7
100
AcDbPolyline
 90
5
 70
0
 10
113.671705
 20
129.905484
 30
0.0
 10
113.659799
 20
129.905484
 30
0.0
 10
113.602649
 20
129.905484
 30
0.0
 10
113.590743
 20
129.905484
 30
0.0
 10
113.590743
 20
129.905484
 30
0.0
  0
LWPOLYLINE
  5
16d
100
AcDbEntity
  8
Calque_1
 62
7
100
AcDbPolyline
 90
1
 70
1
 10
113.589684
 20
129.905484
 30
0.0
  0
LWPOLYLINE
  5
16e
100
AcDbEntity
  8
Calque_1
 62
7
100
AcDbPolyline
 90
1
 70
1
 10
113.588891
 20
129.905484
 30
0.0
  0
LWPOLYLINE
  5
16f
100
AcDbEntity
  8
Calque_1
 62
7
100
AcDbPolyline
 90
1
 70
1
 10
113.588097
 20
129.905484
 30
0.0
  0
LWPOLYLINE
  5
170
100
AcDbEntity
  8
Calque_1
 62
7
100
AcDbPolyline
 90
5
 70
0
 10
113.586774
 20
129.905484
 30
0.0
 10
113.575397
 20
129.910775
 30
0.0
 10
113.489672
 20
129.942525
 30
0.0
 10
113.476707
 20
129.950463
 30
0.0
 10
113.476707
 20
129.950463
 30
0.0
  0
LWPOLYLINE
  5
171
100
AcDbEntity
  8
Calque_1
 62
7
100
AcDbPolyline
 90
1
 70
1
 10
113.473797
 20
129.953109
 30
0.0
  0
LWPOLYLINE
  5
172
100
AcDbEntity
  8
Calque_1
 62
7
100
AcDbPolyline
 90
5
 70
0
 10
113.470622
 20
129.953109
 30
0.0
 10
113.460039
 20
129.963692
 30
0.0
 10
113.402889
 20
130.029838
 30
0.0
 10
113.399185
 20
130.035129
 30
0.0
 10
113.399185
 20
130.035129
 30
0.0
  0
LWPOLYLINE
  5
173
100
AcDbEntity
  8
Calque_1
 62
7
100
AcDbPolyline
 90
1
 70
1
 10
113.397862
 20
130.037775
 30
0.0
  0
LWPOLYLINE
  5
174
100
AcDbEntity
  8
Calque_1
 62
7
100
AcDbPolyline
 90
1
 70
1
 10
113.396274
 20
130.040421
 30
0.0
  0
LWPOLYLINE
  5
175
100
AcDbEntity
  8
Calque_1
 62
7
100
AcDbPolyline
 90
1
 70
1
 10
113.394422
 20
130.043067
 30
0.0
  0
LWPOLYLINE
  5
176
100
AcDbEntity
  8
Calque_1
 62
7
100
AcDbPolyline
 90
8
 70
0
 10
113.393893
 20
130.045713
 30
0.0
 10
113.390718
 20
130.051004
 30
0.0
 10
113.362143
 20
130.117150
 30
0.0
 10
113.360026
 20
130.125088
 30
0.0
 10
113.357910
 20
130.130379
 30
0.0
 10
113.329335
 20
130.265317
 30
0.0
 10
113.329335
 20
130.265317
 30
0.0
 10
113.329335
 20
130.265317
 30
0.0
  0
LWPOLYLINE
  5
177
100
AcDbEntity
  8
Calque_1
 62
7
100
AcDbPolyline
 90
7
 70
0
 10
113.329070
 20
130.265317
 30
0.0
 10
113.328541
 20
130.270608
 30
0.0
 10
113.327747
 20
130.278546
 30
0.0
 10
113.327747
 20
130.278546
 30
0.0
 10
113.327747
 20
130.278546
 30
0.0
 10
113.327747
 20
130.379087
 30
0.0
 10
113.327747
 20
130.379087
 30
0.0
  0
LWPOLYLINE
  5
178
100
AcDbEntity
  8
Calque_1
 62
7
100
AcDbPolyline
 90
5
 70
0
 10
113.327747
 20
130.381733
 30
0.0
 10
113.327747
 20
130.381733
 30
0.0
 10
113.328541
 20
130.387025
 30
0.0
 10
113.329070
 20
130.394962
 30
0.0
 10
113.329070
 20
130.394962
 30
0.0
  0
LWPOLYLINE
  5
179
100
AcDbEntity
  8
Calque_1
 62
7
100
AcDbPolyline
 90
8
 70
0
 10
113.329335
 20
130.394962
 30
0.0
 10
113.329335
 20
130.394962
 30
0.0
 10
113.357910
 20
130.529900
 30
0.0
 10
113.360026
 20
130.535191
 30
0.0
 10
113.362143
 20
130.543129
 30
0.0
 10
113.390718
 20
130.609275
 30
0.0
 10
113.393893
 20
130.614566
 30
0.0
 10
113.393893
 20
130.614566
 30
0.0
  0
LWPOLYLINE
  5
17a
100
AcDbEntity
  8
Calque_1
 62
7
100
AcDbPolyline
 90
1
 70
1
 10
113.394422
 20
130.617212
 30
0.0
  0
LWPOLYLINE
  5
17b
100
AcDbEntity
  8
Calque_1
 62
7
100
AcDbPolyline
 90
1
 70
1
 10
113.396274
 20
130.619858
 30
0.0
  0
LWPOLYLINE
  5
17c
100
AcDbEntity
  8
Calque_1
 62
7
100
AcDbPolyline
 90
1
 70
1
 10
113.397862
 20
130.622504
 30
0.0
  0
LWPOLYLINE
  5
17d
100
AcDbEntity
  8
Calque_1
 62
7
100
AcDbPolyline
 90
5
 70
0
 10
113.399185
 20
130.622504
 30
0.0
 10
113.402889
 20
130.627795
 30
0.0
 10
113.460039
 20
130.693941
 30
0.0
 10
113.470622
 20
130.704524
 30
0.0
 10
113.470622
 20
130.704524
 30
0.0
  0
LWPOLYLINE
  5
17e
100
AcDbEntity
  8
Calque_1
 62
7
100
AcDbPolyline
 90
1
 70
1
 10
113.473797
 20
130.707170
 30
0.0
  0
LWPOLYLINE
  5
17f
100
AcDbEntity
  8
Calque_1
 62
7
100
AcDbPolyline
 90
5
 70
0
 10
113.476707
 20
130.709816
 30
0.0
 10
113.489672
 20
130.715108
 30
0.0
 10
113.575397
 20
130.749504
 30
0.0
 10
113.586774
 20
130.752149
 30
0.0
 10
113.586774
 20
130.752149
 30
0.0
  0
LWPOLYLINE
  5
180
100
AcDbEntity
  8
Calque_1
 62
7
100
AcDbPolyline
 90
1
 70
1
 10
113.588097
 20
130.752149
 30
0.0
  0
LWPOLYLINE
  5
181
100
AcDbEntity
  8
Calque_1
 62
7
100
AcDbPolyline
 90
1
 70
1
 10
113.588891
 20
130.752149
 30
0.0
  0
LWPOLYLINE
  5
182
100
AcDbEntity
  8
Calque_1
 62
7
100
AcDbPolyline
 90
1
 70
1
 10
113.589684
 20
130.754795
 30
0.0
  0
LWPOLYLINE
  5
183
100
AcDbEntity
  8
Calque_1
 62
7
100
AcDbPolyline
 90
4
 70
0
 10
113.590743
 20
130.754795
 30
0.0
 10
113.602649
 20
130.754795
 30
0.0
 10
113.688374
 20
130.754795
 30
0.0
 10
113.702926
 20
130.752149
 30
0.0
  0
LWPOLYLINE
  5
184
100
AcDbEntity
  8
Calque_1
 62
7
100
AcDbPolyline
 90
1
 70
1
 10
114.814439
 20
130.754795
 30
0.0
  0
LWPOLYLINE
  5
185
100
AcDbEntity
  8
Calque_1
 62
7
100
AcDbPolyline
 90
1
 70
1
 10
114.815762
 20
130.754795
 30
0.0
  0
LWPOLYLINE
  5
186
100
AcDbEntity
  8
Calque_1
 62
7
100
AcDbPolyline
 90
1
 70
1
 10
114.816556
 20
130.752149
 30
0.0
  0
LWPOLYLINE
  5
187
100
AcDbEntity
  8
Calque_1
 62
7
100
AcDbPolyline
 90
1
 70
1
 10
114.817350
 20
130.752149
 30
0.0
  0
LWPOLYLINE
  5
188
100
AcDbEntity
  8
Calque_1
 62
7
100
AcDbPolyline
 90
5
 70
0
 10
114.818408
 20
130.752149
 30
0.0
 10
114.829785
 20
130.749504
 30
0.0
 10
114.915510
 20
130.715108
 30
0.0
 10
114.928739
 20
130.709816
 30
0.0
 10
114.928739
 20
130.709816
 30
0.0
  0
LWPOLYLINE
  5
189
100
AcDbEntity
  8
Calque_1
 62
7
100
AcDbPolyline
 90
1
 70
1
 10
114.931385
 20
130.707170
 30
0.0
  0
LWPOLYLINE
  5
18a
100
AcDbEntity
  8
Calque_1
 62
7
100
AcDbPolyline
 90
5
 70
0
 10
114.934560
 20
130.704524
 30
0.0
 10
114.945408
 20
130.693941
 30
0.0
 10
115.002558
 20
130.627795
 30
0.0
 10
115.005997
 20
130.622504
 30
0.0
 10
115.005997
 20
130.622504
 30
0.0
  0
LWPOLYLINE
  5
18b
100
AcDbEntity
  8
Calque_1
 62
7
100
AcDbPolyline
 90
1
 70
1
 10
115.007320
 20
130.622504
 30
0.0
  0
LWPOLYLINE
  5
18c
100
AcDbEntity
  8
Calque_1
 62
7
100
AcDbPolyline
 90
1
 70
1
 10
115.008908
 20
130.619858
 30
0.0
  0
LWPOLYLINE
  5
18d
100
AcDbEntity
  8
Calque_1
 62
7
100
AcDbPolyline
 90
1
 70
1
 10
115.010760
 20
130.617212
 30
0.0
  0
LWPOLYLINE
  5
18e
100
AcDbEntity
  8
Calque_1
 62
7
100
AcDbPolyline
 90
7
 70
0
 10
115.011553
 20
130.614566
 30
0.0
 10
115.014464
 20
130.609275
 30
0.0
 10
115.043039
 20
130.543129
 30
0.0
 10
115.045155
 20
130.535191
 30
0.0
 10
115.047272
 20
130.529900
 30
0.0
 10
115.075847
 20
130.394962
 30
0.0
 10
115.075847
 20
130.394962
 30
0.0
  0
LWPOLYLINE
  5
18f
100
AcDbEntity
  8
Calque_1
 62
7
100
AcDbPolyline
 90
5
 70
0
 10
115.076112
 20
130.394962
 30
0.0
 10
115.076112
 20
130.394962
 30
0.0
 10
115.076905
 20
130.387025
 30
0.0
 10
115.077699
 20
130.381733
 30
0.0
 10
115.077699
 20
130.381733
 30
0.0
  0
LWPOLYLINE
  5
190
100
AcDbEntity
  8
Calque_1
 62
7
100
AcDbPolyline
 90
1
 70
1
 10
115.077435
 20
130.381733
 30
0.0
  0
LWPOLYLINE
  5
191
100
AcDbEntity
  8
Calque_1
 62
7
100
AcDbPolyline
 90
3
 70
0
 10
115.077699
 20
130.379087
 30
0.0
 10
115.077699
 20
130.278546
 30
0.0
 10
115.077699
 20
130.278546
 30
0.0
  0
LWPOLYLINE
  5
192
100
AcDbEntity
  8
Calque_1
 62
7
100
AcDbPolyline
 90
1
 70
1
 10
115.077435
 20
130.278546
 30
0.0
  0
LWPOLYLINE
  5
193
100
AcDbEntity
  8
Calque_1
 62
7
100
AcDbPolyline
 90
5
 70
0
 10
115.077699
 20
130.278546
 30
0.0
 10
115.076905
 20
130.270608
 30
0.0
 10
115.076112
 20
130.265317
 30
0.0
 10
115.076112
 20
130.265317
 30
0.0
 10
115.076112
 20
130.265317
 30
0.0
  0
LWPOLYLINE
  5
194
100
AcDbEntity
  8
Calque_1
 62
7
100
AcDbPolyline
 90
7
 70
0
 10
115.075847
 20
130.265317
 30
0.0
 10
115.047272
 20
130.130379
 30
0.0
 10
115.045155
 20
130.125088
 30
0.0
 10
115.043039
 20
130.117150
 30
0.0
 10
115.014464
 20
130.051004
 30
0.0
 10
115.011553
 20
130.045713
 30
0.0
 10
115.011553
 20
130.045713
 30
0.0
  0
LWPOLYLINE
  5
195
100
AcDbEntity
  8
Calque_1
 62
7
100
AcDbPolyline
 90
1
 70
1
 10
115.010760
 20
130.043067
 30
0.0
  0
LWPOLYLINE
  5
196
100
AcDbEntity
  8
Calque_1
 62
7
100
AcDbPolyline
 90
1
 70
1
 10
115.008908
 20
130.040421
 30
0.0
  0
LWPOLYLINE
  5
197
100
AcDbEntity
  8
Calque_1
 62
7
100
AcDbPolyline
 90
1
 70
1
 10
115.007320
 20
130.037775
 30
0.0
  0
LWPOLYLINE
  5
198
100
AcDbEntity
  8
Calque_1
 62
7
100
AcDbPolyline
 90
5
 70
0
 10
115.005997
 20
130.035129
 30
0.0
 10
115.002558
 20
130.029838
 30
0.0
 10
114.945408
 20
129.963692
 30
0.0
 10
114.934560
 20
129.953109
 30
0.0
 10
114.934560
 20
129.953109
 30
0.0
  0
LWPOLYLINE
  5
199
100
AcDbEntity
  8
Calque_1
 62
7
100
AcDbPolyline
 90
1
 70
1
 10
114.931385
 20
129.953109
 30
0.0
  0
LWPOLYLINE
  5
19a
100
AcDbEntity
  8
Calque_1
 62
7
100
AcDbPolyline
 90
5
 70
0
 10
114.928739
 20
129.950463
 30
0.0
 10
114.915510
 20
129.942525
 30
0.0
 10
114.829785
 20
129.910775
 30
0.0
 10
114.818408
 20
129.905484
 30
0.0
 10
114.818408
 20
129.905484
 30
0.0
  0
LWPOLYLINE
  5
19b
100
AcDbEntity
  8
Calque_1
 62
7
100
AcDbPolyline
 90
1
 70
1
 10
114.817350
 20
129.905484
 30
0.0
  0
LWPOLYLINE
  5
19c
100
AcDbEntity
  8
Calque_1
 62
7
100
AcDbPolyline
 90
1
 70
1
 10
114.816556
 20
129.905484
 30
0.0
  0
LWPOLYLINE
  5
19d
100
AcDbEntity
  8
Calque_1
 62
7
100
AcDbPolyline
 90
1
 70
1
 10
114.815762
 20
129.905484
 30
0.0
  0
LWPOLYLINE
  5
19e
100
AcDbEntity
  8
Calque_1
 62
7
100
AcDbPolyline
 90
16
 70
0
 10
114.814439
 20
129.905484
 30
0.0
 10
114.802533
 20
129.905484
 30
0.0
 10
114.659658
 20
129.905484
 30
0.0
 10
114.645106
 20
129.905484
 30
0.0
 10
114.618119
 20
129.916067
 30
0.0
 10
114.597481
 20
129.937234
 30
0.0
 10
114.586104
 20
129.966338
 30
0.0
 10
114.584781
 20
129.979567
 30
0.0
 10
114.584781
 20
130.680712
 30
0.0
 10
114.586104
 20
130.693941
 30
0.0
 10
114.597481
 20
130.720399
 30
0.0
 10
114.618119
 20
130.741566
 30
0.0
 10
114.645106
 20
130.752149
 30
0.0
 10
114.659658
 20
130.754795
 30
0.0
 10
114.802533
 20
130.754795
 30
0.0
 10
114.814439
 20
130.754795
 30
0.0
  0
LWPOLYLINE
  5
19f
100
AcDbEntity
  8
Calque_1
 62
7
100
AcDbPolyline
 90
12
 70
1
 10
114.734800
 20
130.053650
 30
0.0
 10
114.788510
 20
130.053650
 30
0.0
 10
114.843543
 20
130.077463
 30
0.0
 10
114.881114
 20
130.119796
 30
0.0
 10
114.902281
 20
130.170067
 30
0.0
 10
114.927681
 20
130.286483
 30
0.0
 10
114.927681
 20
130.371150
 30
0.0
 10
114.902281
 20
130.490212
 30
0.0
 10
114.881114
 20
130.540483
 30
0.0
 10
114.843543
 20
130.582816
 30
0.0
 10
114.788510
 20
130.603983
 30
0.0
 10
114.734800
 20
130.603983
 30
0.0
  0
LWPOLYLINE
  5
1a0
100
AcDbEntity
  8
Calque_1
 62
7
100
AcDbPolyline
 90
1
 70
1
 10
114.043444
 20
130.752149
 30
0.0
  0
LWPOLYLINE
  5
1a1
100
AcDbEntity
  8
Calque_1
 62
7
100
AcDbPolyline
 90
4
 70
0
 10
114.045825
 20
130.752149
 30
0.0
 10
114.057203
 20
130.749504
 30
0.0
 10
114.068844
 20
130.744212
 30
0.0
 10
114.068844
 20
130.744212
 30
0.0
  0
LWPOLYLINE
  5
1a2
100
AcDbEntity
  8
Calque_1
 62
7
100
AcDbPolyline
 90
1
 70
1
 10
114.070696
 20
130.744212
 30
0.0
  0
LWPOLYLINE
  5
1a3
100
AcDbEntity
  8
Calque_1
 62
7
100
AcDbPolyline
 90
4
 70
0
 10
114.072813
 20
130.741566
 30
0.0
 10
114.081544
 20
130.733629
 30
0.0
 10
114.090805
 20
130.725691
 30
0.0
 10
114.090805
 20
130.725691
 30
0.0
  0
LWPOLYLINE
  5
1a4
100
AcDbEntity
  8
Calque_1
 62
7
100
AcDbPolyline
 90
1
 70
1
 10
114.092657
 20
130.723045
 30
0.0
  0
LWPOLYLINE
  5
1a5
100
AcDbEntity
  8
Calque_1
 62
7
100
AcDbPolyline
 90
1
 70
1
 10
114.093450
 20
130.720399
 30
0.0
  0
LWPOLYLINE
  5
1a6
100
AcDbEntity
  8
Calque_1
 62
7
100
AcDbPolyline
 90
16
 70
0
 10
114.094244
 20
130.720399
 30
0.0
 10
114.098477
 20
130.712462
 30
0.0
 10
114.299031
 20
130.302358
 30
0.0
 10
114.299031
 20
130.680712
 30
0.0
 10
114.300619
 20
130.693941
 30
0.0
 10
114.311731
 20
130.720399
 30
0.0
 10
114.332369
 20
130.741566
 30
0.0
 10
114.359356
 20
130.752149
 30
0.0
 10
114.388725
 20
130.752149
 30
0.0
 10
114.415713
 20
130.741566
 30
0.0
 10
114.436350
 20
130.720399
 30
0.0
 10
114.447727
 20
130.693941
 30
0.0
 10
114.449050
 20
130.680712
 30
0.0
 10
114.449050
 20
129.979567
 30
0.0
 10
114.448256
 20
129.971630
 30
0.0
 10
114.448256
 20
129.971630
 30
0.0
  0
LWPOLYLINE
  5
1a7
100
AcDbEntity
  8
Calque_1
 62
7
100
AcDbPolyline
 90
1
 70
1
 10
114.448521
 20
129.968984
 30
0.0
  0
LWPOLYLINE
  5
1a8
100
AcDbEntity
  8
Calque_1
 62
7
100
AcDbPolyline
 90
1
 70
1
 10
114.447992
 20
129.968984
 30
0.0
  0
LWPOLYLINE
  5
1a9
100
AcDbEntity
  8
Calque_1
 62
7
100
AcDbPolyline
 90
4
 70
0
 10
114.447727
 20
129.966338
 30
0.0
 10
114.442965
 20
129.953109
 30
0.0
 10
114.438996
 20
129.942525
 30
0.0
 10
114.438996
 20
129.942525
 30
0.0
  0
LWPOLYLINE
  5
1aa
100
AcDbEntity
  8
Calque_1
 62
7
100
AcDbPolyline
 90
1
 70
1
 10
114.437408
 20
129.939880
 30
0.0
  0
LWPOLYLINE
  5
1ab
100
AcDbEntity
  8
Calque_1
 62
7
100
AcDbPolyline
 90
4
 70
0
 10
114.436350
 20
129.937234
 30
0.0
 10
114.427619
 20
129.929296
 30
0.0
 10
114.419681
 20
129.921359
 30
0.0
 10
114.419681
 20
129.921359
 30
0.0
  0
LWPOLYLINE
  5
1ac
100
AcDbEntity
  8
Calque_1
 62
7
100
AcDbPolyline
 90
1
 70
1
 10
114.417300
 20
129.918713
 30
0.0
  0
LWPOLYLINE
  5
1ad
100
AcDbEntity
  8
Calque_1
 62
7
100
AcDbPolyline
 90
4
 70
0
 10
114.415713
 20
129.916067
 30
0.0
 10
114.404335
 20
129.913421
 30
0.0
 10
114.393223
 20
129.908130
 30
0.0
 10
114.393223
 20
129.908130
 30
0.0
  0
LWPOLYLINE
  5
1ae
100
AcDbEntity
  8
Calque_1
 62
7
100
AcDbPolyline
 90
1
 70
1
 10
114.390842
 20
129.908130
 30
0.0
  0
LWPOLYLINE
  5
1af
100
AcDbEntity
  8
Calque_1
 62
7
100
AcDbPolyline
 90
4
 70
0
 10
114.388725
 20
129.905484
 30
0.0
 10
114.376290
 20
129.905484
 30
0.0
 10
114.364119
 20
129.905484
 30
0.0
 10
114.364119
 20
129.905484
 30
0.0
  0
LWPOLYLINE
  5
1b0
100
AcDbEntity
  8
Calque_1
 62
7
100
AcDbPolyline
 90
1
 70
1
 10
114.361738
 20
129.905484
 30
0.0
  0
LWPOLYLINE
  5
1b1
100
AcDbEntity
  8
Calque_1
 62
7
100
AcDbPolyline
 90
4
 70
0
 10
114.359356
 20
129.905484
 30
0.0
 10
114.347979
 20
129.910775
 30
0.0
 10
114.336338
 20
129.916067
 30
0.0
 10
114.336338
 20
129.916067
 30
0.0
  0
LWPOLYLINE
  5
1b2
100
AcDbEntity
  8
Calque_1
 62
7
100
AcDbPolyline
 90
1
 70
1
 10
114.334486
 20
129.916067
 30
0.0
  0
LWPOLYLINE
  5
1b3
100
AcDbEntity
  8
Calque_1
 62
7
100
AcDbPolyline
 90
4
 70
0
 10
114.332369
 20
129.916067
 30
0.0
 10
114.323638
 20
129.926650
 30
0.0
 10
114.314377
 20
129.934588
 30
0.0
 10
114.314377
 20
129.934588
 30
0.0
  0
LWPOLYLINE
  5
1b4
100
AcDbEntity
  8
Calque_1
 62
7
100
AcDbPolyline
 90
1
 70
1
 10
114.312790
 20
129.937234
 30
0.0
  0
LWPOLYLINE
  5
1b5
100
AcDbEntity
  8
Calque_1
 62
7
100
AcDbPolyline
 90
1
 70
1
 10
114.311731
 20
129.937234
 30
0.0
  0
LWPOLYLINE
  5
1b6
100
AcDbEntity
  8
Calque_1
 62
7
100
AcDbPolyline
 90
17
 70
0
 10
114.310938
 20
129.939880
 30
0.0
 10
114.306704
 20
129.947817
 30
0.0
 10
114.106150
 20
130.355275
 30
0.0
 10
114.106150
 20
129.979567
 30
0.0
 10
114.104827
 20
129.966338
 30
0.0
 10
114.093450
 20
129.937234
 30
0.0
 10
114.072813
 20
129.916067
 30
0.0
 10
114.045825
 20
129.905484
 30
0.0
 10
114.016457
 20
129.905484
 30
0.0
 10
113.989469
 20
129.916067
 30
0.0
 10
113.968832
 20
129.937234
 30
0.0
 10
113.957719
 20
129.966338
 30
0.0
 10
113.956132
 20
129.979567
 30
0.0
 10
113.956132
 20
130.680712
 30
0.0
 10
113.956926
 20
130.688649
 30
0.0
 10
113.956926
 20
130.688649
 30
0.0
 10
113.956926
 20
130.688649
 30
0.0
  0
LWPOLYLINE
  5
1b7
100
AcDbEntity
  8
Calque_1
 62
7
100
AcDbPolyline
 90
1
 70
1
 10
113.957190
 20
130.691295
 30
0.0
  0
LWPOLYLINE
  5
1b8
100
AcDbEntity
  8
Calque_1
 62
7
100
AcDbPolyline
 90
4
 70
0
 10
113.957719
 20
130.693941
 30
0.0
 10
113.962482
 20
130.704524
 30
0.0
 10
113.966451
 20
130.717754
 30
0.0
 10
113.966451
 20
130.717754
 30
0.0
  0
LWPOLYLINE
  5
1b9
100
AcDbEntity
  8
Calque_1
 62
7
100
AcDbPolyline
 90
1
 70
1
 10
113.968038
 20
130.720399
 30
0.0
  0
LWPOLYLINE
  5
1ba
100
AcDbEntity
  8
Calque_1
 62
7
100
AcDbPolyline
 90
4
 70
0
 10
113.968832
 20
130.720399
 30
0.0
 10
113.977563
 20
130.730983
 30
0.0
 10
113.985765
 20
130.738920
 30
0.0
 10
113.985765
 20
130.738920
 30
0.0
  0
LWPOLYLINE
  5
1bb
100
AcDbEntity
  8
Calque_1
 62
7
100
AcDbPolyline
 90
1
 70
1
 10
113.987882
 20
130.741566
 30
0.0
  0
LWPOLYLINE
  5
1bc
100
AcDbEntity
  8
Calque_1
 62
7
100
AcDbPolyline
 90
4
 70
0
 10
113.989469
 20
130.741566
 30
0.0
 10
114.000846
 20
130.746858
 30
0.0
 10
114.011959
 20
130.752149
 30
0.0
 10
114.011959
 20
130.752149
 30
0.0
  0
LWPOLYLINE
  5
1bd
100
AcDbEntity
  8
Calque_1
 62
7
100
AcDbPolyline
 90
1
 70
1
 10
114.014340
 20
130.752149
 30
0.0
  0
LWPOLYLINE
  5
1be
100
AcDbEntity
  8
Calque_1
 62
7
100
AcDbPolyline
 90
4
 70
0
 10
114.016457
 20
130.752149
 30
0.0
 10
114.028892
 20
130.752149
 30
0.0
 10
114.041328
 20
130.754795
 30
0.0
 10
114.041328
 20
130.754795
 30
0.0
  0
LWPOLYLINE
  5
1bf
100
AcDbEntity
  8
Calque_1
 62
7
100
AcDbPolyline
 90
44
 70
1
 10
109.227504
 20
130.741566
 30
0.0
 10
109.248407
 20
130.720399
 30
0.0
 10
109.259519
 20
130.693941
 30
0.0
 10
109.260842
 20
130.680712
 30
0.0
 10
109.260842
 20
130.421421
 30
0.0
 10
109.453723
 20
130.421421
 30
0.0
 10
109.453723
 20
130.680712
 30
0.0
 10
109.455310
 20
130.693941
 30
0.0
 10
109.466423
 20
130.720399
 30
0.0
 10
109.487060
 20
130.741566
 30
0.0
 10
109.514048
 20
130.752149
 30
0.0
 10
109.543417
 20
130.752149
 30
0.0
 10
109.570404
 20
130.741566
 30
0.0
 10
109.591042
 20
130.720399
 30
0.0
 10
109.602419
 20
130.693941
 30
0.0
 10
109.603741
 20
130.680712
 30
0.0
 10
109.603741
 20
129.979567
 30
0.0
 10
109.602419
 20
129.966338
 30
0.0
 10
109.591042
 20
129.937234
 30
0.0
 10
109.570404
 20
129.916067
 30
0.0
 10
109.543417
 20
129.905484
 30
0.0
 10
109.514048
 20
129.905484
 30
0.0
 10
109.487060
 20
129.916067
 30
0.0
 10
109.466423
 20
129.937234
 30
0.0
 10
109.455310
 20
129.966338
 30
0.0
 10
109.453723
 20
129.979567
 30
0.0
 10
109.453723
 20
130.270608
 30
0.0
 10
109.260842
 20
130.270608
 30
0.0
 10
109.260842
 20
129.979567
 30
0.0
 10
109.259519
 20
129.966338
 30
0.0
 10
109.248407
 20
129.937234
 30
0.0
 10
109.227504
 20
129.916067
 30
0.0
 10
109.200517
 20
129.905484
 30
0.0
 10
109.171413
 20
129.905484
 30
0.0
 10
109.144161
 20
129.916067
 30
0.0
 10
109.123523
 20
129.937234
 30
0.0
 10
109.112411
 20
129.966338
 30
0.0
 10
109.110823
 20
129.979567
 30
0.0
 10
109.110823
 20
130.680712
 30
0.0
 10
109.112411
 20
130.693941
 30
0.0
 10
109.123523
 20
130.720399
 30
0.0
 10
109.144161
 20
130.741566
 30
0.0
 10
109.171413
 20
130.752149
 30
0.0
 10
109.200517
 20
130.752149
 30
0.0
  0
LWPOLYLINE
  5
1c0
100
AcDbEntity
  8
Calque_1
 62
7
100
AcDbPolyline
 90
1
 70
1
 10
92.051834
 20
130.881795
 30
0.0
  0
LWPOLYLINE
  5
1c1
100
AcDbEntity
  8
Calque_1
 62
7
100
AcDbPolyline
 90
1
 70
1
 10
92.053157
 20
130.881795
 30
0.0
  0
LWPOLYLINE
  5
1c2
100
AcDbEntity
  8
Calque_1
 62
7
100
AcDbPolyline
 90
1
 70
1
 10
92.053951
 20
130.879149
 30
0.0
  0
LWPOLYLINE
  5
1c3
100
AcDbEntity
  8
Calque_1
 62
7
100
AcDbPolyline
 90
1
 70
1
 10
92.054745
 20
130.879149
 30
0.0
  0
LWPOLYLINE
  5
1c4
100
AcDbEntity
  8
Calque_1
 62
7
100
AcDbPolyline
 90
5
 70
0
 10
92.055803
 20
130.879149
 30
0.0
 10
92.067180
 20
130.876503
 30
0.0
 10
92.152905
 20
130.842108
 30
0.0
 10
92.166134
 20
130.836816
 30
0.0
 10
92.166134
 20
130.836816
 30
0.0
  0
LWPOLYLINE
  5
1c5
100
AcDbEntity
  8
Calque_1
 62
7
100
AcDbPolyline
 90
1
 70
1
 10
92.168780
 20
130.834170
 30
0.0
  0
LWPOLYLINE
  5
1c6
100
AcDbEntity
  8
Calque_1
 62
7
100
AcDbPolyline
 90
39
 70
0
 10
92.172220
 20
130.831524
 30
0.0
 10
92.182803
 20
130.820941
 30
0.0
 10
92.211378
 20
130.789191
 30
0.0
 10
92.219845
 20
130.775962
 30
0.0
 10
92.228840
 20
130.749504
 30
0.0
 10
92.226724
 20
130.720399
 30
0.0
 10
92.213230
 20
130.693941
 30
0.0
 10
92.191270
 20
130.675420
 30
0.0
 10
92.163224
 20
130.664837
 30
0.0
 10
92.134120
 20
130.667483
 30
0.0
 10
92.107926
 20
130.680712
 30
0.0
 10
92.097343
 20
130.691295
 30
0.0
 10
92.081203
 20
130.709816
 30
0.0
 10
92.025905
 20
130.730983
 30
0.0
 10
91.997066
 20
130.730983
 30
0.0
 10
91.942032
 20
130.709816
 30
0.0
 10
91.904462
 20
130.667483
 30
0.0
 10
91.883295
 20
130.617212
 30
0.0
 10
91.857895
 20
130.498150
 30
0.0
 10
91.857895
 20
130.413483
 30
0.0
 10
91.883295
 20
130.297067
 30
0.0
 10
91.904462
 20
130.246796
 30
0.0
 10
91.942032
 20
130.204463
 30
0.0
 10
91.997066
 20
130.180650
 30
0.0
 10
92.025905
 20
130.180650
 30
0.0
 10
92.081203
 20
130.204463
 30
0.0
 10
92.097343
 20
130.222983
 30
0.0
 10
92.107926
 20
130.233567
 30
0.0
 10
92.134120
 20
130.246796
 30
0.0
 10
92.163224
 20
130.246796
 30
0.0
 10
92.191270
 20
130.238858
 30
0.0
 10
92.213230
 20
130.220338
 30
0.0
 10
92.226724
 20
130.193879
 30
0.0
 10
92.228840
 20
130.164775
 30
0.0
 10
92.219845
 20
130.135671
 30
0.0
 10
92.211378
 20
130.125088
 30
0.0
 10
92.182803
 20
130.090692
 30
0.0
 10
92.172220
 20
130.080109
 30
0.0
 10
92.172220
 20
130.080109
 30
0.0
  0
LWPOLYLINE
  5
1c7
100
AcDbEntity
  8
Calque_1
 62
7
100
AcDbPolyline
 90
1
 70
1
 10
92.168780
 20
130.080109
 30
0.0
  0
LWPOLYLINE
  5
1c8
100
AcDbEntity
  8
Calque_1
 62
7
100
AcDbPolyline
 90
5
 70
0
 10
92.166134
 20
130.077463
 30
0.0
 10
92.152905
 20
130.069525
 30
0.0
 10
92.067180
 20
130.037775
 30
0.0
 10
92.055803
 20
130.032484
 30
0.0
 10
92.055803
 20
130.032484
 30
0.0
  0
LWPOLYLINE
  5
1c9
100
AcDbEntity
  8
Calque_1
 62
7
100
AcDbPolyline
 90
1
 70
1
 10
92.054745
 20
130.032484
 30
0.0
  0
LWPOLYLINE
  5
1ca
100
AcDbEntity
  8
Calque_1
 62
7
100
AcDbPolyline
 90
1
 70
1
 10
92.053951
 20
130.032484
 30
0.0
  0
LWPOLYLINE
  5
1cb
100
AcDbEntity
  8
Calque_1
 62
7
100
AcDbPolyline
 90
1
 70
1
 10
92.053157
 20
130.032484
 30
0.0
  0
LWPOLYLINE
  5
1cc
100
AcDbEntity
  8
Calque_1
 62
7
100
AcDbPolyline
 90
5
 70
0
 10
92.051834
 20
130.032484
 30
0.0
 10
92.040193
 20
130.032484
 30
0.0
 10
91.983043
 20
130.032484
 30
0.0
 10
91.971137
 20
130.032484
 30
0.0
 10
91.971137
 20
130.032484
 30
0.0
  0
LWPOLYLINE
  5
1cd
100
AcDbEntity
  8
Calque_1
 62
7
100
AcDbPolyline
 90
1
 70
1
 10
91.969814
 20
130.032484
 30
0.0
  0
LWPOLYLINE
  5
1ce
100
AcDbEntity
  8
Calque_1
 62
7
100
AcDbPolyline
 90
1
 70
1
 10
91.969020
 20
130.032484
 30
0.0
  0
LWPOLYLINE
  5
1cf
100
AcDbEntity
  8
Calque_1
 62
7
100
AcDbPolyline
 90
1
 70
1
 10
91.968226
 20
130.032484
 30
0.0
  0
LWPOLYLINE
  5
1d0
100
AcDbEntity
  8
Calque_1
 62
7
100
AcDbPolyline
 90
5
 70
0
 10
91.967168
 20
130.032484
 30
0.0
 10
91.955791
 20
130.037775
 30
0.0
 10
91.870066
 20
130.069525
 30
0.0
 10
91.856837
 20
130.077463
 30
0.0
 10
91.856837
 20
130.077463
 30
0.0
  0
LWPOLYLINE
  5
1d1
100
AcDbEntity
  8
Calque_1
 62
7
100
AcDbPolyline
 90
1
 70
1
 10
91.854191
 20
130.080109
 30
0.0
  0
LWPOLYLINE
  5
1d2
100
AcDbEntity
  8
Calque_1
 62
7
100
AcDbPolyline
 90
5
 70
0
 10
91.851016
 20
130.080109
 30
0.0
 10
91.840168
 20
130.090692
 30
0.0
 10
91.783018
 20
130.156838
 30
0.0
 10
91.779579
 20
130.162129
 30
0.0
 10
91.779579
 20
130.162129
 30
0.0
  0
LWPOLYLINE
  5
1d3
100
AcDbEntity
  8
Calque_1
 62
7
100
AcDbPolyline
 90
1
 70
1
 10
91.778256
 20
130.164775
 30
0.0
  0
LWPOLYLINE
  5
1d4
100
AcDbEntity
  8
Calque_1
 62
7
100
AcDbPolyline
 90
1
 70
1
 10
91.776668
 20
130.167421
 30
0.0
  0
LWPOLYLINE
  5
1d5
100
AcDbEntity
  8
Calque_1
 62
7
100
AcDbPolyline
 90
1
 70
1
 10
91.774816
 20
130.170067
 30
0.0
  0
LWPOLYLINE
  5
1d6
100
AcDbEntity
  8
Calque_1
 62
7
100
AcDbPolyline
 90
7
 70
0
 10
91.774022
 20
130.172713
 30
0.0
 10
91.771112
 20
130.178004
 30
0.0
 10
91.742537
 20
130.244150
 30
0.0
 10
91.740420
 20
130.252088
 30
0.0
 10
91.738304
 20
130.257379
 30
0.0
 10
91.709729
 20
130.392317
 30
0.0
 10
91.709729
 20
130.392317
 30
0.0
  0
LWPOLYLINE
  5
1d7
100
AcDbEntity
  8
Calque_1
 62
7
100
AcDbPolyline
 90
5
 70
0
 10
91.709464
 20
130.392317
 30
0.0
 10
91.709464
 20
130.392317
 30
0.0
 10
91.708670
 20
130.397608
 30
0.0
 10
91.707877
 20
130.405546
 30
0.0
 10
91.707877
 20
130.405546
 30
0.0
  0
LWPOLYLINE
  5
1d8
100
AcDbEntity
  8
Calque_1
 62
7
100
AcDbPolyline
 90
1
 70
1
 10
91.708141
 20
130.405546
 30
0.0
  0
LWPOLYLINE
  5
1d9
100
AcDbEntity
  8
Calque_1
 62
7
100
AcDbPolyline
 90
3
 70
0
 10
91.707877
 20
130.405546
 30
0.0
 10
91.707877
 20
130.506087
 30
0.0
 10
91.707877
 20
130.506087
 30
0.0
  0
LWPOLYLINE
  5
1da
100
AcDbEntity
  8
Calque_1
 62
7
100
AcDbPolyline
 90
1
 70
1
 10
91.708141
 20
130.508733
 30
0.0
  0
LWPOLYLINE
  5
1db
100
AcDbEntity
  8
Calque_1
 62
7
100
AcDbPolyline
 90
5
 70
0
 10
91.707877
 20
130.508733
 30
0.0
 10
91.708670
 20
130.514025
 30
0.0
 10
91.709464
 20
130.521962
 30
0.0
 10
91.709464
 20
130.521962
 30
0.0
 10
91.709464
 20
130.521962
 30
0.0
  0
LWPOLYLINE
  5
1dc
100
AcDbEntity
  8
Calque_1
 62
7
100
AcDbPolyline
 90
7
 70
0
 10
91.709729
 20
130.521962
 30
0.0
 10
91.738304
 20
130.656900
 30
0.0
 10
91.740420
 20
130.662191
 30
0.0
 10
91.742537
 20
130.670129
 30
0.0
 10
91.771112
 20
130.736274
 30
0.0
 10
91.774022
 20
130.741566
 30
0.0
 10
91.774022
 20
130.741566
 30
0.0
  0
LWPOLYLINE
  5
1dd
100
AcDbEntity
  8
Calque_1
 62
7
100
AcDbPolyline
 90
1
 70
1
 10
91.774816
 20
130.744212
 30
0.0
  0
LWPOLYLINE
  5
1de
100
AcDbEntity
  8
Calque_1
 62
7
100
AcDbPolyline
 90
1
 70
1
 10
91.776668
 20
130.746858
 30
0.0
  0
LWPOLYLINE
  5
1df
100
AcDbEntity
  8
Calque_1
 62
7
100
AcDbPolyline
 90
1
 70
1
 10
91.778256
 20
130.749504
 30
0.0
  0
LWPOLYLINE
  5
1e0
100
AcDbEntity
  8
Calque_1
 62
7
100
AcDbPolyline
 90
5
 70
0
 10
91.779579
 20
130.749504
 30
0.0
 10
91.783018
 20
130.754795
 30
0.0
 10
91.840168
 20
130.820941
 30
0.0
 10
91.851016
 20
130.831524
 30
0.0
 10
91.851016
 20
130.831524
 30
0.0
  0
LWPOLYLINE
  5
1e1
100
AcDbEntity
  8
Calque_1
 62
7
100
AcDbPolyline
 90
1
 70
1
 10
91.854191
 20
130.834170
 30
0.0
  0
LWPOLYLINE
  5
1e2
100
AcDbEntity
  8
Calque_1
 62
7
100
AcDbPolyline
 90
5
 70
0
 10
91.856837
 20
130.836816
 30
0.0
 10
91.870066
 20
130.842108
 30
0.0
 10
91.955791
 20
130.876503
 30
0.0
 10
91.967168
 20
130.879149
 30
0.0
 10
91.967168
 20
130.879149
 30
0.0
  0
LWPOLYLINE
  5
1e3
100
AcDbEntity
  8
Calque_1
 62
7
100
AcDbPolyline
 90
1
 70
1
 10
91.968226
 20
130.879149
 30
0.0
  0
LWPOLYLINE
  5
1e4
100
AcDbEntity
  8
Calque_1
 62
7
100
AcDbPolyline
 90
1
 70
1
 10
91.969020
 20
130.879149
 30
0.0
  0
LWPOLYLINE
  5
1e5
100
AcDbEntity
  8
Calque_1
 62
7
100
AcDbPolyline
 90
1
 70
1
 10
91.969814
 20
130.881795
 30
0.0
  0
LWPOLYLINE
  5
1e6
100
AcDbEntity
  8
Calque_1
 62
7
100
AcDbPolyline
 90
4
 70
0
 10
91.971137
 20
130.881795
 30
0.0
 10
91.983043
 20
130.881795
 30
0.0
 10
92.040193
 20
130.881795
 30
0.0
 10
92.051834
 20
130.881795
 30
0.0
  0
LWPOLYLINE
  5
1e7
100
AcDbEntity
  8
Calque_1
 62
7
100
AcDbPolyline
 90
1
 70
1
 10
92.651909
 20
130.881795
 30
0.0
  0
LWPOLYLINE
  5
1e8
100
AcDbEntity
  8
Calque_1
 62
7
100
AcDbPolyline
 90
1
 70
1
 10
92.653232
 20
130.881795
 30
0.0
  0
LWPOLYLINE
  5
1e9
100
AcDbEntity
  8
Calque_1
 62
7
100
AcDbPolyline
 90
1
 70
1
 10
92.654025
 20
130.879149
 30
0.0
  0
LWPOLYLINE
  5
1ea
100
AcDbEntity
  8
Calque_1
 62
7
100
AcDbPolyline
 90
1
 70
1
 10
92.654819
 20
130.879149
 30
0.0
  0
LWPOLYLINE
  5
1eb
100
AcDbEntity
  8
Calque_1
 62
7
100
AcDbPolyline
 90
5
 70
0
 10
92.655877
 20
130.879149
 30
0.0
 10
92.667254
 20
130.876503
 30
0.0
 10
92.752979
 20
130.842108
 30
0.0
 10
92.766209
 20
130.836816
 30
0.0
 10
92.766209
 20
130.836816
 30
0.0
  0
LWPOLYLINE
  5
1ec
100
AcDbEntity
  8
Calque_1
 62
7
100
AcDbPolyline
 90
1
 70
1
 10
92.768854
 20
130.834170
 30
0.0
  0
LWPOLYLINE
  5
1ed
100
AcDbEntity
  8
Calque_1
 62
7
100
AcDbPolyline
 90
39
 70
0
 10
92.772029
 20
130.831524
 30
0.0
 10
92.782877
 20
130.820941
 30
0.0
 10
92.811452
 20
130.789191
 30
0.0
 10
92.819654
 20
130.775962
 30
0.0
 10
92.828915
 20
130.749504
 30
0.0
 10
92.826533
 20
130.720399
 30
0.0
 10
92.813304
 20
130.693941
 30
0.0
 10
92.791079
 20
130.675420
 30
0.0
 10
92.763298
 20
130.664837
 30
0.0
 10
92.734194
 20
130.667483
 30
0.0
 10
92.708000
 20
130.680712
 30
0.0
 10
92.697417
 20
130.691295
 30
0.0
 10
92.681013
 20
130.709816
 30
0.0
 10
92.625980
 20
130.730983
 30
0.0
 10
92.597140
 20
130.730983
 30
0.0
 10
92.541842
 20
130.709816
 30
0.0
 10
92.504536
 20
130.667483
 30
0.0
 10
92.483369
 20
130.617212
 30
0.0
 10
92.457969
 20
130.498150
 30
0.0
 10
92.457969
 20
130.413483
 30
0.0
 10
92.483369
 20
130.297067
 30
0.0
 10
92.504536
 20
130.246796
 30
0.0
 10
92.541842
 20
130.204463
 30
0.0
 10
92.597140
 20
130.180650
 30
0.0
 10
92.625980
 20
130.180650
 30
0.0
 10
92.681013
 20
130.204463
 30
0.0
 10
92.697417
 20
130.222983
 30
0.0
 10
92.708000
 20
130.233567
 30
0.0
 10
92.734194
 20
130.246796
 30
0.0
 10
92.763298
 20
130.246796
 30
0.0
 10
92.791079
 20
130.238858
 30
0.0
 10
92.813304
 20
130.220338
 30
0.0
 10
92.826533
 20
130.193879
 30
0.0
 10
92.828915
 20
130.164775
 30
0.0
 10
92.819654
 20
130.135671
 30
0.0
 10
92.811452
 20
130.125088
 30
0.0
 10
92.782877
 20
130.090692
 30
0.0
 10
92.772029
 20
130.080109
 30
0.0
 10
92.772029
 20
130.080109
 30
0.0
  0
LWPOLYLINE
  5
1ee
100
AcDbEntity
  8
Calque_1
 62
7
100
AcDbPolyline
 90
1
 70
1
 10
92.768854
 20
130.080109
 30
0.0
  0
LWPOLYLINE
  5
1ef
100
AcDbEntity
  8
Calque_1
 62
7
100
AcDbPolyline
 90
5
 70
0
 10
92.766209
 20
130.077463
 30
0.0
 10
92.752979
 20
130.069525
 30
0.0
 10
92.667254
 20
130.037775
 30
0.0
 10
92.655877
 20
130.032484
 30
0.0
 10
92.655877
 20
130.032484
 30
0.0
  0
LWPOLYLINE
  5
1f0
100
AcDbEntity
  8
Calque_1
 62
7
100
AcDbPolyline
 90
1
 70
1
 10
92.654819
 20
130.032484
 30
0.0
  0
LWPOLYLINE
  5
1f1
100
AcDbEntity
  8
Calque_1
 62
7
100
AcDbPolyline
 90
1
 70
1
 10
92.654025
 20
130.032484
 30
0.0
  0
LWPOLYLINE
  5
1f2
100
AcDbEntity
  8
Calque_1
 62
7
100
AcDbPolyline
 90
1
 70
1
 10
92.653232
 20
130.032484
 30
0.0
  0
LWPOLYLINE
  5
1f3
100
AcDbEntity
  8
Calque_1
 62
7
100
AcDbPolyline
 90
5
 70
0
 10
92.651909
 20
130.032484
 30
0.0
 10
92.640002
 20
130.032484
 30
0.0
 10
92.582853
 20
130.032484
 30
0.0
 10
92.571211
 20
130.032484
 30
0.0
 10
92.571211
 20
130.032484
 30
0.0
  0
LWPOLYLINE
  5
1f4
100
AcDbEntity
  8
Calque_1
 62
7
100
AcDbPolyline
 90
1
 70
1
 10
92.569888
 20
130.032484
 30
0.0
  0
LWPOLYLINE
  5
1f5
100
AcDbEntity
  8
Calque_1
 62
7
100
AcDbPolyline
 90
1
 70
1
 10
92.569094
 20
130.032484
 30
0.0
  0
LWPOLYLINE
  5
1f6
100
AcDbEntity
  8
Calque_1
 62
7
100
AcDbPolyline
 90
1
 70
1
 10
92.568300
 20
130.032484
 30
0.0
  0
LWPOLYLINE
  5
1f7
100
AcDbEntity
  8
Calque_1
 62
7
100
AcDbPolyline
 90
5
 70
0
 10
92.567242
 20
130.032484
 30
0.0
 10
92.555865
 20
130.037775
 30
0.0
 10
92.470140
 20
130.069525
 30
0.0
 10
92.456911
 20
130.077463
 30
0.0
 10
92.456911
 20
130.077463
 30
0.0
  0
LWPOLYLINE
  5
1f8
100
AcDbEntity
  8
Calque_1
 62
7
100
AcDbPolyline
 90
1
 70
1
 10
92.454265
 20
130.080109
 30
0.0
  0
LWPOLYLINE
  5
1f9
100
AcDbEntity
  8
Calque_1
 62
7
100
AcDbPolyline
 90
5
 70
0
 10
92.450826
 20
130.080109
 30
0.0
 10
92.440242
 20
130.090692
 30
0.0
 10
92.383092
 20
130.156838
 30
0.0
 10
92.379653
 20
130.162129
 30
0.0
 10
92.379653
 20
130.162129
 30
0.0
  0
LWPOLYLINE
  5
1fa
100
AcDbEntity
  8
Calque_1
 62
7
100
AcDbPolyline
 90
1
 70
1
 10
92.378330
 20
130.164775
 30
0.0
  0
LWPOLYLINE
  5
1fb
100
AcDbEntity
  8
Calque_1
 62
7
100
AcDbPolyline
 90
1
 70
1
 10
92.376742
 20
130.167421
 30
0.0
  0
LWPOLYLINE
  5
1fc
100
AcDbEntity
  8
Calque_1
 62
7
100
AcDbPolyline
 90
1
 70
1
 10
92.374626
 20
130.170067
 30
0.0
  0
LWPOLYLINE
  5
1fd
100
AcDbEntity
  8
Calque_1
 62
7
100
AcDbPolyline
 90
8
 70
0
 10
92.374097
 20
130.172713
 30
0.0
 10
92.371186
 20
130.178004
 30
0.0
 10
92.342611
 20
130.244150
 30
0.0
 10
92.340494
 20
130.252088
 30
0.0
 10
92.338113
 20
130.257379
 30
0.0
 10
92.309538
 20
130.392317
 30
0.0
 10
92.309538
 20
130.392317
 30
0.0
 10
92.309538
 20
130.392317
 30
0.0
  0
LWPOLYLINE
  5
1fe
100
AcDbEntity
  8
Calque_1
 62
7
100
AcDbPolyline
 90
7
 70
0
 10
92.309274
 20
130.392317
 30
0.0
 10
92.308745
 20
130.397608
 30
0.0
 10
92.307951
 20
130.405546
 30
0.0
 10
92.307951
 20
130.405546
 30
0.0
 10
92.307951
 20
130.405546
 30
0.0
 10
92.307951
 20
130.506087
 30
0.0
 10
92.307951
 20
130.506087
 30
0.0
  0
LWPOLYLINE
  5
1ff
100
AcDbEntity
  8
Calque_1
 62
7
100
AcDbPolyline
 90
5
 70
0
 10
92.307951
 20
130.508733
 30
0.0
 10
92.307951
 20
130.508733
 30
0.0
 10
92.308745
 20
130.514025
 30
0.0
 10
92.309274
 20
130.521962
 30
0.0
 10
92.309274
 20
130.521962
 30
0.0
  0
LWPOLYLINE
  5
200
100
AcDbEntity
  8
Calque_1
 62
7
100
AcDbPolyline
 90
8
 70
0
 10
92.309538
 20
130.521962
 30
0.0
 10
92.309538
 20
130.521962
 30
0.0
 10
92.338113
 20
130.656900
 30
0.0
 10
92.340494
 20
130.662191
 30
0.0
 10
92.342611
 20
130.670129
 30
0.0
 10
92.371186
 20
130.736274
 30
0.0
 10
92.374097
 20
130.741566
 30
0.0
 10
92.374097
 20
130.741566
 30
0.0
  0
LWPOLYLINE
  5
201
100
AcDbEntity
  8
Calque_1
 62
7
100
AcDbPolyline
 90
1
 70
1
 10
92.374626
 20
130.744212
 30
0.0
  0
LWPOLYLINE
  5
202
100
AcDbEntity
  8
Calque_1
 62
7
100
AcDbPolyline
 90
1
 70
1
 10
92.376742
 20
130.746858
 30
0.0
  0
LWPOLYLINE
  5
203
100
AcDbEntity
  8
Calque_1
 62
7
100
AcDbPolyline
 90
1
 70
1
 10
92.378330
 20
130.749504
 30
0.0
  0
LWPOLYLINE
  5
204
100
AcDbEntity
  8
Calque_1
 62
7
100
AcDbPolyline
 90
5
 70
0
 10
92.379653
 20
130.749504
 30
0.0
 10
92.383092
 20
130.754795
 30
0.0
 10
92.440242
 20
130.820941
 30
0.0
 10
92.450826
 20
130.831524
 30
0.0
 10
92.450826
 20
130.831524
 30
0.0
  0
LWPOLYLINE
  5
205
100
AcDbEntity
  8
Calque_1
 62
7
100
AcDbPolyline
 90
1
 70
1
 10
92.454265
 20
130.834170
 30
0.0
  0
LWPOLYLINE
  5
206
100
AcDbEntity
  8
Calque_1
 62
7
100
AcDbPolyline
 90
5
 70
0
 10
92.456911
 20
130.836816
 30
0.0
 10
92.470140
 20
130.842108
 30
0.0
 10
92.555865
 20
130.876503
 30
0.0
 10
92.567242
 20
130.879149
 30
0.0
 10
92.567242
 20
130.879149
 30
0.0
  0
LWPOLYLINE
  5
207
100
AcDbEntity
  8
Calque_1
 62
7
100
AcDbPolyline
 90
1
 70
1
 10
92.568300
 20
130.879149
 30
0.0
  0
LWPOLYLINE
  5
208
100
AcDbEntity
  8
Calque_1
 62
7
100
AcDbPolyline
 90
1
 70
1
 10
92.569094
 20
130.879149
 30
0.0
  0
LWPOLYLINE
  5
209
100
AcDbEntity
  8
Calque_1
 62
7
100
AcDbPolyline
 90
1
 70
1
 10
92.569888
 20
130.881795
 30
0.0
  0
LWPOLYLINE
  5
20a
100
AcDbEntity
  8
Calque_1
 62
7
100
AcDbPolyline
 90
4
 70
0
 10
92.571211
 20
130.881795
 30
0.0
 10
92.582853
 20
130.881795
 30
0.0
 10
92.640002
 20
130.881795
 30
0.0
 10
92.651909
 20
130.881795
 30
0.0
  0
LWPOLYLINE
  5
20b
100
AcDbEntity
  8
Calque_1
 62
7
100
AcDbPolyline
 90
1
 70
1
 10
96.314002
 20
130.881795
 30
0.0
  0
LWPOLYLINE
  5
20c
100
AcDbEntity
  8
Calque_1
 62
7
100
AcDbPolyline
 90
1
 70
1
 10
96.315060
 20
130.881795
 30
0.0
  0
LWPOLYLINE
  5
20d
100
AcDbEntity
  8
Calque_1
 62
7
100
AcDbPolyline
 90
1
 70
1
 10
96.315854
 20
130.879149
 30
0.0
  0
LWPOLYLINE
  5
20e
100
AcDbEntity
  8
Calque_1
 62
7
100
AcDbPolyline
 90
1
 70
1
 10
96.316648
 20
130.879149
 30
0.0
  0
LWPOLYLINE
  5
20f
100
AcDbEntity
  8
Calque_1
 62
7
100
AcDbPolyline
 90
5
 70
0
 10
96.317706
 20
130.879149
 30
0.0
 10
96.329348
 20
130.876503
 30
0.0
 10
96.415073
 20
130.842108
 30
0.0
 10
96.428037
 20
130.836816
 30
0.0
 10
96.428037
 20
130.836816
 30
0.0
  0
LWPOLYLINE
  5
210
100
AcDbEntity
  8
Calque_1
 62
7
100
AcDbPolyline
 90
1
 70
1
 10
96.430683
 20
130.834170
 30
0.0
  0
LWPOLYLINE
  5
211
100
AcDbEntity
  8
Calque_1
 62
7
100
AcDbPolyline
 90
5
 70
0
 10
96.434123
 20
130.831524
 30
0.0
 10
96.444706
 20
130.820941
 30
0.0
 10
96.501856
 20
130.754795
 30
0.0
 10
96.505295
 20
130.749504
 30
0.0
 10
96.505295
 20
130.749504
 30
0.0
  0
LWPOLYLINE
  5
212
100
AcDbEntity
  8
Calque_1
 62
7
100
AcDbPolyline
 90
1
 70
1
 10
96.506883
 20
130.749504
 30
0.0
  0
LWPOLYLINE
  5
213
100
AcDbEntity
  8
Calque_1
 62
7
100
AcDbPolyline
 90
1
 70
1
 10
96.508470
 20
130.746858
 30
0.0
  0
LWPOLYLINE
  5
214
100
AcDbEntity
  8
Calque_1
 62
7
100
AcDbPolyline
 90
1
 70
1
 10
96.510323
 20
130.744212
 30
0.0
  0
LWPOLYLINE
  5
215
100
AcDbEntity
  8
Calque_1
 62
7
100
AcDbPolyline
 90
8
 70
0
 10
96.510852
 20
130.741566
 30
0.0
 10
96.513762
 20
130.736274
 30
0.0
 10
96.542337
 20
130.670129
 30
0.0
 10
96.544718
 20
130.662191
 30
0.0
 10
96.546835
 20
130.656900
 30
0.0
 10
96.575410
 20
130.521962
 30
0.0
 10
96.575410
 20
130.521962
 30
0.0
 10
96.575410
 20
130.521962
 30
0.0
  0
LWPOLYLINE
  5
216
100
AcDbEntity
  8
Calque_1
 62
7
100
AcDbPolyline
 90
5
 70
0
 10
96.575675
 20
130.521962
 30
0.0
 10
96.576204
 20
130.514025
 30
0.0
 10
96.576997
 20
130.508733
 30
0.0
 10
96.576997
 20
130.508733
 30
0.0
 10
96.576997
 20
130.508733
 30
0.0
  0
LWPOLYLINE
  5
217
100
AcDbEntity
  8
Calque_1
 62
7
100
AcDbPolyline
 90
7
 70
0
 10
96.576997
 20
130.506087
 30
0.0
 10
96.576997
 20
130.405546
 30
0.0
 10
96.576997
 20
130.405546
 30
0.0
 10
96.576997
 20
130.405546
 30
0.0
 10
96.576204
 20
130.397608
 30
0.0
 10
96.575675
 20
130.392317
 30
0.0
 10
96.575675
 20
130.392317
 30
0.0
  0
LWPOLYLINE
  5
218
100
AcDbEntity
  8
Calque_1
 62
7
100
AcDbPolyline
 90
8
 70
0
 10
96.575410
 20
130.392317
 30
0.0
 10
96.575410
 20
130.392317
 30
0.0
 10
96.546835
 20
130.257379
 30
0.0
 10
96.544718
 20
130.252088
 30
0.0
 10
96.542337
 20
130.244150
 30
0.0
 10
96.513762
 20
130.178004
 30
0.0
 10
96.510852
 20
130.172713
 30
0.0
 10
96.510852
 20
130.172713
 30
0.0
  0
LWPOLYLINE
  5
219
100
AcDbEntity
  8
Calque_1
 62
7
100
AcDbPolyline
 90
1
 70
1
 10
96.510323
 20
130.170067
 30
0.0
  0
LWPOLYLINE
  5
21a
100
AcDbEntity
  8
Calque_1
 62
7
100
AcDbPolyline
 90
1
 70
1
 10
96.508470
 20
130.167421
 30
0.0
  0
LWPOLYLINE
  5
21b
100
AcDbEntity
  8
Calque_1
 62
7
100
AcDbPolyline
 90
1
 70
1
 10
96.506883
 20
130.164775
 30
0.0
  0
LWPOLYLINE
  5
21c
100
AcDbEntity
  8
Calque_1
 62
7
100
AcDbPolyline
 90
5
 70
0
 10
96.505295
 20
130.162129
 30
0.0
 10
96.501856
 20
130.156838
 30
0.0
 10
96.444706
 20
130.090692
 30
0.0
 10
96.434123
 20
130.080109
 30
0.0
 10
96.434123
 20
130.080109
 30
0.0
  0
LWPOLYLINE
  5
21d
100
AcDbEntity
  8
Calque_1
 62
7
100
AcDbPolyline
 90
1
 70
1
 10
96.430683
 20
130.080109
 30
0.0
  0
LWPOLYLINE
  5
21e
100
AcDbEntity
  8
Calque_1
 62
7
100
AcDbPolyline
 90
5
 70
0
 10
96.428037
 20
130.077463
 30
0.0
 10
96.415073
 20
130.069525
 30
0.0
 10
96.329348
 20
130.037775
 30
0.0
 10
96.317706
 20
130.032484
 30
0.0
 10
96.317706
 20
130.032484
 30
0.0
  0
LWPOLYLINE
  5
21f
100
AcDbEntity
  8
Calque_1
 62
7
100
AcDbPolyline
 90
1
 70
1
 10
96.316648
 20
130.032484
 30
0.0
  0
LWPOLYLINE
  5
220
100
AcDbEntity
  8
Calque_1
 62
7
100
AcDbPolyline
 90
1
 70
1
 10
96.315854
 20
130.032484
 30
0.0
  0
LWPOLYLINE
  5
221
100
AcDbEntity
  8
Calque_1
 62
7
100
AcDbPolyline
 90
1
 70
1
 10
96.315060
 20
130.032484
 30
0.0
  0
LWPOLYLINE
  5
222
100
AcDbEntity
  8
Calque_1
 62
7
100
AcDbPolyline
 90
16
 70
0
 10
96.314002
 20
130.032484
 30
0.0
 10
96.302096
 20
130.032484
 30
0.0
 10
96.159221
 20
130.032484
 30
0.0
 10
96.144669
 20
130.032484
 30
0.0
 10
96.117681
 20
130.043067
 30
0.0
 10
96.096779
 20
130.064234
 30
0.0
 10
96.085667
 20
130.093338
 30
0.0
 10
96.084344
 20
130.106567
 30
0.0
 10
96.084344
 20
130.807712
 30
0.0
 10
96.085667
 20
130.820941
 30
0.0
 10
96.096779
 20
130.847399
 30
0.0
 10
96.117681
 20
130.868566
 30
0.0
 10
96.144669
 20
130.879149
 30
0.0
 10
96.159221
 20
130.881795
 30
0.0
 10
96.302096
 20
130.881795
 30
0.0
 10
96.314002
 20
130.881795
 30
0.0
  0
LWPOLYLINE
  5
223
100
AcDbEntity
  8
Calque_1
 62
7
100
AcDbPolyline
 90
12
 70
1
 10
96.234098
 20
130.180650
 30
0.0
 10
96.288073
 20
130.180650
 30
0.0
 10
96.343106
 20
130.204463
 30
0.0
 10
96.380412
 20
130.246796
 30
0.0
 10
96.401579
 20
130.297067
 30
0.0
 10
96.426979
 20
130.413483
 30
0.0
 10
96.426979
 20
130.498150
 30
0.0
 10
96.401579
 20
130.617212
 30
0.0
 10
96.380412
 20
130.667483
 30
0.0
 10
96.343106
 20
130.709816
 30
0.0
 10
96.288073
 20
130.730983
 30
0.0
 10
96.234098
 20
130.730983
 30
0.0
  0
LWPOLYLINE
  5
224
100
AcDbEntity
  8
Calque_1
 62
7
100
AcDbPolyline
 90
6
 70
0
 10
96.945297
 20
130.646316
 30
0.0
 10
96.950060
 20
130.646316
 30
0.0
 10
96.955087
 20
130.643670
 30
0.0
 10
96.968316
 20
130.638379
 30
0.0
 10
97.025466
 20
130.603983
 30
0.0
 10
97.025466
 20
130.603983
 30
0.0
  0
LWPOLYLINE
  5
225
100
AcDbEntity
  8
Calque_1
 62
7
100
AcDbPolyline
 90
1
 70
1
 10
97.027582
 20
130.603983
 30
0.0
  0
LWPOLYLINE
  5
226
100
AcDbEntity
  8
Calque_1
 62
7
100
AcDbPolyline
 90
1
 70
1
 10
97.028641
 20
130.603983
 30
0.0
  0
LWPOLYLINE
  5
227
100
AcDbEntity
  8
Calque_1
 62
7
100
AcDbPolyline
 90
6
 70
0
 10
97.029964
 20
130.601337
 30
0.0
 10
97.037372
 20
130.596045
 30
0.0
 10
97.043193
 20
130.588108
 30
0.0
 10
97.049543
 20
130.582816
 30
0.0
 10
97.054041
 20
130.574879
 30
0.0
 10
97.054041
 20
130.574879
 30
0.0
  0
LWPOLYLINE
  5
228
100
AcDbEntity
  8
Calque_1
 62
7
100
AcDbPolyline
 90
1
 70
1
 10
97.055099
 20
130.572233
 30
0.0
  0
LWPOLYLINE
  5
229
100
AcDbEntity
  8
Calque_1
 62
7
100
AcDbPolyline
 90
1
 70
1
 10
97.055364
 20
130.572233
 30
0.0
  0
LWPOLYLINE
  5
22a
100
AcDbEntity
  8
Calque_1
 62
7
100
AcDbPolyline
 90
4
 70
0
 10
97.056686
 20
130.569587
 30
0.0
 10
97.085261
 20
130.503441
 30
0.0
 10
97.089759
 20
130.490212
 30
0.0
 10
97.089759
 20
130.490212
 30
0.0
  0
LWPOLYLINE
  5
22b
100
AcDbEntity
  8
Calque_1
 62
7
100
AcDbPolyline
 90
1
 70
1
 10
97.089759
 20
130.487566
 30
0.0
  0
LWPOLYLINE
  5
22c
100
AcDbEntity
  8
Calque_1
 62
7
100
AcDbPolyline
 90
20
 70
0
 10
97.090024
 20
130.487566
 30
0.0
 10
97.091347
 20
130.474337
 30
0.0
 10
97.091347
 20
130.106567
 30
0.0
 10
97.090024
 20
130.093338
 30
0.0
 10
97.078647
 20
130.064234
 30
0.0
 10
97.058009
 20
130.043067
 30
0.0
 10
97.031022
 20
130.032484
 30
0.0
 10
97.001653
 20
130.032484
 30
0.0
 10
96.989218
 20
130.037775
 30
0.0
 10
96.983662
 20
130.035129
 30
0.0
 10
96.978634
 20
130.035129
 30
0.0
 10
96.973872
 20
130.032484
 30
0.0
 10
96.959320
 20
130.032484
 30
0.0
 10
96.816445
 20
130.032484
 30
0.0
 10
96.801628
 20
130.032484
 30
0.0
 10
96.797131
 20
130.035129
 30
0.0
 10
96.791839
 20
130.035129
 30
0.0
 10
96.778610
 20
130.043067
 30
0.0
 10
96.721460
 20
130.074817
 30
0.0
 10
96.721460
 20
130.074817
 30
0.0
  0
LWPOLYLINE
  5
22d
100
AcDbEntity
  8
Calque_1
 62
7
100
AcDbPolyline
 90
1
 70
1
 10
96.719343
 20
130.077463
 30
0.0
  0
LWPOLYLINE
  5
22e
100
AcDbEntity
  8
Calque_1
 62
7
100
AcDbPolyline
 90
1
 70
1
 10
96.718285
 20
130.077463
 30
0.0
  0
LWPOLYLINE
  5
22f
100
AcDbEntity
  8
Calque_1
 62
7
100
AcDbPolyline
 90
6
 70
0
 10
96.716962
 20
130.077463
 30
0.0
 10
96.709554
 20
130.082754
 30
0.0
 10
96.703997
 20
130.090692
 30
0.0
 10
96.697383
 20
130.098629
 30
0.0
 10
96.692885
 20
130.106567
 30
0.0
 10
96.692885
 20
130.106567
 30
0.0
  0
LWPOLYLINE
  5
230
100
AcDbEntity
  8
Calque_1
 62
7
100
AcDbPolyline
 90
1
 70
1
 10
96.691827
 20
130.106567
 30
0.0
  0
LWPOLYLINE
  5
231
100
AcDbEntity
  8
Calque_1
 62
7
100
AcDbPolyline
 90
1
 70
1
 10
96.691562
 20
130.109213
 30
0.0
  0
LWPOLYLINE
  5
232
100
AcDbEntity
  8
Calque_1
 62
7
100
AcDbPolyline
 90
13
 70
0
 10
96.690239
 20
130.111859
 30
0.0
 10
96.661664
 20
130.178004
 30
0.0
 10
96.657166
 20
130.191233
 30
0.0
 10
96.657166
 20
130.191233
 30
0.0
 10
96.657166
 20
130.191233
 30
0.0
 10
96.655579
 20
130.207108
 30
0.0
 10
96.655579
 20
130.273254
 30
0.0
 10
96.657166
 20
130.289129
 30
0.0
 10
96.657166
 20
130.289129
 30
0.0
 10
96.657166
 20
130.289129
 30
0.0
 10
96.661664
 20
130.302358
 30
0.0
 10
96.690239
 20
130.368504
 30
0.0
 10
96.690239
 20
130.368504
 30
0.0
  0
LWPOLYLINE
  5
233
100
AcDbEntity
  8
Calque_1
 62
7
100
AcDbPolyline
 90
1
 70
1
 10
96.691562
 20
130.371150
 30
0.0
  0
LWPOLYLINE
  5
234
100
AcDbEntity
  8
Calque_1
 62
7
100
AcDbPolyline
 90
1
 70
1
 10
96.691827
 20
130.373796
 30
0.0
  0
LWPOLYLINE
  5
235
100
AcDbEntity
  8
Calque_1
 62
7
100
AcDbPolyline
 90
6
 70
0
 10
96.692885
 20
130.373796
 30
0.0
 10
96.697383
 20
130.381733
 30
0.0
 10
96.703997
 20
130.389671
 30
0.0
 10
96.709554
 20
130.394962
 30
0.0
 10
96.716962
 20
130.402900
 30
0.0
 10
96.716962
 20
130.402900
 30
0.0
  0
LWPOLYLINE
  5
236
100
AcDbEntity
  8
Calque_1
 62
7
100
AcDbPolyline
 90
1
 70
1
 10
96.718285
 20
130.402900
 30
0.0
  0
LWPOLYLINE
  5
237
100
AcDbEntity
  8
Calque_1
 62
7
100
AcDbPolyline
 90
1
 70
1
 10
96.719343
 20
130.402900
 30
0.0
  0
LWPOLYLINE
  5
238
100
AcDbEntity
  8
Calque_1
 62
7
100
AcDbPolyline
 90
8
 70
0
 10
96.721460
 20
130.405546
 30
0.0
 10
96.778610
 20
130.437296
 30
0.0
 10
96.791839
 20
130.445233
 30
0.0
 10
96.797131
 20
130.445233
 30
0.0
 10
96.801628
 20
130.447879
 30
0.0
 10
96.816445
 20
130.447879
 30
0.0
 10
96.938947
 20
130.447879
 30
0.0
 10
96.938947
 20
130.447879
 30
0.0
  0
LWPOLYLINE
  5
239
100
AcDbEntity
  8
Calque_1
 62
7
100
AcDbPolyline
 90
22
 70
0
 10
96.941328
 20
130.450525
 30
0.0
 10
96.941328
 20
130.458462
 30
0.0
 10
96.928628
 20
130.487566
 30
0.0
 10
96.910372
 20
130.498150
 30
0.0
 10
96.836553
 20
130.498150
 30
0.0
 10
96.797131
 20
130.474337
 30
0.0
 10
96.783637
 20
130.469046
 30
0.0
 10
96.754533
 20
130.466400
 30
0.0
 10
96.726487
 20
130.471691
 30
0.0
 10
96.702939
 20
130.490212
 30
0.0
 10
96.688387
 20
130.516671
 30
0.0
 10
96.684418
 20
130.545775
 30
0.0
 10
96.691827
 20
130.572233
 30
0.0
 10
96.709554
 20
130.596045
 30
0.0
 10
96.721460
 20
130.603983
 30
0.0
 10
96.778610
 20
130.638379
 30
0.0
 10
96.791839
 20
130.643670
 30
0.0
 10
96.797131
 20
130.646316
 30
0.0
 10
96.801628
 20
130.646316
 30
0.0
 10
96.816445
 20
130.648962
 30
0.0
 10
96.930745
 20
130.648962
 30
0.0
 10
96.945297
 20
130.646316
 30
0.0
  0
LWPOLYLINE
  5
23a
100
AcDbEntity
  8
Calque_1
 62
7
100
AcDbPolyline
 90
7
 70
0
 10
96.818297
 20
130.286483
 30
0.0
 10
96.805597
 20
130.257379
 30
0.0
 10
96.805597
 20
130.222983
 30
0.0
 10
96.818297
 20
130.191233
 30
0.0
 10
96.836553
 20
130.180650
 30
0.0
 10
96.938947
 20
130.180650
 30
0.0
 10
96.938947
 20
130.180650
 30
0.0
  0
LWPOLYLINE
  5
23b
100
AcDbEntity
  8
Calque_1
 62
7
100
AcDbPolyline
 90
4
 70
0
 10
96.941328
 20
130.183296
 30
0.0
 10
96.941328
 20
130.299712
 30
0.0
 10
96.836553
 20
130.299712
 30
0.0
 10
96.818297
 20
130.286483
 30
0.0
  0
LWPOLYLINE
  5
23c
100
AcDbEntity
  8
Calque_1
 62
7
100
AcDbPolyline
 90
36
 70
0
 10
97.343759
 20
130.868566
 30
0.0
 10
97.364396
 20
130.847399
 30
0.0
 10
97.375774
 20
130.820941
 30
0.0
 10
97.377096
 20
130.807712
 30
0.0
 10
97.377096
 20
130.648962
 30
0.0
 10
97.444830
 20
130.648962
 30
0.0
 10
97.459646
 20
130.646316
 30
0.0
 10
97.486634
 20
130.635733
 30
0.0
 10
97.507271
 20
130.614566
 30
0.0
 10
97.518384
 20
130.588108
 30
0.0
 10
97.518384
 20
130.559004
 30
0.0
 10
97.507271
 20
130.532546
 30
0.0
 10
97.486634
 20
130.511379
 30
0.0
 10
97.459646
 20
130.500796
 30
0.0
 10
97.444830
 20
130.498150
 30
0.0
 10
97.377096
 20
130.498150
 30
0.0
 10
97.377096
 20
130.222983
 30
0.0
 10
97.389796
 20
130.191233
 30
0.0
 10
97.408053
 20
130.180650
 30
0.0
 10
97.444830
 20
130.180650
 30
0.0
 10
97.459646
 20
130.180650
 30
0.0
 10
97.486634
 20
130.170067
 30
0.0
 10
97.507271
 20
130.148900
 30
0.0
 10
97.518384
 20
130.122442
 30
0.0
 10
97.518384
 20
130.093338
 30
0.0
 10
97.507271
 20
130.064234
 30
0.0
 10
97.486634
 20
130.043067
 30
0.0
 10
97.459646
 20
130.032484
 30
0.0
 10
97.444830
 20
130.032484
 30
0.0
 10
97.387680
 20
130.032484
 30
0.0
 10
97.373128
 20
130.032484
 30
0.0
 10
97.368365
 20
130.035129
 30
0.0
 10
97.363338
 20
130.035129
 30
0.0
 10
97.350109
 20
130.043067
 30
0.0
 10
97.292959
 20
130.074817
 30
0.0
 10
97.292959
 20
130.074817
 30
0.0
  0
LWPOLYLINE
  5
23d
100
AcDbEntity
  8
Calque_1
 62
7
100
AcDbPolyline
 90
1
 70
1
 10
97.290842
 20
130.077463
 30
0.0
  0
LWPOLYLINE
  5
23e
100
AcDbEntity
  8
Calque_1
 62
7
100
AcDbPolyline
 90
1
 70
1
 10
97.289784
 20
130.077463
 30
0.0
  0
LWPOLYLINE
  5
23f
100
AcDbEntity
  8
Calque_1
 62
7
100
AcDbPolyline
 90
6
 70
0
 10
97.288461
 20
130.077463
 30
0.0
 10
97.281053
 20
130.082754
 30
0.0
 10
97.275497
 20
130.090692
 30
0.0
 10
97.268882
 20
130.098629
 30
0.0
 10
97.264384
 20
130.106567
 30
0.0
 10
97.264384
 20
130.106567
 30
0.0
  0
LWPOLYLINE
  5
240
100
AcDbEntity
  8
Calque_1
 62
7
100
AcDbPolyline
 90
1
 70
1
 10
97.263326
 20
130.106567
 30
0.0
  0
LWPOLYLINE
  5
241
100
AcDbEntity
  8
Calque_1
 62
7
100
AcDbPolyline
 90
1
 70
1
 10
97.263061
 20
130.109213
 30
0.0
  0
LWPOLYLINE
  5
242
100
AcDbEntity
  8
Calque_1
 62
7
100
AcDbPolyline
 90
5
 70
0
 10
97.261738
 20
130.111859
 30
0.0
 10
97.233163
 20
130.178004
 30
0.0
 10
97.228665
 20
130.191233
 30
0.0
 10
97.228665
 20
130.191233
 30
0.0
 10
97.228665
 20
130.191233
 30
0.0
  0
LWPOLYLINE
  5
243
100
AcDbEntity
  8
Calque_1
 62
7
100
AcDbPolyline
 90
21
 70
0
 10
97.228401
 20
130.191233
 30
0.0
 10
97.227078
 20
130.207108
 30
0.0
 10
97.227078
 20
130.498150
 30
0.0
 10
97.216495
 20
130.498150
 30
0.0
 10
97.201678
 20
130.500796
 30
0.0
 10
97.174690
 20
130.511379
 30
0.0
 10
97.154053
 20
130.532546
 30
0.0
 10
97.142941
 20
130.559004
 30
0.0
 10
97.142941
 20
130.588108
 30
0.0
 10
97.154053
 20
130.614566
 30
0.0
 10
97.174690
 20
130.635733
 30
0.0
 10
97.201678
 20
130.646316
 30
0.0
 10
97.216495
 20
130.648962
 30
0.0
 10
97.227078
 20
130.648962
 30
0.0
 10
97.227078
 20
130.807712
 30
0.0
 10
97.228401
 20
130.820941
 30
0.0
 10
97.239778
 20
130.847399
 30
0.0
 10
97.260415
 20
130.868566
 30
0.0
 10
97.287403
 20
130.879149
 30
0.0
 10
97.316772
 20
130.879149
 30
0.0
 10
97.343759
 20
130.868566
 30
0.0
  0
LWPOLYLINE
  5
244
100
AcDbEntity
  8
Calque_1
 62
7
100
AcDbPolyline
 90
6
 70
0
 10
97.831121
 20
130.646316
 30
0.0
 10
97.835619
 20
130.646316
 30
0.0
 10
97.840910
 20
130.643670
 30
0.0
 10
97.854140
 20
130.638379
 30
0.0
 10
97.911290
 20
130.603983
 30
0.0
 10
97.911290
 20
130.603983
 30
0.0
  0
LWPOLYLINE
  5
245
100
AcDbEntity
  8
Calque_1
 62
7
100
AcDbPolyline
 90
1
 70
1
 10
97.913406
 20
130.603983
 30
0.0
  0
LWPOLYLINE
  5
246
100
AcDbEntity
  8
Calque_1
 62
7
100
AcDbPolyline
 90
1
 70
1
 10
97.914465
 20
130.603983
 30
0.0
  0
LWPOLYLINE
  5
247
100
AcDbEntity
  8
Calque_1
 62
7
100
AcDbPolyline
 90
6
 70
0
 10
97.915787
 20
130.601337
 30
0.0
 10
97.923196
 20
130.596045
 30
0.0
 10
97.928752
 20
130.588108
 30
0.0
 10
97.935367
 20
130.582816
 30
0.0
 10
97.939865
 20
130.574879
 30
0.0
 10
97.939865
 20
130.574879
 30
0.0
  0
LWPOLYLINE
  5
248
100
AcDbEntity
  8
Calque_1
 62
7
100
AcDbPolyline
 90
1
 70
1
 10
97.940923
 20
130.572233
 30
0.0
  0
LWPOLYLINE
  5
249
100
AcDbEntity
  8
Calque_1
 62
7
100
AcDbPolyline
 90
1
 70
1
 10
97.941187
 20
130.572233
 30
0.0
  0
LWPOLYLINE
  5
24a
100
AcDbEntity
  8
Calque_1
 62
7
100
AcDbPolyline
 90
4
 70
0
 10
97.942510
 20
130.569587
 30
0.0
 10
97.971085
 20
130.503441
 30
0.0
 10
97.975583
 20
130.490212
 30
0.0
 10
97.975583
 20
130.490212
 30
0.0
  0
LWPOLYLINE
  5
24b
100
AcDbEntity
  8
Calque_1
 62
7
100
AcDbPolyline
 90
21
 70
0
 10
97.975583
 20
130.487566
 30
0.0
 10
97.975583
 20
130.487566
 30
0.0
 10
97.977171
 20
130.474337
 30
0.0
 10
97.977171
 20
130.106567
 30
0.0
 10
97.975583
 20
130.093338
 30
0.0
 10
97.964471
 20
130.064234
 30
0.0
 10
97.943833
 20
130.043067
 30
0.0
 10
97.916846
 20
130.032484
 30
0.0
 10
97.887477
 20
130.032484
 30
0.0
 10
97.875042
 20
130.037775
 30
0.0
 10
97.869485
 20
130.035129
 30
0.0
 10
97.864194
 20
130.035129
 30
0.0
 10
97.859696
 20
130.032484
 30
0.0
 10
97.844879
 20
130.032484
 30
0.0
 10
97.702004
 20
130.032484
 30
0.0
 10
97.687452
 20
130.032484
 30
0.0
 10
97.682690
 20
130.035129
 30
0.0
 10
97.677663
 20
130.035129
 30
0.0
 10
97.664169
 20
130.043067
 30
0.0
 10
97.607284
 20
130.074817
 30
0.0
 10
97.607284
 20
130.074817
 30
0.0
  0
LWPOLYLINE
  5
24c
100
AcDbEntity
  8
Calque_1
 62
7
100
AcDbPolyline
 90
1
 70
1
 10
97.605167
 20
130.077463
 30
0.0
  0
LWPOLYLINE
  5
24d
100
AcDbEntity
  8
Calque_1
 62
7
100
AcDbPolyline
 90
1
 70
1
 10
97.604109
 20
130.077463
 30
0.0
  0
LWPOLYLINE
  5
24e
100
AcDbEntity
  8
Calque_1
 62
7
100
AcDbPolyline
 90
6
 70
0
 10
97.602786
 20
130.077463
 30
0.0
 10
97.595113
 20
130.082754
 30
0.0
 10
97.589557
 20
130.090692
 30
0.0
 10
97.583207
 20
130.098629
 30
0.0
 10
97.578709
 20
130.106567
 30
0.0
 10
97.578709
 20
130.106567
 30
0.0
  0
LWPOLYLINE
  5
24f
100
AcDbEntity
  8
Calque_1
 62
7
100
AcDbPolyline
 90
1
 70
1
 10
97.577650
 20
130.106567
 30
0.0
  0
LWPOLYLINE
  5
250
100
AcDbEntity
  8
Calque_1
 62
7
100
AcDbPolyline
 90
1
 70
1
 10
97.577121
 20
130.109213
 30
0.0
  0
LWPOLYLINE
  5
251
100
AcDbEntity
  8
Calque_1
 62
7
100
AcDbPolyline
 90
5
 70
0
 10
97.576063
 20
130.111859
 30
0.0
 10
97.547488
 20
130.178004
 30
0.0
 10
97.542990
 20
130.191233
 30
0.0
 10
97.542990
 20
130.191233
 30
0.0
 10
97.542990
 20
130.191233
 30
0.0
  0
LWPOLYLINE
  5
252
100
AcDbEntity
  8
Calque_1
 62
7
100
AcDbPolyline
 90
5
 70
0
 10
97.542725
 20
130.191233
 30
0.0
 10
97.541403
 20
130.207108
 30
0.0
 10
97.541403
 20
130.273254
 30
0.0
 10
97.542725
 20
130.289129
 30
0.0
 10
97.542725
 20
130.289129
 30
0.0
  0
LWPOLYLINE
  5
253
100
AcDbEntity
  8
Calque_1
 62
7
100
AcDbPolyline
 90
5
 70
0
 10
97.542990
 20
130.289129
 30
0.0
 10
97.542990
 20
130.289129
 30
0.0
 10
97.547488
 20
130.302358
 30
0.0
 10
97.576063
 20
130.368504
 30
0.0
 10
97.576063
 20
130.368504
 30
0.0
  0
LWPOLYLINE
  5
254
100
AcDbEntity
  8
Calque_1
 62
7
100
AcDbPolyline
 90
1
 70
1
 10
97.577121
 20
130.371150
 30
0.0
  0
LWPOLYLINE
  5
255
100
AcDbEntity
  8
Calque_1
 62
7
100
AcDbPolyline
 90
1
 70
1
 10
97.577650
 20
130.373796
 30
0.0
  0
LWPOLYLINE
  5
256
100
AcDbEntity
  8
Calque_1
 62
7
100
AcDbPolyline
 90
6
 70
0
 10
97.578709
 20
130.373796
 30
0.0
 10
97.583207
 20
130.381733
 30
0.0
 10
97.589557
 20
130.389671
 30
0.0
 10
97.595113
 20
130.394962
 30
0.0
 10
97.602786
 20
130.402900
 30
0.0
 10
97.602786
 20
130.402900
 30
0.0
  0
LWPOLYLINE
  5
257
100
AcDbEntity
  8
Calque_1
 62
7
100
AcDbPolyline
 90
1
 70
1
 10
97.604109
 20
130.402900
 30
0.0
  0
LWPOLYLINE
  5
258
100
AcDbEntity
  8
Calque_1
 62
7
100
AcDbPolyline
 90
1
 70
1
 10
97.605167
 20
130.402900
 30
0.0
  0
LWPOLYLINE
  5
259
100
AcDbEntity
  8
Calque_1
 62
7
100
AcDbPolyline
 90
8
 70
0
 10
97.607019
 20
130.405546
 30
0.0
 10
97.664169
 20
130.437296
 30
0.0
 10
97.677663
 20
130.445233
 30
0.0
 10
97.682690
 20
130.445233
 30
0.0
 10
97.687452
 20
130.447879
 30
0.0
 10
97.702004
 20
130.447879
 30
0.0
 10
97.824771
 20
130.447879
 30
0.0
 10
97.824771
 20
130.447879
 30
0.0
  0
LWPOLYLINE
  5
25a
100
AcDbEntity
  8
Calque_1
 62
7
100
AcDbPolyline
 90
22
 70
0
 10
97.827152
 20
130.450525
 30
0.0
 10
97.827152
 20
130.458462
 30
0.0
 10
97.814452
 20
130.487566
 30
0.0
 10
97.796196
 20
130.498150
 30
0.0
 10
97.722377
 20
130.498150
 30
0.0
 10
97.682690
 20
130.474337
 30
0.0
 10
97.669461
 20
130.469046
 30
0.0
 10
97.640357
 20
130.466400
 30
0.0
 10
97.612046
 20
130.471691
 30
0.0
 10
97.588763
 20
130.490212
 30
0.0
 10
97.573946
 20
130.516671
 30
0.0
 10
97.569977
 20
130.545775
 30
0.0
 10
97.577650
 20
130.572233
 30
0.0
 10
97.595113
 20
130.596045
 30
0.0
 10
97.607019
 20
130.603983
 30
0.0
 10
97.664169
 20
130.638379
 30
0.0
 10
97.677663
 20
130.643670
 30
0.0
 10
97.682690
 20
130.646316
 30
0.0
 10
97.687452
 20
130.646316
 30
0.0
 10
97.702004
 20
130.648962
 30
0.0
 10
97.816304
 20
130.648962
 30
0.0
 10
97.831121
 20
130.646316
 30
0.0
  0
LWPOLYLINE
  5
25b
100
AcDbEntity
  8
Calque_1
 62
7
100
AcDbPolyline
 90
7
 70
0
 10
97.704121
 20
130.286483
 30
0.0
 10
97.691421
 20
130.257379
 30
0.0
 10
97.691421
 20
130.222983
 30
0.0
 10
97.704121
 20
130.191233
 30
0.0
 10
97.722377
 20
130.180650
 30
0.0
 10
97.824771
 20
130.180650
 30
0.0
 10
97.824771
 20
130.180650
 30
0.0
  0
LWPOLYLINE
  5
25c
100
AcDbEntity
  8
Calque_1
 62
7
100
AcDbPolyline
 90
4
 70
0
 10
97.827152
 20
130.183296
 30
0.0
 10
97.827152
 20
130.299712
 30
0.0
 10
97.722377
 20
130.299712
 30
0.0
 10
97.704121
 20
130.286483
 30
0.0
  0
LWPOLYLINE
  5
25d
100
AcDbEntity
  8
Calque_1
 62
7
100
AcDbPolyline
 90
7
 70
0
 10
121.294341
 20
130.879149
 30
0.0
 10
121.299104
 20
130.879149
 30
0.0
 10
121.304131
 20
130.876503
 30
0.0
 10
121.317625
 20
130.871212
 30
0.0
 10
121.374775
 20
130.839462
 30
0.0
 10
121.381389
 20
130.834170
 30
0.0
 10
121.381389
 20
130.834170
 30
0.0
  0
LWPOLYLINE
  5
25e
100
AcDbEntity
  8
Calque_1
 62
7
100
AcDbPolyline
 90
1
 70
1
 10
121.383241
 20
130.831524
 30
0.0
  0
LWPOLYLINE
  5
25f
100
AcDbEntity
  8
Calque_1
 62
7
100
AcDbPolyline
 90
1
 70
1
 10
121.384829
 20
130.831524
 30
0.0
  0
LWPOLYLINE
  5
260
100
AcDbEntity
  8
Calque_1
 62
7
100
AcDbPolyline
 90
1
 70
1
 10
121.386681
 20
130.828878
 30
0.0
  0
LWPOLYLINE
  5
261
100
AcDbEntity
  8
Calque_1
 62
7
100
AcDbPolyline
 90
5
 70
0
 10
121.387739
 20
130.828878
 30
0.0
 10
121.393825
 20
130.820941
 30
0.0
 10
121.422400
 20
130.789191
 30
0.0
 10
121.425839
 20
130.783899
 30
0.0
 10
121.425839
 20
130.783899
 30
0.0
  0
LWPOLYLINE
  5
262
100
AcDbEntity
  8
Calque_1
 62
7
100
AcDbPolyline
 90
1
 70
1
 10
121.427427
 20
130.781254
 30
0.0
  0
LWPOLYLINE
  5
263
100
AcDbEntity
  8
Calque_1
 62
7
100
AcDbPolyline
 90
1
 70
1
 10
121.429014
 20
130.778608
 30
0.0
  0
LWPOLYLINE
  5
264
100
AcDbEntity
  8
Calque_1
 62
7
100
AcDbPolyline
 90
1
 70
1
 10
121.430866
 20
130.775962
 30
0.0
  0
LWPOLYLINE
  5
265
100
AcDbEntity
  8
Calque_1
 62
7
100
AcDbPolyline
 90
6
 70
0
 10
121.431395
 20
130.775962
 30
0.0
 10
121.434306
 20
130.770670
 30
0.0
 10
121.462881
 20
130.701879
 30
0.0
 10
121.467379
 20
130.688649
 30
0.0
 10
121.467379
 20
130.688649
 30
0.0
 10
121.467379
 20
130.688649
 30
0.0
  0
LWPOLYLINE
  5
266
100
AcDbEntity
  8
Calque_1
 62
7
100
AcDbPolyline
 90
5
 70
0
 10
121.467643
 20
130.688649
 30
0.0
 10
121.468966
 20
130.672775
 30
0.0
 10
121.468966
 20
130.572233
 30
0.0
 10
121.467643
 20
130.559004
 30
0.0
 10
121.467643
 20
130.559004
 30
0.0
  0
LWPOLYLINE
  5
267
100
AcDbEntity
  8
Calque_1
 62
7
100
AcDbPolyline
 90
6
 70
0
 10
121.467379
 20
130.559004
 30
0.0
 10
121.467379
 20
130.559004
 30
0.0
 10
121.462881
 20
130.543129
 30
0.0
 10
121.434306
 20
130.476983
 30
0.0
 10
121.431395
 20
130.471691
 30
0.0
 10
121.431395
 20
130.471691
 30
0.0
  0
LWPOLYLINE
  5
268
100
AcDbEntity
  8
Calque_1
 62
7
100
AcDbPolyline
 90
1
 70
1
 10
121.430866
 20
130.469046
 30
0.0
  0
LWPOLYLINE
  5
269
100
AcDbEntity
  8
Calque_1
 62
7
100
AcDbPolyline
 90
1
 70
1
 10
121.429014
 20
130.466400
 30
0.0
  0
LWPOLYLINE
  5
26a
100
AcDbEntity
  8
Calque_1
 62
7
100
AcDbPolyline
 90
1
 70
1
 10
121.427427
 20
130.463754
 30
0.0
  0
LWPOLYLINE
  5
26b
100
AcDbEntity
  8
Calque_1
 62
7
100
AcDbPolyline
 90
5
 70
0
 10
121.425839
 20
130.463754
 30
0.0
 10
121.422400
 20
130.458462
 30
0.0
 10
121.393825
 20
130.424066
 30
0.0
 10
121.387739
 20
130.418775
 30
0.0
 10
121.387739
 20
130.418775
 30
0.0
  0
LWPOLYLINE
  5
26c
100
AcDbEntity
  8
Calque_1
 62
7
100
AcDbPolyline
 90
1
 70
1
 10
121.386681
 20
130.416129
 30
0.0
  0
LWPOLYLINE
  5
26d
100
AcDbEntity
  8
Calque_1
 62
7
100
AcDbPolyline
 90
1
 70
1
 10
121.384829
 20
130.416129
 30
0.0
  0
LWPOLYLINE
  5
26e
100
AcDbEntity
  8
Calque_1
 62
7
100
AcDbPolyline
 90
1
 70
1
 10
121.383241
 20
130.413483
 30
0.0
  0
LWPOLYLINE
  5
26f
100
AcDbEntity
  8
Calque_1
 62
7
100
AcDbPolyline
 90
33
 70
0
 10
121.381389
 20
130.413483
 30
0.0
 10
121.374775
 20
130.408192
 30
0.0
 10
121.319741
 20
130.376442
 30
0.0
 10
121.458383
 20
130.146254
 30
0.0
 10
121.464733
 20
130.133025
 30
0.0
 10
121.468966
 20
130.103921
 30
0.0
 10
121.461822
 20
130.074817
 30
0.0
 10
121.444360
 20
130.051004
 30
0.0
 10
121.419225
 20
130.035129
 30
0.0
 10
121.390385
 20
130.032484
 30
0.0
 10
121.362075
 20
130.037775
 30
0.0
 10
121.338527
 20
130.056296
 30
0.0
 10
121.329795
 20
130.066879
 30
0.0
 10
121.151467
 20
130.365858
 30
0.0
 10
121.126067
 20
130.365858
 30
0.0
 10
121.126067
 20
130.106567
 30
0.0
 10
121.124744
 20
130.093338
 30
0.0
 10
121.113631
 20
130.064234
 30
0.0
 10
121.092994
 20
130.043067
 30
0.0
 10
121.065742
 20
130.032484
 30
0.0
 10
121.036638
 20
130.032484
 30
0.0
 10
121.009650
 20
130.043067
 30
0.0
 10
120.988748
 20
130.064234
 30
0.0
 10
120.977635
 20
130.093338
 30
0.0
 10
120.976313
 20
130.106567
 30
0.0
 10
120.976313
 20
130.807712
 30
0.0
 10
120.977635
 20
130.820941
 30
0.0
 10
120.988748
 20
130.847399
 30
0.0
 10
121.009650
 20
130.868566
 30
0.0
 10
121.036638
 20
130.879149
 30
0.0
 10
121.051190
 20
130.881795
 30
0.0
 10
121.279789
 20
130.881795
 30
0.0
 10
121.294341
 20
130.879149
 30
0.0
  0
LWPOLYLINE
  5
270
100
AcDbEntity
  8
Calque_1
 62
7
100
AcDbPolyline
 90
10
 70
1
 10
121.126067
 20
130.514025
 30
0.0
 10
121.259416
 20
130.514025
 30
0.0
 10
121.288256
 20
130.532546
 30
0.0
 10
121.300956
 20
130.545775
 30
0.0
 10
121.318948
 20
130.588108
 30
0.0
 10
121.318948
 20
130.656900
 30
0.0
 10
121.300956
 20
130.699233
 30
0.0
 10
121.288256
 20
130.715108
 30
0.0
 10
121.259416
 20
130.730983
 30
0.0
 10
121.126067
 20
130.730983
 30
0.0
  0
LWPOLYLINE
  5
271
100
AcDbEntity
  8
Calque_1
 62
7
100
AcDbPolyline
 90
7
 70
0
 10
91.645700
 20
130.873858
 30
0.0
 10
91.668718
 20
130.855337
 30
0.0
 10
91.683006
 20
130.828878
 30
0.0
 10
91.686181
 20
130.799774
 30
0.0
 10
91.683535
 20
130.786545
 30
0.0
 10
91.483510
 20
130.085400
 30
0.0
 10
91.483510
 20
130.085400
 30
0.0
  0
LWPOLYLINE
  5
272
100
AcDbEntity
  8
Calque_1
 62
7
100
AcDbPolyline
 90
1
 70
1
 10
91.482981
 20
130.085400
 30
0.0
  0
LWPOLYLINE
  5
273
100
AcDbEntity
  8
Calque_1
 62
7
100
AcDbPolyline
 90
1
 70
1
 10
91.482981
 20
130.082754
 30
0.0
  0
LWPOLYLINE
  5
274
100
AcDbEntity
  8
Calque_1
 62
7
100
AcDbPolyline
 90
26
 70
0
 10
91.482187
 20
130.082754
 30
0.0
 10
91.478218
 20
130.072171
 30
0.0
 10
91.472927
 20
130.066879
 30
0.0
 10
91.468694
 20
130.058942
 30
0.0
 10
91.463931
 20
130.053650
 30
0.0
 10
91.459962
 20
130.048359
 30
0.0
 10
91.452554
 20
130.045713
 30
0.0
 10
91.445675
 20
130.040421
 30
0.0
 10
91.439854
 20
130.037775
 30
0.0
 10
91.434562
 20
130.035129
 30
0.0
 10
91.425831
 20
130.035129
 30
0.0
 10
91.417629
 20
130.032484
 30
0.0
 10
91.411544
 20
130.032484
 30
0.0
 10
91.405458
 20
130.032484
 30
0.0
 10
91.396992
 20
130.035129
 30
0.0
 10
91.388525
 20
130.035129
 30
0.0
 10
91.383233
 20
130.037775
 30
0.0
 10
91.377148
 20
130.040421
 30
0.0
 10
91.370533
 20
130.045713
 30
0.0
 10
91.363125
 20
130.048359
 30
0.0
 10
91.359156
 20
130.053650
 30
0.0
 10
91.354394
 20
130.058942
 30
0.0
 10
91.350160
 20
130.066879
 30
0.0
 10
91.344869
 20
130.072171
 30
0.0
 10
91.340900
 20
130.082754
 30
0.0
 10
91.340900
 20
130.082754
 30
0.0
  0
LWPOLYLINE
  5
275
100
AcDbEntity
  8
Calque_1
 62
7
100
AcDbPolyline
 90
1
 70
1
 10
91.340106
 20
130.082754
 30
0.0
  0
LWPOLYLINE
  5
276
100
AcDbEntity
  8
Calque_1
 62
7
100
AcDbPolyline
 90
1
 70
1
 10
91.340106
 20
130.085400
 30
0.0
  0
LWPOLYLINE
  5
277
100
AcDbEntity
  8
Calque_1
 62
7
100
AcDbPolyline
 90
18
 70
0
 10
91.339312
 20
130.085400
 30
0.0
 10
91.139288
 20
130.786545
 30
0.0
 10
91.136642
 20
130.799774
 30
0.0
 10
91.140081
 20
130.828878
 30
0.0
 10
91.154369
 20
130.855337
 30
0.0
 10
91.177123
 20
130.873858
 30
0.0
 10
91.205433
 20
130.881795
 30
0.0
 10
91.234538
 20
130.879149
 30
0.0
 10
91.259938
 20
130.863274
 30
0.0
 10
91.278194
 20
130.842108
 30
0.0
 10
91.283750
 20
130.826233
 30
0.0
 10
91.411544
 20
130.379087
 30
0.0
 10
91.539337
 20
130.826233
 30
0.0
 10
91.544893
 20
130.842108
 30
0.0
 10
91.562885
 20
130.863274
 30
0.0
 10
91.588550
 20
130.879149
 30
0.0
 10
91.617654
 20
130.881795
 30
0.0
 10
91.645700
 20
130.873858
 30
0.0
  0
LWPOLYLINE
  5
278
100
AcDbEntity
  8
Calque_1
 62
7
100
AcDbPolyline
 90
7
 70
0
 10
98.993434
 20
130.873858
 30
0.0
 10
99.016453
 20
130.855337
 30
0.0
 10
99.030740
 20
130.828878
 30
0.0
 10
99.033915
 20
130.799774
 30
0.0
 10
99.031269
 20
130.786545
 30
0.0
 10
98.831245
 20
130.085400
 30
0.0
 10
98.831245
 20
130.085400
 30
0.0
  0
LWPOLYLINE
  5
279
100
AcDbEntity
  8
Calque_1
 62
7
100
AcDbPolyline
 90
1
 70
1
 10
98.830715
 20
130.085400
 30
0.0
  0
LWPOLYLINE
  5
27a
100
AcDbEntity
  8
Calque_1
 62
7
100
AcDbPolyline
 90
1
 70
1
 10
98.830715
 20
130.082754
 30
0.0
  0
LWPOLYLINE
  5
27b
100
AcDbEntity
  8
Calque_1
 62
7
100
AcDbPolyline
 90
26
 70
0
 10
98.829922
 20
130.082754
 30
0.0
 10
98.825953
 20
130.072171
 30
0.0
 10
98.820661
 20
130.066879
 30
0.0
 10
98.816428
 20
130.058942
 30
0.0
 10
98.811666
 20
130.053650
 30
0.0
 10
98.807697
 20
130.048359
 30
0.0
 10
98.800288
 20
130.045713
 30
0.0
 10
98.793409
 20
130.040421
 30
0.0
 10
98.787588
 20
130.037775
 30
0.0
 10
98.782032
 20
130.035129
 30
0.0
 10
98.773566
 20
130.035129
 30
0.0
 10
98.765363
 20
130.032484
 30
0.0
 10
98.759278
 20
130.032484
 30
0.0
 10
98.753193
 20
130.032484
 30
0.0
 10
98.744726
 20
130.035129
 30
0.0
 10
98.736259
 20
130.035129
 30
0.0
 10
98.730968
 20
130.037775
 30
0.0
 10
98.724882
 20
130.040421
 30
0.0
 10
98.718268
 20
130.045713
 30
0.0
 10
98.710595
 20
130.048359
 30
0.0
 10
98.706891
 20
130.053650
 30
0.0
 10
98.702128
 20
130.058942
 30
0.0
 10
98.697895
 20
130.066879
 30
0.0
 10
98.692603
 20
130.072171
 30
0.0
 10
98.688634
 20
130.082754
 30
0.0
 10
98.688634
 20
130.082754
 30
0.0
  0
LWPOLYLINE
  5
27c
100
AcDbEntity
  8
Calque_1
 62
7
100
AcDbPolyline
 90
1
 70
1
 10
98.687841
 20
130.082754
 30
0.0
  0
LWPOLYLINE
  5
27d
100
AcDbEntity
  8
Calque_1
 62
7
100
AcDbPolyline
 90
1
 70
1
 10
98.687841
 20
130.085400
 30
0.0
  0
LWPOLYLINE
  5
27e
100
AcDbEntity
  8
Calque_1
 62
7
100
AcDbPolyline
 90
18
 70
0
 10
98.687047
 20
130.085400
 30
0.0
 10
98.487022
 20
130.786545
 30
0.0
 10
98.484376
 20
130.799774
 30
0.0
 10
98.487816
 20
130.828878
 30
0.0
 10
98.502103
 20
130.855337
 30
0.0
 10
98.524858
 20
130.873858
 30
0.0
 10
98.553168
 20
130.881795
 30
0.0
 10
98.582272
 20
130.879149
 30
0.0
 10
98.607672
 20
130.863274
 30
0.0
 10
98.625928
 20
130.842108
 30
0.0
 10
98.631220
 20
130.826233
 30
0.0
 10
98.759278
 20
130.379087
 30
0.0
 10
98.887072
 20
130.826233
 30
0.0
 10
98.892628
 20
130.842108
 30
0.0
 10
98.910620
 20
130.863274
 30
0.0
 10
98.936284
 20
130.879149
 30
0.0
 10
98.965388
 20
130.881795
 30
0.0
 10
98.993434
 20
130.873858
 30
0.0
  0
LWPOLYLINE
  5
27f
100
AcDbEntity
  8
Calque_1
 62
7
100
AcDbPolyline
 90
89
 70
0
 10
94.674910
 20
150.736103
 30
0.0
 10
94.862500
 20
150.680541
 30
0.0
 10
95.035272
 20
150.587937
 30
0.0
 10
95.186878
 20
150.463583
 30
0.0
 10
95.311232
 20
150.312771
 30
0.0
 10
95.403572
 20
150.138146
 30
0.0
 10
95.460722
 20
149.950292
 30
0.0
 10
95.479772
 20
149.757146
 30
0.0
 10
95.460722
 20
149.561355
 30
0.0
 10
95.403572
 20
149.373501
 30
0.0
 10
95.311232
 20
149.201522
 30
0.0
 10
95.186878
 20
149.050710
 30
0.0
 10
95.035272
 20
148.923710
 30
0.0
 10
94.862500
 20
148.833752
 30
0.0
 10
94.674910
 20
148.775543
 30
0.0
 10
94.479913
 20
148.757023
 30
0.0
 10
94.284650
 20
148.775543
 30
0.0
 10
94.097061
 20
148.833752
 30
0.0
 10
93.924288
 20
148.923710
 30
0.0
 10
93.772682
 20
149.050710
 30
0.0
 10
93.648328
 20
149.201522
 30
0.0
 10
93.618695
 20
149.257084
 30
0.0
 10
91.473985
 20
149.257084
 30
0.0
 10
90.520957
 20
148.304586
 30
0.0
 10
90.520957
 20
139.218805
 30
0.0
 10
91.727985
 20
138.009661
 30
0.0
 10
96.520906
 20
138.009661
 30
0.0
 10
96.585993
 20
138.007015
 30
0.0
 10
96.585993
 20
138.007015
 30
0.0
 10
96.712199
 20
137.972619
 30
0.0
 10
96.825176
 20
137.906474
 30
0.0
 10
96.825176
 20
137.906474
 30
0.0
 10
96.874389
 20
137.864140
 30
0.0
 10
97.887477
 20
136.850788
 30
0.0
 10
97.930604
 20
136.803163
 30
0.0
 10
97.930604
 20
136.803163
 30
0.0
 10
97.995692
 20
136.689392
 30
0.0
 10
98.029558
 20
136.562392
 30
0.0
 10
98.029558
 20
136.562392
 30
0.0
 10
98.033791
 20
136.496246
 30
0.0
 10
98.033791
 20
134.273749
 30
0.0
 10
98.136450
 20
134.239353
 30
0.0
 10
98.354201
 20
134.120291
 30
0.0
 10
98.549728
 20
133.969479
 30
0.0
 10
98.717474
 20
133.786916
 30
0.0
 10
98.852940
 20
133.580542
 30
0.0
 10
98.952424
 20
133.353000
 30
0.0
 10
99.013278
 20
133.112230
 30
0.0
 10
99.033915
 20
132.866168
 30
0.0
 10
99.013278
 20
132.617460
 30
0.0
 10
98.952424
 20
132.379335
 30
0.0
 10
98.852940
 20
132.151793
 30
0.0
 10
98.717474
 20
131.945419
 30
0.0
 10
98.549728
 20
131.762856
 30
0.0
 10
98.354201
 20
131.609398
 30
0.0
 10
98.136450
 20
131.492982
 30
0.0
 10
97.902029
 20
131.410961
 30
0.0
 10
97.657819
 20
131.371274
 30
0.0
 10
97.409905
 20
131.371274
 30
0.0
 10
97.165695
 20
131.410961
 30
0.0
 10
96.931274
 20
131.492982
 30
0.0
 10
96.713522
 20
131.609398
 30
0.0
 10
96.517995
 20
131.762856
 30
0.0
 10
96.349985
 20
131.945419
 30
0.0
 10
96.214519
 20
132.151793
 30
0.0
 10
96.115036
 20
132.379335
 30
0.0
 10
96.054181
 20
132.617460
 30
0.0
 10
96.033809
 20
132.866168
 30
0.0
 10
96.054181
 20
133.112230
 30
0.0
 10
96.115036
 20
133.353000
 30
0.0
 10
96.214519
 20
133.580542
 30
0.0
 10
96.349985
 20
133.786916
 30
0.0
 10
96.517995
 20
133.969479
 30
0.0
 10
96.713522
 20
134.120291
 30
0.0
 10
96.931274
 20
134.239353
 30
0.0
 10
97.033932
 20
134.273749
 30
0.0
 10
97.033932
 20
136.289872
 30
0.0
 10
96.313737
 20
137.009537
 30
0.0
 10
91.520816
 20
137.009537
 30
0.0
 10
91.455464
 20
137.014829
 30
0.0
 10
91.455464
 20
137.014829
 30
0.0
 10
91.329523
 20
137.049225
 30
0.0
 10
91.323702
 20
137.051871
 30
0.0
 10
91.216546
 20
137.112725
 30
0.0
 10
91.216546
 20
137.112725
 30
0.0
 10
91.167333
 20
137.157704
 30
0.0
 10
89.667148
 20
138.657889
 30
0.0
 10
89.624285
 20
138.705514
 30
0.0
 10
89.624285
 20
138.705514
 30
0.0
  0
LWPOLYLINE
  5
280
100
AcDbEntity
  8
Calque_1
 62
7
100
AcDbPolyline
 90
11
 70
0
 10
89.624021
 20
138.705514
 30
0.0
 10
89.558933
 20
138.819285
 30
0.0
 10
89.525067
 20
138.946285
 30
0.0
 10
89.525067
 20
138.946285
 30
0.0
 10
89.520833
 20
139.009785
 30
0.0
 10
89.520833
 20
148.510960
 30
0.0
 10
89.525067
 20
148.574460
 30
0.0
 10
89.525067
 20
148.574460
 30
0.0
 10
89.558933
 20
148.701460
 30
0.0
 10
89.624021
 20
148.815231
 30
0.0
 10
89.624021
 20
148.815231
 30
0.0
  0
LWPOLYLINE
  5
281
100
AcDbEntity
  8
Calque_1
 62
7
100
AcDbPolyline
 90
17
 70
0
 10
89.624285
 20
148.815231
 30
0.0
 10
89.667148
 20
148.862856
 30
0.0
 10
90.913334
 20
150.109042
 30
0.0
 10
90.962546
 20
150.154021
 30
0.0
 10
90.962546
 20
150.154021
 30
0.0
 10
91.075523
 20
150.217521
 30
0.0
 10
91.201465
 20
150.251917
 30
0.0
 10
91.201465
 20
150.251917
 30
0.0
 10
91.266817
 20
150.257208
 30
0.0
 10
93.618695
 20
150.257208
 30
0.0
 10
93.648328
 20
150.312771
 30
0.0
 10
93.772682
 20
150.463583
 30
0.0
 10
93.924288
 20
150.587937
 30
0.0
 10
94.097061
 20
150.680541
 30
0.0
 10
94.284650
 20
150.736103
 30
0.0
 10
94.479913
 20
150.757270
 30
0.0
 10
94.674910
 20
150.736103
 30
0.0
  0
LWPOLYLINE
  5
282
100
AcDbEntity
  8
Calque_1
 62
7
100
AcDbPolyline
 90
62
 70
0
 10
103.863878
 20
142.737759
 30
0.0
 10
104.051467
 20
142.679551
 30
0.0
 10
104.224505
 20
142.586947
 30
0.0
 10
104.375846
 20
142.462593
 30
0.0
 10
104.500200
 20
142.311781
 30
0.0
 10
104.592804
 20
142.139802
 30
0.0
 10
104.649689
 20
141.951948
 30
0.0
 10
104.668739
 20
141.756156
 30
0.0
 10
104.649689
 20
141.560365
 30
0.0
 10
104.592804
 20
141.372511
 30
0.0
 10
104.500200
 20
141.200532
 30
0.0
 10
104.375846
 20
141.049720
 30
0.0
 10
104.224505
 20
140.925366
 30
0.0
 10
104.168942
 20
140.896262
 30
0.0
 10
104.168942
 20
140.570825
 30
0.0
 10
108.428464
 20
136.311038
 30
0.0
 10
108.471591
 20
136.260767
 30
0.0
 10
108.471591
 20
136.260767
 30
0.0
 10
108.536678
 20
136.146997
 30
0.0
 10
108.570545
 20
136.022643
 30
0.0
 10
108.570545
 20
136.022643
 30
0.0
 10
108.574778
 20
135.956497
 30
0.0
 10
108.574778
 20
134.400749
 30
0.0
 10
108.677436
 20
134.366353
 30
0.0
 10
108.895188
 20
134.247291
 30
0.0
 10
109.090715
 20
134.096479
 30
0.0
 10
109.258461
 20
133.913916
 30
0.0
 10
109.393927
 20
133.707542
 30
0.0
 10
109.493410
 20
133.480000
 30
0.0
 10
109.554264
 20
133.239230
 30
0.0
 10
109.574902
 20
132.993167
 30
0.0
 10
109.554264
 20
132.744459
 30
0.0
 10
109.493410
 20
132.506335
 30
0.0
 10
109.393927
 20
132.278793
 30
0.0
 10
109.258461
 20
132.072419
 30
0.0
 10
109.090715
 20
131.889856
 30
0.0
 10
108.895188
 20
131.736398
 30
0.0
 10
108.677436
 20
131.619982
 30
0.0
 10
108.443016
 20
131.537961
 30
0.0
 10
108.198806
 20
131.498273
 30
0.0
 10
107.950891
 20
131.498273
 30
0.0
 10
107.706681
 20
131.537961
 30
0.0
 10
107.472261
 20
131.619982
 30
0.0
 10
107.254509
 20
131.736398
 30
0.0
 10
107.058982
 20
131.889856
 30
0.0
 10
106.890972
 20
132.072419
 30
0.0
 10
106.755505
 20
132.278793
 30
0.0
 10
106.656022
 20
132.506335
 30
0.0
 10
106.595168
 20
132.744459
 30
0.0
 10
106.574795
 20
132.993167
 30
0.0
 10
106.595168
 20
133.239230
 30
0.0
 10
106.656022
 20
133.480000
 30
0.0
 10
106.755505
 20
133.707542
 30
0.0
 10
106.890972
 20
133.913916
 30
0.0
 10
107.058982
 20
134.096479
 30
0.0
 10
107.254509
 20
134.247291
 30
0.0
 10
107.472261
 20
134.366353
 30
0.0
 10
107.574919
 20
134.400749
 30
0.0
 10
107.574919
 20
135.750122
 30
0.0
 10
103.315133
 20
140.009909
 30
0.0
 10
103.272270
 20
140.057534
 30
0.0
 10
103.272270
 20
140.057534
 30
0.0
  0
LWPOLYLINE
  5
283
100
AcDbEntity
  8
Calque_1
 62
7
100
AcDbPolyline
 90
21
 70
0
 10
103.272006
 20
140.057534
 30
0.0
 10
103.206918
 20
140.171304
 30
0.0
 10
103.173052
 20
140.298304
 30
0.0
 10
103.173052
 20
140.298304
 30
0.0
 10
103.168818
 20
140.361804
 30
0.0
 10
103.168818
 20
140.896262
 30
0.0
 10
103.113256
 20
140.925366
 30
0.0
 10
102.961650
 20
141.049720
 30
0.0
 10
102.837296
 20
141.200532
 30
0.0
 10
102.744956
 20
141.372511
 30
0.0
 10
102.688071
 20
141.560365
 30
0.0
 10
102.668756
 20
141.756156
 30
0.0
 10
102.688071
 20
141.951948
 30
0.0
 10
102.744956
 20
142.139802
 30
0.0
 10
102.837296
 20
142.311781
 30
0.0
 10
102.961650
 20
142.462593
 30
0.0
 10
103.113256
 20
142.586947
 30
0.0
 10
103.286029
 20
142.679551
 30
0.0
 10
103.473618
 20
142.737759
 30
0.0
 10
103.668880
 20
142.756280
 30
0.0
 10
103.863878
 20
142.737759
 30
0.0
  0
LWPOLYLINE
  5
284
100
AcDbEntity
  8
Calque_1
 62
7
100
AcDbPolyline
 90
287
 70
1
 10
107.247101
 20
157.520012
 30
0.0
 10
107.481257
 20
157.437991
 30
0.0
 10
107.699273
 20
157.321574
 30
0.0
 10
107.894800
 20
157.168116
 30
0.0
 10
108.062546
 20
156.985554
 30
0.0
 10
108.198012
 20
156.779179
 30
0.0
 10
108.291939
 20
156.564867
 30
0.0
 10
109.078809
 20
156.564867
 30
0.0
 10
109.144161
 20
156.559575
 30
0.0
 10
109.144161
 20
156.559575
 30
0.0
 10
109.270102
 20
156.527825
 30
0.0
 10
109.383079
 20
156.461680
 30
0.0
 10
109.383079
 20
156.461680
 30
0.0
 10
109.432292
 20
156.419346
 30
0.0
 10
109.634698
 20
156.215617
 30
0.0
 10
109.676237
 20
156.239430
 30
0.0
 10
109.910658
 20
156.318805
 30
0.0
 10
110.154868
 20
156.361138
 30
0.0
 10
110.402782
 20
156.361138
 30
0.0
 10
110.646992
 20
156.318805
 30
0.0
 10
110.881413
 20
156.239430
 30
0.0
 10
111.099165
 20
156.120367
 30
0.0
 10
111.294691
 20
155.969555
 30
0.0
 10
111.462437
 20
155.786993
 30
0.0
 10
111.597904
 20
155.577972
 30
0.0
 10
111.697651
 20
155.353077
 30
0.0
 10
111.758241
 20
155.112306
 30
0.0
 10
111.778878
 20
154.866244
 30
0.0
 10
111.758241
 20
154.617536
 30
0.0
 10
111.697651
 20
154.376765
 30
0.0
 10
111.597904
 20
154.151870
 30
0.0
 10
111.462437
 20
153.942849
 30
0.0
 10
111.294691
 20
153.760287
 30
0.0
 10
111.099165
 20
153.609475
 30
0.0
 10
110.881413
 20
153.490412
 30
0.0
 10
110.778755
 20
153.456017
 30
0.0
 10
110.778755
 20
146.235547
 30
0.0
 10
110.989098
 20
146.121776
 30
0.0
 10
111.184625
 20
145.968318
 30
0.0
 10
111.352635
 20
145.785755
 30
0.0
 10
111.488102
 20
145.579381
 30
0.0
 10
111.587585
 20
145.351839
 30
0.0
 10
111.648439
 20
145.111069
 30
0.0
 10
111.668812
 20
144.865007
 30
0.0
 10
111.648439
 20
144.618944
 30
0.0
 10
111.587585
 20
144.378174
 30
0.0
 10
111.488102
 20
144.150633
 30
0.0
 10
111.352635
 20
143.944258
 30
0.0
 10
111.184625
 20
143.761696
 30
0.0
 10
110.989098
 20
143.608237
 30
0.0
 10
110.771346
 20
143.491821
 30
0.0
 10
110.536926
 20
143.409800
 30
0.0
 10
110.292716
 20
143.370113
 30
0.0
 10
110.045066
 20
143.370113
 30
0.0
 10
109.800591
 20
143.409800
 30
0.0
 10
109.566171
 20
143.491821
 30
0.0
 10
109.348419
 20
143.608237
 30
0.0
 10
109.152892
 20
143.761696
 30
0.0
 10
108.985146
 20
143.944258
 30
0.0
 10
108.849680
 20
144.150633
 30
0.0
 10
108.755753
 20
144.364945
 30
0.0
 10
106.668722
 20
144.364945
 30
0.0
 10
106.668722
 20
142.727176
 30
0.0
 10
106.724285
 20
142.695426
 30
0.0
 10
106.875891
 20
142.571072
 30
0.0
 10
107.000245
 20
142.420260
 30
0.0
 10
107.029878
 20
142.364697
 30
0.0
 10
109.166386
 20
142.364697
 30
0.0
 10
109.231473
 20
142.362051
 30
0.0
 10
109.231473
 20
142.362051
 30
0.0
 10
109.357679
 20
142.327656
 30
0.0
 10
109.470656
 20
142.261510
 30
0.0
 10
109.470656
 20
142.261510
 30
0.0
 10
109.519869
 20
142.219177
 30
0.0
 10
114.524456
 20
137.213266
 30
0.0
 10
114.567583
 20
137.165641
 30
0.0
 10
114.567583
 20
137.165641
 30
0.0
 10
114.632671
 20
137.051871
 30
0.0
 10
114.666537
 20
136.924871
 30
0.0
 10
114.666537
 20
136.924871
 30
0.0
 10
114.670771
 20
136.861371
 30
0.0
 10
114.670771
 20
134.400749
 30
0.0
 10
114.773429
 20
134.366353
 30
0.0
 10
114.991181
 20
134.247291
 30
0.0
 10
115.186707
 20
134.096479
 30
0.0
 10
115.354453
 20
133.913916
 30
0.0
 10
115.489919
 20
133.707542
 30
0.0
 10
115.589403
 20
133.480000
 30
0.0
 10
115.650257
 20
133.239230
 30
0.0
 10
115.670894
 20
132.993167
 30
0.0
 10
115.650257
 20
132.744459
 30
0.0
 10
115.589403
 20
132.506335
 30
0.0
 10
115.489919
 20
132.278793
 30
0.0
 10
115.354453
 20
132.072419
 30
0.0
 10
115.186707
 20
131.889856
 30
0.0
 10
114.991181
 20
131.736398
 30
0.0
 10
114.773429
 20
131.619982
 30
0.0
 10
114.539008
 20
131.537961
 30
0.0
 10
114.294798
 20
131.498273
 30
0.0
 10
114.046884
 20
131.498273
 30
0.0
 10
113.802674
 20
131.537961
 30
0.0
 10
113.568253
 20
131.619982
 30
0.0
 10
113.350501
 20
131.736398
 30
0.0
 10
113.154975
 20
131.889856
 30
0.0
 10
112.986964
 20
132.072419
 30
0.0
 10
112.851498
 20
132.278793
 30
0.0
 10
112.752015
 20
132.506335
 30
0.0
 10
112.691161
 20
132.744459
 30
0.0
 10
112.670788
 20
132.993167
 30
0.0
 10
112.691161
 20
133.239230
 30
0.0
 10
112.752015
 20
133.480000
 30
0.0
 10
112.851498
 20
133.707542
 30
0.0
 10
112.986964
 20
133.913916
 30
0.0
 10
113.154975
 20
134.096479
 30
0.0
 10
113.350501
 20
134.247291
 30
0.0
 10
113.568253
 20
134.366353
 30
0.0
 10
113.670911
 20
134.400749
 30
0.0
 10
113.670911
 20
136.652350
 30
0.0
 10
108.959217
 20
141.364574
 30
0.0
 10
107.029878
 20
141.364574
 30
0.0
 10
107.000245
 20
141.309011
 30
0.0
 10
106.875891
 20
141.158199
 30
0.0
 10
106.724285
 20
141.033845
 30
0.0
 10
106.551512
 20
140.941241
 30
0.0
 10
106.363923
 20
140.883032
 30
0.0
 10
106.168925
 20
140.864512
 30
0.0
 10
105.973663
 20
140.883032
 30
0.0
 10
105.786073
 20
140.941241
 30
0.0
 10
105.613301
 20
141.033845
 30
0.0
 10
105.461695
 20
141.158199
 30
0.0
 10
105.337341
 20
141.309011
 30
0.0
 10
105.245001
 20
141.483636
 30
0.0
 10
105.188116
 20
141.668844
 30
0.0
 10
105.168801
 20
141.864635
 30
0.0
 10
105.188116
 20
142.060427
 30
0.0
 10
105.245001
 20
142.248281
 30
0.0
 10
105.337341
 20
142.420260
 30
0.0
 10
105.461695
 20
142.571072
 30
0.0
 10
105.613301
 20
142.695426
 30
0.0
 10
105.668863
 20
142.727176
 30
0.0
 10
105.668863
 20
144.364945
 30
0.0
 10
98.611641
 20
144.364945
 30
0.0
 10
98.587564
 20
144.269695
 30
0.0
 10
98.488080
 20
144.042154
 30
0.0
 10
98.352614
 20
143.835779
 30
0.0
 10
98.184868
 20
143.653216
 30
0.0
 10
97.989342
 20
143.499758
 30
0.0
 10
97.771325
 20
143.383342
 30
0.0
 10
97.537169
 20
143.301321
 30
0.0
 10
97.292694
 20
143.261634
 30
0.0
 10
97.045045
 20
143.261634
 30
0.0
 10
96.800570
 20
143.301321
 30
0.0
 10
96.566150
 20
143.383342
 30
0.0
 10
96.348398
 20
143.499758
 30
0.0
 10
96.152871
 20
143.653216
 30
0.0
 10
95.985125
 20
143.835779
 30
0.0
 10
95.849659
 20
144.042154
 30
0.0
 10
95.750176
 20
144.269695
 30
0.0
 10
95.689322
 20
144.510465
 30
0.0
 10
95.668949
 20
144.756528
 30
0.0
 10
95.689322
 20
145.002590
 30
0.0
 10
95.750176
 20
145.243360
 30
0.0
 10
95.761024
 20
145.267173
 30
0.0
 10
94.735235
 20
146.293755
 30
0.0
 10
94.674910
 20
146.275234
 30
0.0
 10
94.479913
 20
146.256713
 30
0.0
 10
94.284650
 20
146.275234
 30
0.0
 10
94.097061
 20
146.333442
 30
0.0
 10
93.924288
 20
146.426046
 30
0.0
 10
93.772682
 20
146.550400
 30
0.0
 10
93.648328
 20
146.701213
 30
0.0
 10
93.555989
 20
146.873192
 30
0.0
 10
93.499103
 20
147.061046
 30
0.0
 10
93.479789
 20
147.256837
 30
0.0
 10
93.499103
 20
147.452628
 30
0.0
 10
93.555989
 20
147.640482
 30
0.0
 10
93.648328
 20
147.812461
 30
0.0
 10
93.772682
 20
147.963274
 30
0.0
 10
93.924288
 20
148.087628
 30
0.0
 10
94.097061
 20
148.180232
 30
0.0
 10
94.284650
 20
148.238440
 30
0.0
 10
94.479913
 20
148.256961
 30
0.0
 10
94.674910
 20
148.238440
 30
0.0
 10
94.862500
 20
148.180232
 30
0.0
 10
95.035272
 20
148.087628
 30
0.0
 10
95.186878
 20
147.963274
 30
0.0
 10
95.311232
 20
147.812461
 30
0.0
 10
95.403572
 20
147.640482
 30
0.0
 10
95.460722
 20
147.452628
 30
0.0
 10
95.479772
 20
147.256837
 30
0.0
 10
95.460722
 20
147.061046
 30
0.0
 10
95.442201
 20
147.000191
 30
0.0
 10
96.402108
 20
146.042401
 30
0.0
 10
96.479896
 20
146.082088
 30
0.0
 10
96.479896
 20
153.347538
 30
0.0
 10
96.377237
 20
153.381933
 30
0.0
 10
96.159486
 20
153.500996
 30
0.0
 10
95.963959
 20
153.651808
 30
0.0
 10
95.796213
 20
153.834370
 30
0.0
 10
95.660482
 20
154.043391
 30
0.0
 10
95.560999
 20
154.268286
 30
0.0
 10
95.500409
 20
154.509057
 30
0.0
 10
95.479772
 20
154.757765
 30
0.0
 10
95.500409
 20
155.003827
 30
0.0
 10
95.560999
 20
155.244598
 30
0.0
 10
95.660482
 20
155.469493
 30
0.0
 10
95.796213
 20
155.678514
 30
0.0
 10
95.963959
 20
155.861076
 30
0.0
 10
96.159486
 20
156.011888
 30
0.0
 10
96.377237
 20
156.130951
 30
0.0
 10
96.611658
 20
156.210326
 30
0.0
 10
96.855868
 20
156.252659
 30
0.0
 10
97.103782
 20
156.252659
 30
0.0
 10
97.347992
 20
156.210326
 30
0.0
 10
97.582413
 20
156.130951
 30
0.0
 10
97.800165
 20
156.011888
 30
0.0
 10
97.995692
 20
155.861076
 30
0.0
 10
98.163437
 20
155.678514
 30
0.0
 10
98.298904
 20
155.469493
 30
0.0
 10
98.398651
 20
155.244598
 30
0.0
 10
98.459241
 20
155.003827
 30
0.0
 10
98.479878
 20
154.757765
 30
0.0
 10
98.459241
 20
154.509057
 30
0.0
 10
98.398651
 20
154.268286
 30
0.0
 10
98.298904
 20
154.043391
 30
0.0
 10
98.163437
 20
153.834370
 30
0.0
 10
97.995692
 20
153.651808
 30
0.0
 10
97.800165
 20
153.500996
 30
0.0
 10
97.582413
 20
153.381933
 30
0.0
 10
97.479755
 20
153.347538
 30
0.0
 10
97.479755
 20
146.219672
 30
0.0
 10
97.537169
 20
146.211734
 30
0.0
 10
97.771325
 20
146.129713
 30
0.0
 10
97.989342
 20
146.013297
 30
0.0
 10
98.184868
 20
145.859839
 30
0.0
 10
98.352614
 20
145.677276
 30
0.0
 10
98.488080
 20
145.470902
 30
0.0
 10
98.534383
 20
145.365069
 30
0.0
 10
106.020759
 20
145.365069
 30
0.0
 10
108.755753
 20
145.365069
 30
0.0
 10
108.849680
 20
145.579381
 30
0.0
 10
108.985146
 20
145.785755
 30
0.0
 10
109.152892
 20
145.968318
 30
0.0
 10
109.348419
 20
146.121776
 30
0.0
 10
109.566171
 20
146.238192
 30
0.0
 10
109.778895
 20
146.312276
 30
0.0
 10
109.778895
 20
153.456017
 30
0.0
 10
109.676237
 20
153.490412
 30
0.0
 10
109.458485
 20
153.609475
 30
0.0
 10
109.262959
 20
153.760287
 30
0.0
 10
109.095213
 20
153.942849
 30
0.0
 10
108.959482
 20
154.151870
 30
0.0
 10
108.859999
 20
154.376765
 30
0.0
 10
108.799145
 20
154.617536
 30
0.0
 10
108.778772
 20
154.866244
 30
0.0
 10
108.799145
 20
155.112306
 30
0.0
 10
108.859999
 20
155.353077
 30
0.0
 10
108.928526
 20
155.509181
 30
0.0
 10
108.871640
 20
155.564743
 30
0.0
 10
108.291939
 20
155.564743
 30
0.0
 10
108.198012
 20
155.350431
 30
0.0
 10
108.062546
 20
155.144056
 30
0.0
 10
107.894800
 20
154.961494
 30
0.0
 10
107.699273
 20
154.808036
 30
0.0
 10
107.481257
 20
154.691619
 30
0.0
 10
107.247101
 20
154.609599
 30
0.0
 10
107.002626
 20
154.569911
 30
0.0
 10
106.754976
 20
154.569911
 30
0.0
 10
106.510502
 20
154.609599
 30
0.0
 10
106.276346
 20
154.691619
 30
0.0
 10
106.058329
 20
154.808036
 30
0.0
 10
105.862802
 20
154.961494
 30
0.0
 10
105.695057
 20
155.144056
 30
0.0
 10
105.559590
 20
155.350431
 30
0.0
 10
105.460107
 20
155.577972
 30
0.0
 10
105.399253
 20
155.818743
 30
0.0
 10
105.378880
 20
156.064805
 30
0.0
 10
105.399253
 20
156.310867
 30
0.0
 10
105.460107
 20
156.551638
 30
0.0
 10
105.559590
 20
156.779179
 30
0.0
 10
105.695057
 20
156.985554
 30
0.0
 10
105.862802
 20
157.168116
 30
0.0
 10
106.058329
 20
157.321574
 30
0.0
 10
106.276346
 20
157.437991
 30
0.0
 10
106.510502
 20
157.520012
 30
0.0
 10
106.754976
 20
157.559699
 30
0.0
 10
107.002626
 20
157.559699
 30
0.0
  0
LWPOLYLINE
  5
285
100
AcDbEntity
  8
Calque_1
 62
7
100
AcDbPolyline
 90
90
 70
1
 10
107.248159
 20
162.118464
 30
0.0
 10
107.482315
 20
162.039089
 30
0.0
 10
107.700331
 20
161.920027
 30
0.0
 10
107.895858
 20
161.769215
 30
0.0
 10
108.063604
 20
161.586652
 30
0.0
 10
108.199070
 20
161.377632
 30
0.0
 10
108.292733
 20
161.165965
 30
0.0
 10
116.724199
 20
161.165965
 30
0.0
 10
116.789551
 20
161.160674
 30
0.0
 10
116.789551
 20
161.160674
 30
0.0
 10
116.915757
 20
161.126278
 30
0.0
 10
117.028734
 20
161.062778
 30
0.0
 10
117.028734
 20
161.062778
 30
0.0
 10
117.077947
 20
161.017799
 30
0.0
 10
121.382447
 20
156.713033
 30
0.0
 10
121.425575
 20
156.665408
 30
0.0
 10
121.425575
 20
156.665408
 30
0.0
 10
121.485635
 20
156.559575
 30
0.0
 10
121.490662
 20
156.551638
 30
0.0
 10
121.524529
 20
156.424638
 30
0.0
 10
121.524529
 20
156.424638
 30
0.0
 10
121.528762
 20
156.361138
 30
0.0
 10
121.528762
 20
156.009243
 30
0.0
 10
121.528762
 20
134.400749
 30
0.0
 10
121.631420
 20
134.366353
 30
0.0
 10
121.849172
 20
134.247291
 30
0.0
 10
122.044699
 20
134.096479
 30
0.0
 10
122.212444
 20
133.913916
 30
0.0
 10
122.347911
 20
133.707542
 30
0.0
 10
122.447394
 20
133.480000
 30
0.0
 10
122.508248
 20
133.239230
 30
0.0
 10
122.528886
 20
132.993167
 30
0.0
 10
122.508248
 20
132.744459
 30
0.0
 10
122.447394
 20
132.506335
 30
0.0
 10
122.347911
 20
132.278793
 30
0.0
 10
122.212444
 20
132.072419
 30
0.0
 10
122.044699
 20
131.889856
 30
0.0
 10
121.849172
 20
131.736398
 30
0.0
 10
121.631420
 20
131.619982
 30
0.0
 10
121.397000
 20
131.537961
 30
0.0
 10
121.152789
 20
131.498273
 30
0.0
 10
120.904875
 20
131.498273
 30
0.0
 10
120.660665
 20
131.537961
 30
0.0
 10
120.426245
 20
131.619982
 30
0.0
 10
120.208493
 20
131.736398
 30
0.0
 10
120.012966
 20
131.889856
 30
0.0
 10
119.844956
 20
132.072419
 30
0.0
 10
119.709489
 20
132.278793
 30
0.0
 10
119.610006
 20
132.506335
 30
0.0
 10
119.549152
 20
132.744459
 30
0.0
 10
119.528779
 20
132.993167
 30
0.0
 10
119.549152
 20
133.239230
 30
0.0
 10
119.610006
 20
133.480000
 30
0.0
 10
119.709489
 20
133.707542
 30
0.0
 10
119.844956
 20
133.913916
 30
0.0
 10
120.012966
 20
134.096479
 30
0.0
 10
120.208493
 20
134.247291
 30
0.0
 10
120.426245
 20
134.366353
 30
0.0
 10
120.528903
 20
134.400749
 30
0.0
 10
120.528903
 20
156.009243
 30
0.0
 10
120.528903
 20
156.152117
 30
0.0
 10
116.517295
 20
160.165842
 30
0.0
 10
108.292733
 20
160.165842
 30
0.0
 10
108.199070
 20
159.951529
 30
0.0
 10
108.063604
 20
159.742509
 30
0.0
 10
107.895858
 20
159.562592
 30
0.0
 10
107.700331
 20
159.409134
 30
0.0
 10
107.482315
 20
159.290072
 30
0.0
 10
107.248159
 20
159.210697
 30
0.0
 10
107.003684
 20
159.171009
 30
0.0
 10
106.756035
 20
159.171009
 30
0.0
 10
106.511560
 20
159.210697
 30
0.0
 10
106.277139
 20
159.290072
 30
0.0
 10
106.059388
 20
159.409134
 30
0.0
 10
105.863861
 20
159.562592
 30
0.0
 10
105.696115
 20
159.742509
 30
0.0
 10
105.560649
 20
159.951529
 30
0.0
 10
105.461165
 20
160.179071
 30
0.0
 10
105.400311
 20
160.417195
 30
0.0
 10
105.379938
 20
160.665903
 30
0.0
 10
105.400311
 20
160.911966
 30
0.0
 10
105.461165
 20
161.152736
 30
0.0
 10
105.560649
 20
161.377632
 30
0.0
 10
105.696115
 20
161.586652
 30
0.0
 10
105.863861
 20
161.769215
 30
0.0
 10
106.059388
 20
161.920027
 30
0.0
 10
106.277139
 20
162.039089
 30
0.0
 10
106.511560
 20
162.118464
 30
0.0
 10
106.756035
 20
162.160797
 30
0.0
 10
107.003684
 20
162.160797
 30
0.0
  0
LWPOLYLINE
  5
286
100
AcDbEntity
  8
Calque_1
 62
7
100
AcDbPolyline
 90
38
 70
1
 10
100.748148
 20
157.411532
 30
0.0
 10
100.982304
 20
157.329512
 30
0.0
 10
101.200321
 20
157.213095
 30
0.0
 10
101.395848
 20
157.059637
 30
0.0
 10
101.563593
 20
156.877075
 30
0.0
 10
101.699060
 20
156.670700
 30
0.0
 10
101.798543
 20
156.443159
 30
0.0
 10
101.859397
 20
156.202388
 30
0.0
 10
101.879770
 20
155.956326
 30
0.0
 10
101.859397
 20
155.710264
 30
0.0
 10
101.798543
 20
155.469493
 30
0.0
 10
101.699060
 20
155.241952
 30
0.0
 10
101.563593
 20
155.035577
 30
0.0
 10
101.395848
 20
154.853015
 30
0.0
 10
101.200321
 20
154.699557
 30
0.0
 10
100.982304
 20
154.583140
 30
0.0
 10
100.748148
 20
154.501119
 30
0.0
 10
100.503674
 20
154.461432
 30
0.0
 10
100.256024
 20
154.461432
 30
0.0
 10
100.011549
 20
154.501119
 30
0.0
 10
99.777393
 20
154.583140
 30
0.0
 10
99.559377
 20
154.699557
 30
0.0
 10
99.363850
 20
154.853015
 30
0.0
 10
99.196105
 20
155.035577
 30
0.0
 10
99.060638
 20
155.241952
 30
0.0
 10
98.961155
 20
155.469493
 30
0.0
 10
98.900301
 20
155.710264
 30
0.0
 10
98.879928
 20
155.956326
 30
0.0
 10
98.900301
 20
156.202388
 30
0.0
 10
98.961155
 20
156.443159
 30
0.0
 10
99.060638
 20
156.670700
 30
0.0
 10
99.196105
 20
156.877075
 30
0.0
 10
99.363850
 20
157.059637
 30
0.0
 10
99.559377
 20
157.213095
 30
0.0
 10
99.777393
 20
157.329512
 30
0.0
 10
100.011549
 20
157.411532
 30
0.0
 10
100.256024
 20
157.451220
 30
0.0
 10
100.503674
 20
157.451220
 30
0.0
  0
LWPOLYLINE
  5
287
100
AcDbEntity
  8
Calque_1
 62
7
100
AcDbPolyline
 90
79
 70
1
 10
88.889009
 20
163.584254
 30
0.0
 10
89.123430
 20
163.504879
 30
0.0
 10
89.341182
 20
163.385817
 30
0.0
 10
89.536708
 20
163.235004
 30
0.0
 10
89.704454
 20
163.052442
 30
0.0
 10
89.839921
 20
162.843421
 30
0.0
 10
89.933848
 20
162.631755
 30
0.0
 10
98.805845
 20
162.631755
 30
0.0
 10
98.871197
 20
162.626463
 30
0.0
 10
98.871197
 20
162.626463
 30
0.0
 10
98.997138
 20
162.592068
 30
0.0
 10
99.110115
 20
162.525922
 30
0.0
 10
99.110115
 20
162.525922
 30
0.0
 10
99.159328
 20
162.483589
 30
0.0
 10
99.735854
 20
161.906798
 30
0.0
 10
99.777393
 20
161.930610
 30
0.0
 10
100.011549
 20
162.009985
 30
0.0
 10
100.256024
 20
162.052318
 30
0.0
 10
100.503674
 20
162.052318
 30
0.0
 10
100.748148
 20
162.009985
 30
0.0
 10
100.982304
 20
161.930610
 30
0.0
 10
101.200321
 20
161.811548
 30
0.0
 10
101.395848
 20
161.660735
 30
0.0
 10
101.563593
 20
161.478173
 30
0.0
 10
101.699060
 20
161.269153
 30
0.0
 10
101.798543
 20
161.044257
 30
0.0
 10
101.859397
 20
160.803487
 30
0.0
 10
101.879770
 20
160.557424
 30
0.0
 10
101.859397
 20
160.308716
 30
0.0
 10
101.798543
 20
160.070592
 30
0.0
 10
101.699060
 20
159.843050
 30
0.0
 10
101.563593
 20
159.634030
 30
0.0
 10
101.395848
 20
159.454113
 30
0.0
 10
101.200321
 20
159.300655
 30
0.0
 10
100.982304
 20
159.181593
 30
0.0
 10
100.748148
 20
159.102218
 30
0.0
 10
100.503674
 20
159.062530
 30
0.0
 10
100.256024
 20
159.062530
 30
0.0
 10
100.011549
 20
159.102218
 30
0.0
 10
99.777393
 20
159.181593
 30
0.0
 10
99.559377
 20
159.300655
 30
0.0
 10
99.363850
 20
159.454113
 30
0.0
 10
99.196105
 20
159.634030
 30
0.0
 10
99.060638
 20
159.843050
 30
0.0
 10
98.961155
 20
160.070592
 30
0.0
 10
98.900301
 20
160.308716
 30
0.0
 10
98.879928
 20
160.557424
 30
0.0
 10
98.900301
 20
160.803487
 30
0.0
 10
98.961155
 20
161.044257
 30
0.0
 10
99.029682
 20
161.200361
 30
0.0
 10
98.598676
 20
161.631631
 30
0.0
 10
89.933848
 20
161.631631
 30
0.0
 10
89.839921
 20
161.417319
 30
0.0
 10
89.704454
 20
161.208299
 30
0.0
 10
89.536708
 20
161.025736
 30
0.0
 10
89.341182
 20
160.874924
 30
0.0
 10
89.123430
 20
160.755862
 30
0.0
 10
88.889009
 20
160.676487
 30
0.0
 10
88.644799
 20
160.636799
 30
0.0
 10
88.396885
 20
160.636799
 30
0.0
 10
88.152675
 20
160.676487
 30
0.0
 10
87.918254
 20
160.755862
 30
0.0
 10
87.700502
 20
160.874924
 30
0.0
 10
87.504976
 20
161.025736
 30
0.0
 10
87.337230
 20
161.208299
 30
0.0
 10
87.201499
 20
161.417319
 30
0.0
 10
87.102016
 20
161.642215
 30
0.0
 10
87.041162
 20
161.882985
 30
0.0
 10
87.020789
 20
162.131693
 30
0.0
 10
87.041162
 20
162.377755
 30
0.0
 10
87.102016
 20
162.618526
 30
0.0
 10
87.201499
 20
162.843421
 30
0.0
 10
87.337230
 20
163.052442
 30
0.0
 10
87.504976
 20
163.235004
 30
0.0
 10
87.700502
 20
163.385817
 30
0.0
 10
87.918254
 20
163.504879
 30
0.0
 10
88.152675
 20
163.584254
 30
0.0
 10
88.396885
 20
163.626587
 30
0.0
 10
88.644799
 20
163.626587
 30
0.0
  0
ENDSEC
  0
SECTION
  2
OBJECTS
  0
DICTIONARY
  5
C
330
0
100
AcDbDictionary
  3
ACAD_GROUP
350
D
  3
ACAD_MLINESTYLE
350
17
  0
DICTIONARY
  5
D
330
C
100
AcDbDictionary
  0
DICTIONARY
  5
1A
330
C
100
AcDbDictionary
  0
DICTIONARY
  5
17
330
C
100
AcDbDictionary
  3
STANDARD
350
18
  0
DICTIONARY
  5
19
330
C
100
AcDbDictionary
  0
ENDSEC
  0
EOF
