  0
SECTION
  2
HEADER
  9
$ANGBASE
  50
0.0
  9
$ANGDIR
  70
1
  9
$MEASUREMENT
  70
1
  0
ENDSEC
  0
SECTION
  2
TABLES
  0
TABLE
  2
LTYPE
  70
4
  0
LTYPE
  5
40F
  2
CONTINUOUS
  70
0
  3
Solid line
  72
65
  73
0
  40
0.0
  0
LTYPE
  5
410
  2
DASHDOT
 70
0
  3
Dash Dot ____ _ ____ _
 72
65
 73
4
 40
2.0
 49
1.25
 49
-0.25
 49
0.25
 49
-0.25
  0
LTYPE
  5
411
  2
DASHED
 70
0
  3
Dashed __ __ __ __ __
 72
65
 73
2
 40
0.75
 49
0.5
 49
-0.25
  0
LTYPE
  5
43B
  2
DOTTED
 70
0
  3
Dotted .  .  .  .
 72
65
 73
2
 40
0.2
 49
0.0
 49
-0.2
  0
ENDTAB
  0
TABLE
  2
STYLE
  70
4
  0
STYLE
  2
KICAD
  70
0
  40
0
  41
1
  42
1
  50
0
  71
0
  3
isocp.shx
  0
STYLE
  2
KICADB
  70
0
  40
0
  41
1
  42
1
  50
0
  71
0
  3
isocp.shx
  0
STYLE
  2
KICADI
  70
0
  40
0
  41
1
  42
1
  50
15
  71
0
  3
isocp.shx
  0
STYLE
  2
KICADBI
  70
0
  40
0
  41
1
  42
1
  50
15
  71
0
  3
isocp.shx
  0
ENDTAB
  0
TABLE
  2
LAYER
  70
1
  0
LAYER
  2
BLACK
  70
0
  62
7
  6
CONTINUOUS
  0
ENDTAB
  0
ENDSEC
  0
SECTION
  2
ENTITIES
0
LINE
8
BLACK
6
CONTINUOUS
10
149.3293970000000002
20
-120.6923309999999958
11
149.5735289999999793
21
-120.7509419999999949
0
LINE
8
BLACK
6
CONTINUOUS
10
149.5735289999999793
20
-120.7509419999999949
11
149.8054869999999994
21
-120.8470219999999955
0
LINE
8
BLACK
6
CONTINUOUS
10
149.8054869999999994
20
-120.8470219999999955
11
150.0195579999999893
21
-120.9782049999999884
0
LINE
8
BLACK
6
CONTINUOUS
10
150.0195579999999893
20
-120.9782049999999884
11
150.210472999999979
21
-121.1412610000000001
0
LINE
8
BLACK
6
CONTINUOUS
10
150.210472999999979
20
-121.1412610000000001
11
150.3735289999999907
21
-121.3321759999999898
0
LINE
8
BLACK
6
CONTINUOUS
10
150.3735289999999907
20
-121.3321759999999898
11
150.5047119999999836
21
-121.5462469999999939
0
LINE
8
BLACK
6
CONTINUOUS
10
150.5047119999999836
20
-121.5462469999999939
11
150.6007919999999842
21
-121.7782049999999998
0
LINE
8
BLACK
6
CONTINUOUS
10
150.6007919999999842
20
-121.7782049999999998
11
150.6594029999999975
21
-122.0223369999999932
0
LINE
8
BLACK
6
CONTINUOUS
10
150.6594029999999975
20
-122.0223369999999932
11
150.6791020000000003
21
-122.2726320000000015
0
LINE
8
BLACK
6
CONTINUOUS
10
150.6791020000000003
20
-122.2726320000000015
11
150.6594029999999975
21
-122.5229269999999957
0
LINE
8
BLACK
6
CONTINUOUS
10
150.6594029999999975
20
-122.5229269999999957
11
150.6007919999999842
21
-122.7670589999999891
0
LINE
8
BLACK
6
CONTINUOUS
10
150.6007919999999842
20
-122.7670589999999891
11
150.5047119999999836
21
-122.9990169999999949
0
LINE
8
BLACK
6
CONTINUOUS
10
150.5047119999999836
20
-122.9990169999999949
11
150.3735289999999907
21
-123.2130879999999991
0
LINE
8
BLACK
6
CONTINUOUS
10
150.3735289999999907
20
-123.2130879999999991
11
150.210472999999979
21
-123.4040029999999888
0
LINE
8
BLACK
6
CONTINUOUS
10
150.210472999999979
20
-123.4040029999999888
11
150.0195579999999893
21
-123.5670590000000004
0
LINE
8
BLACK
6
CONTINUOUS
10
150.0195579999999893
20
-123.5670590000000004
11
149.8054869999999994
21
-123.6982419999999934
0
LINE
8
BLACK
6
CONTINUOUS
10
149.8054869999999994
20
-123.6982419999999934
11
149.5735289999999793
21
-123.794321999999994
0
LINE
8
BLACK
6
CONTINUOUS
10
149.5735289999999793
20
-123.794321999999994
11
149.3293970000000002
21
-123.8529329999999931
0
LINE
8
BLACK
6
CONTINUOUS
10
149.3293970000000002
20
-123.8529329999999931
11
149.079102000000006
21
-123.8726319999999959
0
LINE
8
BLACK
6
CONTINUOUS
10
149.079102000000006
20
-123.8726319999999959
11
148.8288069999999834
21
-123.8529329999999931
0
LINE
8
BLACK
6
CONTINUOUS
10
148.8288069999999834
20
-123.8529329999999931
11
148.5846750000000043
21
-123.794321999999994
0
LINE
8
BLACK
6
CONTINUOUS
10
148.5846750000000043
20
-123.794321999999994
11
148.3527169999999842
21
-123.6982419999999934
0
LINE
8
BLACK
6
CONTINUOUS
10
148.3527169999999842
20
-123.6982419999999934
11
148.1386459999999943
21
-123.5670590000000004
0
LINE
8
BLACK
6
CONTINUOUS
10
148.1386459999999943
20
-123.5670590000000004
11
147.9477310000000045
21
-123.4040029999999888
0
LINE
8
BLACK
6
CONTINUOUS
10
147.9477310000000045
20
-123.4040029999999888
11
147.7846749999999929
21
-123.2130879999999991
0
LINE
8
BLACK
6
CONTINUOUS
10
147.7846749999999929
20
-123.2130879999999991
11
147.653492
21
-122.9990169999999949
0
LINE
8
BLACK
6
CONTINUOUS
10
147.653492
20
-122.9990169999999949
11
147.5574119999999994
21
-122.7670589999999891
0
LINE
8
BLACK
6
CONTINUOUS
10
147.5574119999999994
20
-122.7670589999999891
11
147.4988009999999861
21
-122.5229269999999957
0
LINE
8
BLACK
6
CONTINUOUS
10
147.4988009999999861
20
-122.5229269999999957
11
147.4791019999999833
21
-122.2726320000000015
0
LINE
8
BLACK
6
CONTINUOUS
10
147.4791019999999833
20
-122.2726320000000015
11
147.4988009999999861
21
-122.0223369999999932
0
LINE
8
BLACK
6
CONTINUOUS
10
147.4988009999999861
20
-122.0223369999999932
11
147.5574119999999994
21
-121.7782049999999998
0
LINE
8
BLACK
6
CONTINUOUS
10
147.5574119999999994
20
-121.7782049999999998
11
147.653492
21
-121.5462469999999939
0
LINE
8
BLACK
6
CONTINUOUS
10
147.653492
20
-121.5462469999999939
11
147.7846749999999929
21
-121.3321759999999898
0
LINE
8
BLACK
6
CONTINUOUS
10
147.7846749999999929
20
-121.3321759999999898
11
147.9477310000000045
21
-121.1412610000000001
0
LINE
8
BLACK
6
CONTINUOUS
10
147.9477310000000045
20
-121.1412610000000001
11
148.1386459999999943
21
-120.9782049999999884
0
LINE
8
BLACK
6
CONTINUOUS
10
148.1386459999999943
20
-120.9782049999999884
11
148.3527169999999842
21
-120.8470219999999955
0
LINE
8
BLACK
6
CONTINUOUS
10
148.3527169999999842
20
-120.8470219999999955
11
148.5846750000000043
21
-120.7509419999999949
0
LINE
8
BLACK
6
CONTINUOUS
10
148.5846750000000043
20
-120.7509419999999949
11
148.8288069999999834
21
-120.6923309999999958
0
LINE
8
BLACK
6
CONTINUOUS
10
148.8288069999999834
20
-120.6923309999999958
11
149.079102000000006
21
-120.672631999999993
0
LINE
8
BLACK
6
CONTINUOUS
10
149.079102000000006
20
-120.672631999999993
11
149.3293970000000002
21
-120.6923309999999958
0
LINE
8
BLACK
6
CONTINUOUS
10
147.6934640000000059
20
-122.5038539999999898
11
147.7504199999999912
21
-122.7287689999999998
0
LINE
8
BLACK
6
CONTINUOUS
10
147.7504199999999912
20
-122.7287689999999998
11
147.8436189999999897
21
-122.9412419999999884
0
LINE
8
BLACK
6
CONTINUOUS
10
147.8436189999999897
20
-122.9412419999999884
11
147.9705189999999959
21
-123.1354769999999945
0
LINE
8
BLACK
6
CONTINUOUS
10
147.9705189999999959
20
-123.1354769999999945
11
148.1276579999999967
21
-123.3061749999999961
0
LINE
8
BLACK
6
CONTINUOUS
10
148.1276579999999967
20
-123.3061749999999961
11
148.3107499999999845
21
-123.4486819999999909
0
LINE
8
BLACK
6
CONTINUOUS
10
148.3107499999999845
20
-123.4486819999999909
11
148.5148010000000056
21
-123.5591089999999923
0
LINE
8
BLACK
6
CONTINUOUS
10
148.5148010000000056
20
-123.5591089999999923
11
148.7342439999999897
21
-123.6344439999999878
0
LINE
8
BLACK
6
CONTINUOUS
10
148.7342439999999897
20
-123.6344439999999878
11
148.9630949999999814
21
-123.672631999999993
0
LINE
8
BLACK
6
CONTINUOUS
10
148.9630949999999814
20
-123.672631999999993
11
149.1951090000000022
21
-123.672631999999993
0
LINE
8
BLACK
6
CONTINUOUS
10
149.1951090000000022
20
-123.672631999999993
11
149.4239599999999939
21
-123.6344439999999878
0
LINE
8
BLACK
6
CONTINUOUS
10
149.4239599999999939
20
-123.6344439999999878
11
149.6434030000000064
21
-123.5591089999999923
0
LINE
8
BLACK
6
CONTINUOUS
10
149.6434030000000064
20
-123.5591089999999923
11
149.847453999999999
21
-123.4486819999999909
0
LINE
8
BLACK
6
CONTINUOUS
10
149.847453999999999
20
-123.4486819999999909
11
150.0305459999999869
21
-123.3061749999999961
0
LINE
8
BLACK
6
CONTINUOUS
10
150.0305459999999869
20
-123.3061749999999961
11
150.1876849999999877
21
-123.1354769999999945
0
LINE
8
BLACK
6
CONTINUOUS
10
150.1876849999999877
20
-123.1354769999999945
11
150.3145849999999939
21
-122.9412419999999884
0
LINE
8
BLACK
6
CONTINUOUS
10
150.3145849999999939
20
-122.9412419999999884
11
150.4077839999999924
21
-122.7287689999999998
0
LINE
8
BLACK
6
CONTINUOUS
10
150.4077839999999924
20
-122.7287689999999998
11
150.4647400000000061
21
-122.5038539999999898
0
LINE
8
BLACK
6
CONTINUOUS
10
150.4647400000000061
20
-122.5038539999999898
11
150.4839000000000055
21
-122.2726320000000015
0
LINE
8
BLACK
6
CONTINUOUS
10
150.4839000000000055
20
-122.2726320000000015
11
150.4647400000000061
21
-122.0414099999999991
0
LINE
8
BLACK
6
CONTINUOUS
10
150.4647400000000061
20
-122.0414099999999991
11
150.4077839999999924
21
-121.8164949999999891
0
LINE
8
BLACK
6
CONTINUOUS
10
150.4077839999999924
20
-121.8164949999999891
11
150.3145849999999939
21
-121.6040220000000005
0
LINE
8
BLACK
6
CONTINUOUS
10
150.3145849999999939
20
-121.6040220000000005
11
150.1876849999999877
21
-121.4097869999999944
0
LINE
8
BLACK
6
CONTINUOUS
10
150.1876849999999877
20
-121.4097869999999944
11
150.0305459999999869
21
-121.2390889999999928
0
LINE
8
BLACK
6
CONTINUOUS
10
150.0305459999999869
20
-121.2390889999999928
11
149.847453999999999
21
-121.0965819999999979
0
LINE
8
BLACK
6
CONTINUOUS
10
149.847453999999999
20
-121.0965819999999979
11
149.6434030000000064
21
-120.9861549999999966
0
LINE
8
BLACK
6
CONTINUOUS
10
149.6434030000000064
20
-120.9861549999999966
11
149.4239599999999939
21
-120.9108200000000011
0
LINE
8
BLACK
6
CONTINUOUS
10
149.4239599999999939
20
-120.9108200000000011
11
149.1951090000000022
21
-120.8726319999999959
0
LINE
8
BLACK
6
CONTINUOUS
10
149.1951090000000022
20
-120.8726319999999959
11
148.9630949999999814
21
-120.8726319999999959
0
LINE
8
BLACK
6
CONTINUOUS
10
148.9630949999999814
20
-120.8726319999999959
11
148.7342439999999897
21
-120.9108200000000011
0
LINE
8
BLACK
6
CONTINUOUS
10
148.7342439999999897
20
-120.9108200000000011
11
148.5148010000000056
21
-120.9861549999999966
0
LINE
8
BLACK
6
CONTINUOUS
10
148.5148010000000056
20
-120.9861549999999966
11
148.3107499999999845
21
-121.0965819999999979
0
LINE
8
BLACK
6
CONTINUOUS
10
148.3107499999999845
20
-121.0965819999999979
11
148.1276579999999967
21
-121.2390889999999928
0
LINE
8
BLACK
6
CONTINUOUS
10
148.1276579999999967
20
-121.2390889999999928
11
147.9705189999999959
21
-121.4097869999999944
0
LINE
8
BLACK
6
CONTINUOUS
10
147.9705189999999959
20
-121.4097869999999944
11
147.8436189999999897
21
-121.6040220000000005
0
LINE
8
BLACK
6
CONTINUOUS
10
147.8436189999999897
20
-121.6040220000000005
11
147.7504199999999912
21
-121.8164949999999891
0
LINE
8
BLACK
6
CONTINUOUS
10
147.7504199999999912
20
-121.8164949999999891
11
147.6934640000000059
21
-122.0414099999999991
0
LINE
8
BLACK
6
CONTINUOUS
10
147.6934640000000059
20
-122.0414099999999991
11
147.6743040000000065
21
-122.2726320000000015
0
LINE
8
BLACK
6
CONTINUOUS
10
147.6743040000000065
20
-122.2726320000000015
11
147.6934640000000059
21
-122.5038539999999898
0
LINE
8
BLACK
6
CONTINUOUS
10
128.1057109999999852
20
-99.4686449999999951
11
128.3498429999999928
21
-99.5272559999999942
0
LINE
8
BLACK
6
CONTINUOUS
10
128.3498429999999928
20
-99.5272559999999942
11
128.5818009999999845
21
-99.6233359999999948
0
LINE
8
BLACK
6
CONTINUOUS
10
128.5818009999999845
20
-99.6233359999999948
11
128.7958720000000028
21
-99.7545190000000019
0
LINE
8
BLACK
6
CONTINUOUS
10
128.7958720000000028
20
-99.7545190000000019
11
128.9867869999999925
21
-99.9175749999999994
0
LINE
8
BLACK
6
CONTINUOUS
10
128.9867869999999925
20
-99.9175749999999994
11
129.1498430000000042
21
-100.1084899999999891
0
LINE
8
BLACK
6
CONTINUOUS
10
129.1498430000000042
20
-100.1084899999999891
11
129.2810259999999971
21
-100.3225609999999932
0
LINE
8
BLACK
6
CONTINUOUS
10
129.2810259999999971
20
-100.3225609999999932
11
129.3771059999999977
21
-100.5545189999999991
0
LINE
8
BLACK
6
CONTINUOUS
10
129.3771059999999977
20
-100.5545189999999991
11
129.4357169999999826
21
-100.7986509999999925
0
LINE
8
BLACK
6
CONTINUOUS
10
129.4357169999999826
20
-100.7986509999999925
11
129.4554159999999854
21
-101.0489460000000008
0
LINE
8
BLACK
6
CONTINUOUS
10
129.4554159999999854
20
-101.0489460000000008
11
129.4357169999999826
21
-101.299240999999995
0
LINE
8
BLACK
6
CONTINUOUS
10
129.4357169999999826
20
-101.299240999999995
11
129.3771059999999977
21
-101.5433729999999883
0
LINE
8
BLACK
6
CONTINUOUS
10
129.3771059999999977
20
-101.5433729999999883
11
129.2810259999999971
21
-101.7753309999999942
0
LINE
8
BLACK
6
CONTINUOUS
10
129.2810259999999971
20
-101.7753309999999942
11
129.1498430000000042
21
-101.9894019999999983
0
LINE
8
BLACK
6
CONTINUOUS
10
129.1498430000000042
20
-101.9894019999999983
11
128.9867869999999925
21
-102.1803170000000023
0
LINE
8
BLACK
6
CONTINUOUS
10
128.9867869999999925
20
-102.1803170000000023
11
128.7958720000000028
21
-102.3433729999999997
0
LINE
8
BLACK
6
CONTINUOUS
10
128.7958720000000028
20
-102.3433729999999997
11
128.5818009999999845
21
-102.4745559999999927
0
LINE
8
BLACK
6
CONTINUOUS
10
128.5818009999999845
20
-102.4745559999999927
11
128.3498429999999928
21
-102.5706359999999933
0
LINE
8
BLACK
6
CONTINUOUS
10
128.3498429999999928
20
-102.5706359999999933
11
128.1057109999999852
21
-102.6292469999999923
0
LINE
8
BLACK
6
CONTINUOUS
10
128.1057109999999852
20
-102.6292469999999923
11
127.8554159999999911
21
-102.6489459999999951
0
LINE
8
BLACK
6
CONTINUOUS
10
127.8554159999999911
20
-102.6489459999999951
11
127.6051209999999969
21
-102.6292469999999923
0
LINE
8
BLACK
6
CONTINUOUS
10
127.6051209999999969
20
-102.6292469999999923
11
127.3609889999999893
21
-102.5706359999999933
0
LINE
8
BLACK
6
CONTINUOUS
10
127.3609889999999893
20
-102.5706359999999933
11
127.1290309999999977
21
-102.4745559999999927
0
LINE
8
BLACK
6
CONTINUOUS
10
127.1290309999999977
20
-102.4745559999999927
11
126.9149599999999936
21
-102.3433729999999997
0
LINE
8
BLACK
6
CONTINUOUS
10
126.9149599999999936
20
-102.3433729999999997
11
126.7240449999999896
21
-102.1803170000000023
0
LINE
8
BLACK
6
CONTINUOUS
10
126.7240449999999896
20
-102.1803170000000023
11
126.5609889999999922
21
-101.9894019999999983
0
LINE
8
BLACK
6
CONTINUOUS
10
126.5609889999999922
20
-101.9894019999999983
11
126.4298059999999992
21
-101.7753309999999942
0
LINE
8
BLACK
6
CONTINUOUS
10
126.4298059999999992
20
-101.7753309999999942
11
126.3337259999999986
21
-101.5433729999999883
0
LINE
8
BLACK
6
CONTINUOUS
10
126.3337259999999986
20
-101.5433729999999883
11
126.2751149999999996
21
-101.299240999999995
0
LINE
8
BLACK
6
CONTINUOUS
10
126.2751149999999996
20
-101.299240999999995
11
126.2554159999999968
21
-101.0489460000000008
0
LINE
8
BLACK
6
CONTINUOUS
10
126.2554159999999968
20
-101.0489460000000008
11
126.2751149999999996
21
-100.7986509999999925
0
LINE
8
BLACK
6
CONTINUOUS
10
126.2751149999999996
20
-100.7986509999999925
11
126.3337259999999986
21
-100.5545189999999991
0
LINE
8
BLACK
6
CONTINUOUS
10
126.3337259999999986
20
-100.5545189999999991
11
126.4298059999999992
21
-100.3225609999999932
0
LINE
8
BLACK
6
CONTINUOUS
10
126.4298059999999992
20
-100.3225609999999932
11
126.5609889999999922
21
-100.1084899999999891
0
LINE
8
BLACK
6
CONTINUOUS
10
126.5609889999999922
20
-100.1084899999999891
11
126.7240449999999896
21
-99.9175749999999994
0
LINE
8
BLACK
6
CONTINUOUS
10
126.7240449999999896
20
-99.9175749999999994
11
126.9149599999999936
21
-99.7545190000000019
0
LINE
8
BLACK
6
CONTINUOUS
10
126.9149599999999936
20
-99.7545190000000019
11
127.1290309999999977
21
-99.6233359999999948
0
LINE
8
BLACK
6
CONTINUOUS
10
127.1290309999999977
20
-99.6233359999999948
11
127.3609889999999893
21
-99.5272559999999942
0
LINE
8
BLACK
6
CONTINUOUS
10
127.3609889999999893
20
-99.5272559999999942
11
127.6051209999999969
21
-99.4686449999999951
0
LINE
8
BLACK
6
CONTINUOUS
10
127.6051209999999969
20
-99.4686449999999951
11
127.8554159999999911
21
-99.4489459999999923
0
LINE
8
BLACK
6
CONTINUOUS
10
127.8554159999999911
20
-99.4489459999999923
11
128.1057109999999852
21
-99.4686449999999951
0
LINE
8
BLACK
6
CONTINUOUS
10
126.4697779999999909
20
-101.2801679999999891
11
126.5267339999999905
21
-101.5050829999999991
0
LINE
8
BLACK
6
CONTINUOUS
10
126.5267339999999905
20
-101.5050829999999991
11
126.619932999999989
21
-101.7175560000000019
0
LINE
8
BLACK
6
CONTINUOUS
10
126.619932999999989
20
-101.7175560000000019
11
126.7468329999999952
21
-101.9117909999999938
0
LINE
8
BLACK
6
CONTINUOUS
10
126.7468329999999952
20
-101.9117909999999938
11
126.903971999999996
21
-102.0824889999999954
0
LINE
8
BLACK
6
CONTINUOUS
10
126.903971999999996
20
-102.0824889999999954
11
127.087063999999998
21
-102.2249959999999902
0
LINE
8
BLACK
6
CONTINUOUS
10
127.087063999999998
20
-102.2249959999999902
11
127.2911149999999907
21
-102.3354229999999916
0
LINE
8
BLACK
6
CONTINUOUS
10
127.2911149999999907
20
-102.3354229999999916
11
127.510557999999989
21
-102.4107580000000013
0
LINE
8
BLACK
6
CONTINUOUS
10
127.510557999999989
20
-102.4107580000000013
11
127.7394089999999949
21
-102.4489459999999923
0
LINE
8
BLACK
6
CONTINUOUS
10
127.7394089999999949
20
-102.4489459999999923
11
127.9714229999999873
21
-102.4489459999999923
0
LINE
8
BLACK
6
CONTINUOUS
10
127.9714229999999873
20
-102.4489459999999923
11
128.2002740000000074
21
-102.4107580000000013
0
LINE
8
BLACK
6
CONTINUOUS
10
128.2002740000000074
20
-102.4107580000000013
11
128.4197169999999915
21
-102.3354229999999916
0
LINE
8
BLACK
6
CONTINUOUS
10
128.4197169999999915
20
-102.3354229999999916
11
128.6237679999999841
21
-102.2249959999999902
0
LINE
8
BLACK
6
CONTINUOUS
10
128.6237679999999841
20
-102.2249959999999902
11
128.8068600000000004
21
-102.0824889999999954
0
LINE
8
BLACK
6
CONTINUOUS
10
128.8068600000000004
20
-102.0824889999999954
11
128.9639990000000012
21
-101.9117909999999938
0
LINE
8
BLACK
6
CONTINUOUS
10
128.9639990000000012
20
-101.9117909999999938
11
129.0908990000000074
21
-101.7175560000000019
0
LINE
8
BLACK
6
CONTINUOUS
10
129.0908990000000074
20
-101.7175560000000019
11
129.1840980000000059
21
-101.5050829999999991
0
LINE
8
BLACK
6
CONTINUOUS
10
129.1840980000000059
20
-101.5050829999999991
11
129.2410539999999912
21
-101.2801679999999891
0
LINE
8
BLACK
6
CONTINUOUS
10
129.2410539999999912
20
-101.2801679999999891
11
129.2602139999999906
21
-101.0489460000000008
0
LINE
8
BLACK
6
CONTINUOUS
10
129.2602139999999906
20
-101.0489460000000008
11
129.2410539999999912
21
-100.8177239999999983
0
LINE
8
BLACK
6
CONTINUOUS
10
129.2410539999999912
20
-100.8177239999999983
11
129.1840980000000059
21
-100.5928089999999884
0
LINE
8
BLACK
6
CONTINUOUS
10
129.1840980000000059
20
-100.5928089999999884
11
129.0908990000000074
21
-100.3803359999999998
0
LINE
8
BLACK
6
CONTINUOUS
10
129.0908990000000074
20
-100.3803359999999998
11
128.9639990000000012
21
-100.1861009999999936
0
LINE
8
BLACK
6
CONTINUOUS
10
128.9639990000000012
20
-100.1861009999999936
11
128.8068600000000004
21
-100.0154029999999921
0
LINE
8
BLACK
6
CONTINUOUS
10
128.8068600000000004
20
-100.0154029999999921
11
128.6237679999999841
21
-99.8728959999999972
0
LINE
8
BLACK
6
CONTINUOUS
10
128.6237679999999841
20
-99.8728959999999972
11
128.4197169999999915
21
-99.7624689999999958
0
LINE
8
BLACK
6
CONTINUOUS
10
128.4197169999999915
20
-99.7624689999999958
11
128.2002740000000074
21
-99.6871340000000004
0
LINE
8
BLACK
6
CONTINUOUS
10
128.2002740000000074
20
-99.6871340000000004
11
127.9714229999999873
21
-99.6489459999999951
0
LINE
8
BLACK
6
CONTINUOUS
10
127.9714229999999873
20
-99.6489459999999951
11
127.7394089999999949
21
-99.6489459999999951
0
LINE
8
BLACK
6
CONTINUOUS
10
127.7394089999999949
20
-99.6489459999999951
11
127.510557999999989
21
-99.6871340000000004
0
LINE
8
BLACK
6
CONTINUOUS
10
127.510557999999989
20
-99.6871340000000004
11
127.2911149999999907
21
-99.7624689999999958
0
LINE
8
BLACK
6
CONTINUOUS
10
127.2911149999999907
20
-99.7624689999999958
11
127.087063999999998
21
-99.8728959999999972
0
LINE
8
BLACK
6
CONTINUOUS
10
127.087063999999998
20
-99.8728959999999972
11
126.903971999999996
21
-100.0154029999999921
0
LINE
8
BLACK
6
CONTINUOUS
10
126.903971999999996
20
-100.0154029999999921
11
126.7468329999999952
21
-100.1861009999999936
0
LINE
8
BLACK
6
CONTINUOUS
10
126.7468329999999952
20
-100.1861009999999936
11
126.619932999999989
21
-100.3803359999999998
0
LINE
8
BLACK
6
CONTINUOUS
10
126.619932999999989
20
-100.3803359999999998
11
126.5267339999999905
21
-100.5928089999999884
0
LINE
8
BLACK
6
CONTINUOUS
10
126.5267339999999905
20
-100.5928089999999884
11
126.4697779999999909
21
-100.8177239999999983
0
LINE
8
BLACK
6
CONTINUOUS
10
126.4697779999999909
20
-100.8177239999999983
11
126.4506179999999915
21
-101.0489460000000008
0
LINE
8
BLACK
6
CONTINUOUS
10
126.4506179999999915
20
-101.0489460000000008
11
126.4697779999999909
21
-101.2801679999999891
0
LINE
8
BLACK
6
CONTINUOUS
10
170.5530829999999867
20
-99.4686449999999951
11
170.7972149999999942
21
-99.5272559999999942
0
LINE
8
BLACK
6
CONTINUOUS
10
170.7972149999999942
20
-99.5272559999999942
11
171.0291729999999859
21
-99.6233359999999948
0
LINE
8
BLACK
6
CONTINUOUS
10
171.0291729999999859
20
-99.6233359999999948
11
171.2432440000000042
21
-99.7545190000000019
0
LINE
8
BLACK
6
CONTINUOUS
10
171.2432440000000042
20
-99.7545190000000019
11
171.434158999999994
21
-99.9175749999999994
0
LINE
8
BLACK
6
CONTINUOUS
10
171.434158999999994
20
-99.9175749999999994
11
171.5972150000000056
21
-100.1084899999999891
0
LINE
8
BLACK
6
CONTINUOUS
10
171.5972150000000056
20
-100.1084899999999891
11
171.7283979999999985
21
-100.3225609999999932
0
LINE
8
BLACK
6
CONTINUOUS
10
171.7283979999999985
20
-100.3225609999999932
11
171.8244779999999992
21
-100.5545189999999991
0
LINE
8
BLACK
6
CONTINUOUS
10
171.8244779999999992
20
-100.5545189999999991
11
171.883088999999984
21
-100.7986509999999925
0
LINE
8
BLACK
6
CONTINUOUS
10
171.883088999999984
20
-100.7986509999999925
11
171.9027879999999868
21
-101.0489460000000008
0
LINE
8
BLACK
6
CONTINUOUS
10
171.9027879999999868
20
-101.0489460000000008
11
171.883088999999984
21
-101.299240999999995
0
LINE
8
BLACK
6
CONTINUOUS
10
171.883088999999984
20
-101.299240999999995
11
171.8244779999999992
21
-101.5433729999999883
0
LINE
8
BLACK
6
CONTINUOUS
10
171.8244779999999992
20
-101.5433729999999883
11
171.7283979999999985
21
-101.7753309999999942
0
LINE
8
BLACK
6
CONTINUOUS
10
171.7283979999999985
20
-101.7753309999999942
11
171.5972150000000056
21
-101.9894019999999983
0
LINE
8
BLACK
6
CONTINUOUS
10
171.5972150000000056
20
-101.9894019999999983
11
171.434158999999994
21
-102.1803170000000023
0
LINE
8
BLACK
6
CONTINUOUS
10
171.434158999999994
20
-102.1803170000000023
11
171.2432440000000042
21
-102.3433729999999997
0
LINE
8
BLACK
6
CONTINUOUS
10
171.2432440000000042
20
-102.3433729999999997
11
171.0291729999999859
21
-102.4745559999999927
0
LINE
8
BLACK
6
CONTINUOUS
10
171.0291729999999859
20
-102.4745559999999927
11
170.7972149999999942
21
-102.5706359999999933
0
LINE
8
BLACK
6
CONTINUOUS
10
170.7972149999999942
20
-102.5706359999999933
11
170.5530829999999867
21
-102.6292469999999923
0
LINE
8
BLACK
6
CONTINUOUS
10
170.5530829999999867
20
-102.6292469999999923
11
170.3027879999999925
21
-102.6489459999999951
0
LINE
8
BLACK
6
CONTINUOUS
10
170.3027879999999925
20
-102.6489459999999951
11
170.0524929999999983
21
-102.6292469999999923
0
LINE
8
BLACK
6
CONTINUOUS
10
170.0524929999999983
20
-102.6292469999999923
11
169.8083609999999908
21
-102.5706359999999933
0
LINE
8
BLACK
6
CONTINUOUS
10
169.8083609999999908
20
-102.5706359999999933
11
169.5764029999999991
21
-102.4745559999999927
0
LINE
8
BLACK
6
CONTINUOUS
10
169.5764029999999991
20
-102.4745559999999927
11
169.3623319999999808
21
-102.3433729999999997
0
LINE
8
BLACK
6
CONTINUOUS
10
169.3623319999999808
20
-102.3433729999999997
11
169.171416999999991
21
-102.1803170000000023
0
LINE
8
BLACK
6
CONTINUOUS
10
169.171416999999991
20
-102.1803170000000023
11
169.0083609999999794
21
-101.9894019999999983
0
LINE
8
BLACK
6
CONTINUOUS
10
169.0083609999999794
20
-101.9894019999999983
11
168.8771779999999865
21
-101.7753309999999942
0
LINE
8
BLACK
6
CONTINUOUS
10
168.8771779999999865
20
-101.7753309999999942
11
168.7810979999999859
21
-101.5433729999999883
0
LINE
8
BLACK
6
CONTINUOUS
10
168.7810979999999859
20
-101.5433729999999883
11
168.722487000000001
21
-101.299240999999995
0
LINE
8
BLACK
6
CONTINUOUS
10
168.722487000000001
20
-101.299240999999995
11
168.7027879999999982
21
-101.0489460000000008
0
LINE
8
BLACK
6
CONTINUOUS
10
168.7027879999999982
20
-101.0489460000000008
11
168.722487000000001
21
-100.7986509999999925
0
LINE
8
BLACK
6
CONTINUOUS
10
168.722487000000001
20
-100.7986509999999925
11
168.7810979999999859
21
-100.5545189999999991
0
LINE
8
BLACK
6
CONTINUOUS
10
168.7810979999999859
20
-100.5545189999999991
11
168.8771779999999865
21
-100.3225609999999932
0
LINE
8
BLACK
6
CONTINUOUS
10
168.8771779999999865
20
-100.3225609999999932
11
169.0083609999999794
21
-100.1084899999999891
0
LINE
8
BLACK
6
CONTINUOUS
10
169.0083609999999794
20
-100.1084899999999891
11
169.171416999999991
21
-99.9175749999999994
0
LINE
8
BLACK
6
CONTINUOUS
10
169.171416999999991
20
-99.9175749999999994
11
169.3623319999999808
21
-99.7545190000000019
0
LINE
8
BLACK
6
CONTINUOUS
10
169.3623319999999808
20
-99.7545190000000019
11
169.5764029999999991
21
-99.6233359999999948
0
LINE
8
BLACK
6
CONTINUOUS
10
169.5764029999999991
20
-99.6233359999999948
11
169.8083609999999908
21
-99.5272559999999942
0
LINE
8
BLACK
6
CONTINUOUS
10
169.8083609999999908
20
-99.5272559999999942
11
170.0524929999999983
21
-99.4686449999999951
0
LINE
8
BLACK
6
CONTINUOUS
10
170.0524929999999983
20
-99.4686449999999951
11
170.3027879999999925
21
-99.4489459999999923
0
LINE
8
BLACK
6
CONTINUOUS
10
170.3027879999999925
20
-99.4489459999999923
11
170.5530829999999867
21
-99.4686449999999951
0
LINE
8
BLACK
6
CONTINUOUS
10
168.9171499999999924
20
-101.2801679999999891
11
168.9741060000000061
21
-101.5050829999999991
0
LINE
8
BLACK
6
CONTINUOUS
10
168.9741060000000061
20
-101.5050829999999991
11
169.0673050000000046
21
-101.7175560000000019
0
LINE
8
BLACK
6
CONTINUOUS
10
169.0673050000000046
20
-101.7175560000000019
11
169.1942049999999824
21
-101.9117909999999938
0
LINE
8
BLACK
6
CONTINUOUS
10
169.1942049999999824
20
-101.9117909999999938
11
169.3513439999999832
21
-102.0824889999999954
0
LINE
8
BLACK
6
CONTINUOUS
10
169.3513439999999832
20
-102.0824889999999954
11
169.5344359999999995
21
-102.2249959999999902
0
LINE
8
BLACK
6
CONTINUOUS
10
169.5344359999999995
20
-102.2249959999999902
11
169.7384869999999921
21
-102.3354229999999916
0
LINE
8
BLACK
6
CONTINUOUS
10
169.7384869999999921
20
-102.3354229999999916
11
169.9579300000000046
21
-102.4107580000000013
0
LINE
8
BLACK
6
CONTINUOUS
10
169.9579300000000046
20
-102.4107580000000013
11
170.1867809999999963
21
-102.4489459999999923
0
LINE
8
BLACK
6
CONTINUOUS
10
170.1867809999999963
20
-102.4489459999999923
11
170.4187949999999887
21
-102.4489459999999923
0
LINE
8
BLACK
6
CONTINUOUS
10
170.4187949999999887
20
-102.4489459999999923
11
170.6476459999999804
21
-102.4107580000000013
0
LINE
8
BLACK
6
CONTINUOUS
10
170.6476459999999804
20
-102.4107580000000013
11
170.8670889999999929
21
-102.3354229999999916
0
LINE
8
BLACK
6
CONTINUOUS
10
170.8670889999999929
20
-102.3354229999999916
11
171.0711399999999855
21
-102.2249959999999902
0
LINE
8
BLACK
6
CONTINUOUS
10
171.0711399999999855
20
-102.2249959999999902
11
171.2542320000000018
21
-102.0824889999999954
0
LINE
8
BLACK
6
CONTINUOUS
10
171.2542320000000018
20
-102.0824889999999954
11
171.4113710000000026
21
-101.9117909999999938
0
LINE
8
BLACK
6
CONTINUOUS
10
171.4113710000000026
20
-101.9117909999999938
11
171.5382709999999804
21
-101.7175560000000019
0
LINE
8
BLACK
6
CONTINUOUS
10
171.5382709999999804
20
-101.7175560000000019
11
171.6314699999999789
21
-101.5050829999999991
0
LINE
8
BLACK
6
CONTINUOUS
10
171.6314699999999789
20
-101.5050829999999991
11
171.6884259999999927
21
-101.2801679999999891
0
LINE
8
BLACK
6
CONTINUOUS
10
171.6884259999999927
20
-101.2801679999999891
11
171.7075859999999921
21
-101.0489460000000008
0
LINE
8
BLACK
6
CONTINUOUS
10
171.7075859999999921
20
-101.0489460000000008
11
171.6884259999999927
21
-100.8177239999999983
0
LINE
8
BLACK
6
CONTINUOUS
10
171.6884259999999927
20
-100.8177239999999983
11
171.6314699999999789
21
-100.5928089999999884
0
LINE
8
BLACK
6
CONTINUOUS
10
171.6314699999999789
20
-100.5928089999999884
11
171.5382709999999804
21
-100.3803359999999998
0
LINE
8
BLACK
6
CONTINUOUS
10
171.5382709999999804
20
-100.3803359999999998
11
171.4113710000000026
21
-100.1861009999999936
0
LINE
8
BLACK
6
CONTINUOUS
10
171.4113710000000026
20
-100.1861009999999936
11
171.2542320000000018
21
-100.0154029999999921
0
LINE
8
BLACK
6
CONTINUOUS
10
171.2542320000000018
20
-100.0154029999999921
11
171.0711399999999855
21
-99.8728959999999972
0
LINE
8
BLACK
6
CONTINUOUS
10
171.0711399999999855
20
-99.8728959999999972
11
170.8670889999999929
21
-99.7624689999999958
0
LINE
8
BLACK
6
CONTINUOUS
10
170.8670889999999929
20
-99.7624689999999958
11
170.6476459999999804
21
-99.6871340000000004
0
LINE
8
BLACK
6
CONTINUOUS
10
170.6476459999999804
20
-99.6871340000000004
11
170.4187949999999887
21
-99.6489459999999951
0
LINE
8
BLACK
6
CONTINUOUS
10
170.4187949999999887
20
-99.6489459999999951
11
170.1867809999999963
21
-99.6489459999999951
0
LINE
8
BLACK
6
CONTINUOUS
10
170.1867809999999963
20
-99.6489459999999951
11
169.9579300000000046
21
-99.6871340000000004
0
LINE
8
BLACK
6
CONTINUOUS
10
169.9579300000000046
20
-99.6871340000000004
11
169.7384869999999921
21
-99.7624689999999958
0
LINE
8
BLACK
6
CONTINUOUS
10
169.7384869999999921
20
-99.7624689999999958
11
169.5344359999999995
21
-99.8728959999999972
0
LINE
8
BLACK
6
CONTINUOUS
10
169.5344359999999995
20
-99.8728959999999972
11
169.3513439999999832
21
-100.0154029999999921
0
LINE
8
BLACK
6
CONTINUOUS
10
169.3513439999999832
20
-100.0154029999999921
11
169.1942049999999824
21
-100.1861009999999936
0
LINE
8
BLACK
6
CONTINUOUS
10
169.1942049999999824
20
-100.1861009999999936
11
169.0673050000000046
21
-100.3803359999999998
0
LINE
8
BLACK
6
CONTINUOUS
10
169.0673050000000046
20
-100.3803359999999998
11
168.9741060000000061
21
-100.5928089999999884
0
LINE
8
BLACK
6
CONTINUOUS
10
168.9741060000000061
20
-100.5928089999999884
11
168.9171499999999924
21
-100.8177239999999983
0
LINE
8
BLACK
6
CONTINUOUS
10
168.9171499999999924
20
-100.8177239999999983
11
168.897989999999993
21
-101.0489460000000008
0
LINE
8
BLACK
6
CONTINUOUS
10
168.897989999999993
20
-101.0489460000000008
11
168.9171499999999924
21
-101.2801679999999891
0
LINE
8
BLACK
6
CONTINUOUS
10
149.3293970000000002
20
-78.2449579999999969
11
149.5735289999999793
21
-78.303568999999996
0
LINE
8
BLACK
6
CONTINUOUS
10
149.5735289999999793
20
-78.303568999999996
11
149.8054869999999994
21
-78.3996489999999966
0
LINE
8
BLACK
6
CONTINUOUS
10
149.8054869999999994
20
-78.3996489999999966
11
150.0195579999999893
21
-78.5308319999999895
0
LINE
8
BLACK
6
CONTINUOUS
10
150.0195579999999893
20
-78.5308319999999895
11
150.210472999999979
21
-78.6938880000000012
0
LINE
8
BLACK
6
CONTINUOUS
10
150.210472999999979
20
-78.6938880000000012
11
150.3735289999999907
21
-78.8848029999999909
0
LINE
8
BLACK
6
CONTINUOUS
10
150.3735289999999907
20
-78.8848029999999909
11
150.5047119999999836
21
-79.098873999999995
0
LINE
8
BLACK
6
CONTINUOUS
10
150.5047119999999836
20
-79.098873999999995
11
150.6007919999999842
21
-79.3308320000000009
0
LINE
8
BLACK
6
CONTINUOUS
10
150.6007919999999842
20
-79.3308320000000009
11
150.6594029999999975
21
-79.5749639999999943
0
LINE
8
BLACK
6
CONTINUOUS
10
150.6594029999999975
20
-79.5749639999999943
11
150.6791020000000003
21
-79.8252590000000026
0
LINE
8
BLACK
6
CONTINUOUS
10
150.6791020000000003
20
-79.8252590000000026
11
150.6594029999999975
21
-80.0755539999999968
0
LINE
8
BLACK
6
CONTINUOUS
10
150.6594029999999975
20
-80.0755539999999968
11
150.6007919999999842
21
-80.3196859999999901
0
LINE
8
BLACK
6
CONTINUOUS
10
150.6007919999999842
20
-80.3196859999999901
11
150.5047119999999836
21
-80.551643999999996
0
LINE
8
BLACK
6
CONTINUOUS
10
150.5047119999999836
20
-80.551643999999996
11
150.3735289999999907
21
-80.7657150000000001
0
LINE
8
BLACK
6
CONTINUOUS
10
150.3735289999999907
20
-80.7657150000000001
11
150.210472999999979
21
-80.9566299999999899
0
LINE
8
BLACK
6
CONTINUOUS
10
150.210472999999979
20
-80.9566299999999899
11
150.0195579999999893
21
-81.1196860000000015
0
LINE
8
BLACK
6
CONTINUOUS
10
150.0195579999999893
20
-81.1196860000000015
11
149.8054869999999994
21
-81.2508689999999945
0
LINE
8
BLACK
6
CONTINUOUS
10
149.8054869999999994
20
-81.2508689999999945
11
149.5735289999999793
21
-81.3469489999999951
0
LINE
8
BLACK
6
CONTINUOUS
10
149.5735289999999793
20
-81.3469489999999951
11
149.3293970000000002
21
-81.4055599999999941
0
LINE
8
BLACK
6
CONTINUOUS
10
149.3293970000000002
20
-81.4055599999999941
11
149.079102000000006
21
-81.4252589999999969
0
LINE
8
BLACK
6
CONTINUOUS
10
149.079102000000006
20
-81.4252589999999969
11
148.8288069999999834
21
-81.4055599999999941
0
LINE
8
BLACK
6
CONTINUOUS
10
148.8288069999999834
20
-81.4055599999999941
11
148.5846750000000043
21
-81.3469489999999951
0
LINE
8
BLACK
6
CONTINUOUS
10
148.5846750000000043
20
-81.3469489999999951
11
148.3527169999999842
21
-81.2508689999999945
0
LINE
8
BLACK
6
CONTINUOUS
10
148.3527169999999842
20
-81.2508689999999945
11
148.1386459999999943
21
-81.1196860000000015
0
LINE
8
BLACK
6
CONTINUOUS
10
148.1386459999999943
20
-81.1196860000000015
11
147.9477310000000045
21
-80.9566299999999899
0
LINE
8
BLACK
6
CONTINUOUS
10
147.9477310000000045
20
-80.9566299999999899
11
147.7846749999999929
21
-80.7657150000000001
0
LINE
8
BLACK
6
CONTINUOUS
10
147.7846749999999929
20
-80.7657150000000001
11
147.653492
21
-80.551643999999996
0
LINE
8
BLACK
6
CONTINUOUS
10
147.653492
20
-80.551643999999996
11
147.5574119999999994
21
-80.3196859999999901
0
LINE
8
BLACK
6
CONTINUOUS
10
147.5574119999999994
20
-80.3196859999999901
11
147.4988009999999861
21
-80.0755539999999968
0
LINE
8
BLACK
6
CONTINUOUS
10
147.4988009999999861
20
-80.0755539999999968
11
147.4791019999999833
21
-79.8252590000000026
0
LINE
8
BLACK
6
CONTINUOUS
10
147.4791019999999833
20
-79.8252590000000026
11
147.4988009999999861
21
-79.5749639999999943
0
LINE
8
BLACK
6
CONTINUOUS
10
147.4988009999999861
20
-79.5749639999999943
11
147.5574119999999994
21
-79.3308320000000009
0
LINE
8
BLACK
6
CONTINUOUS
10
147.5574119999999994
20
-79.3308320000000009
11
147.653492
21
-79.098873999999995
0
LINE
8
BLACK
6
CONTINUOUS
10
147.653492
20
-79.098873999999995
11
147.7846749999999929
21
-78.8848029999999909
0
LINE
8
BLACK
6
CONTINUOUS
10
147.7846749999999929
20
-78.8848029999999909
11
147.9477310000000045
21
-78.6938880000000012
0
LINE
8
BLACK
6
CONTINUOUS
10
147.9477310000000045
20
-78.6938880000000012
11
148.1386459999999943
21
-78.5308319999999895
0
LINE
8
BLACK
6
CONTINUOUS
10
148.1386459999999943
20
-78.5308319999999895
11
148.3527169999999842
21
-78.3996489999999966
0
LINE
8
BLACK
6
CONTINUOUS
10
148.3527169999999842
20
-78.3996489999999966
11
148.5846750000000043
21
-78.303568999999996
0
LINE
8
BLACK
6
CONTINUOUS
10
148.5846750000000043
20
-78.303568999999996
11
148.8288069999999834
21
-78.2449579999999969
0
LINE
8
BLACK
6
CONTINUOUS
10
148.8288069999999834
20
-78.2449579999999969
11
149.079102000000006
21
-78.2252589999999941
0
LINE
8
BLACK
6
CONTINUOUS
10
149.079102000000006
20
-78.2252589999999941
11
149.3293970000000002
21
-78.2449579999999969
0
LINE
8
BLACK
6
CONTINUOUS
10
147.6934640000000059
20
-80.0564809999999909
11
147.7504199999999912
21
-80.2813960000000009
0
LINE
8
BLACK
6
CONTINUOUS
10
147.7504199999999912
20
-80.2813960000000009
11
147.8436189999999897
21
-80.4938689999999895
0
LINE
8
BLACK
6
CONTINUOUS
10
147.8436189999999897
20
-80.4938689999999895
11
147.9705189999999959
21
-80.6881039999999956
0
LINE
8
BLACK
6
CONTINUOUS
10
147.9705189999999959
20
-80.6881039999999956
11
148.1276579999999967
21
-80.8588019999999972
0
LINE
8
BLACK
6
CONTINUOUS
10
148.1276579999999967
20
-80.8588019999999972
11
148.3107499999999845
21
-81.001308999999992
0
LINE
8
BLACK
6
CONTINUOUS
10
148.3107499999999845
20
-81.001308999999992
11
148.5148010000000056
21
-81.1117359999999934
0
LINE
8
BLACK
6
CONTINUOUS
10
148.5148010000000056
20
-81.1117359999999934
11
148.7342439999999897
21
-81.1870710000000031
0
LINE
8
BLACK
6
CONTINUOUS
10
148.7342439999999897
20
-81.1870710000000031
11
148.9630949999999814
21
-81.2252589999999941
0
LINE
8
BLACK
6
CONTINUOUS
10
148.9630949999999814
20
-81.2252589999999941
11
149.1951090000000022
21
-81.2252589999999941
0
LINE
8
BLACK
6
CONTINUOUS
10
149.1951090000000022
20
-81.2252589999999941
11
149.4239599999999939
21
-81.1870710000000031
0
LINE
8
BLACK
6
CONTINUOUS
10
149.4239599999999939
20
-81.1870710000000031
11
149.6434030000000064
21
-81.1117359999999934
0
LINE
8
BLACK
6
CONTINUOUS
10
149.6434030000000064
20
-81.1117359999999934
11
149.847453999999999
21
-81.001308999999992
0
LINE
8
BLACK
6
CONTINUOUS
10
149.847453999999999
20
-81.001308999999992
11
150.0305459999999869
21
-80.8588019999999972
0
LINE
8
BLACK
6
CONTINUOUS
10
150.0305459999999869
20
-80.8588019999999972
11
150.1876849999999877
21
-80.6881039999999956
0
LINE
8
BLACK
6
CONTINUOUS
10
150.1876849999999877
20
-80.6881039999999956
11
150.3145849999999939
21
-80.4938689999999895
0
LINE
8
BLACK
6
CONTINUOUS
10
150.3145849999999939
20
-80.4938689999999895
11
150.4077839999999924
21
-80.2813960000000009
0
LINE
8
BLACK
6
CONTINUOUS
10
150.4077839999999924
20
-80.2813960000000009
11
150.4647400000000061
21
-80.0564809999999909
0
LINE
8
BLACK
6
CONTINUOUS
10
150.4647400000000061
20
-80.0564809999999909
11
150.4839000000000055
21
-79.8252590000000026
0
LINE
8
BLACK
6
CONTINUOUS
10
150.4839000000000055
20
-79.8252590000000026
11
150.4647400000000061
21
-79.5940370000000001
0
LINE
8
BLACK
6
CONTINUOUS
10
150.4647400000000061
20
-79.5940370000000001
11
150.4077839999999924
21
-79.3691219999999902
0
LINE
8
BLACK
6
CONTINUOUS
10
150.4077839999999924
20
-79.3691219999999902
11
150.3145849999999939
21
-79.1566490000000016
0
LINE
8
BLACK
6
CONTINUOUS
10
150.3145849999999939
20
-79.1566490000000016
11
150.1876849999999877
21
-78.9624139999999954
0
LINE
8
BLACK
6
CONTINUOUS
10
150.1876849999999877
20
-78.9624139999999954
11
150.0305459999999869
21
-78.7917159999999939
0
LINE
8
BLACK
6
CONTINUOUS
10
150.0305459999999869
20
-78.7917159999999939
11
149.847453999999999
21
-78.649208999999999
0
LINE
8
BLACK
6
CONTINUOUS
10
149.847453999999999
20
-78.649208999999999
11
149.6434030000000064
21
-78.5387819999999977
0
LINE
8
BLACK
6
CONTINUOUS
10
149.6434030000000064
20
-78.5387819999999977
11
149.4239599999999939
21
-78.4634470000000022
0
LINE
8
BLACK
6
CONTINUOUS
10
149.4239599999999939
20
-78.4634470000000022
11
149.1951090000000022
21
-78.4252589999999969
0
LINE
8
BLACK
6
CONTINUOUS
10
149.1951090000000022
20
-78.4252589999999969
11
148.9630949999999814
21
-78.4252589999999969
0
LINE
8
BLACK
6
CONTINUOUS
10
148.9630949999999814
20
-78.4252589999999969
11
148.7342439999999897
21
-78.4634470000000022
0
LINE
8
BLACK
6
CONTINUOUS
10
148.7342439999999897
20
-78.4634470000000022
11
148.5148010000000056
21
-78.5387819999999977
0
LINE
8
BLACK
6
CONTINUOUS
10
148.5148010000000056
20
-78.5387819999999977
11
148.3107499999999845
21
-78.649208999999999
0
LINE
8
BLACK
6
CONTINUOUS
10
148.3107499999999845
20
-78.649208999999999
11
148.1276579999999967
21
-78.7917159999999939
0
LINE
8
BLACK
6
CONTINUOUS
10
148.1276579999999967
20
-78.7917159999999939
11
147.9705189999999959
21
-78.9624139999999954
0
LINE
8
BLACK
6
CONTINUOUS
10
147.9705189999999959
20
-78.9624139999999954
11
147.8436189999999897
21
-79.1566490000000016
0
LINE
8
BLACK
6
CONTINUOUS
10
147.8436189999999897
20
-79.1566490000000016
11
147.7504199999999912
21
-79.3691219999999902
0
LINE
8
BLACK
6
CONTINUOUS
10
147.7504199999999912
20
-79.3691219999999902
11
147.6934640000000059
21
-79.5940370000000001
0
LINE
8
BLACK
6
CONTINUOUS
10
147.6934640000000059
20
-79.5940370000000001
11
147.6743040000000065
21
-79.8252590000000026
0
LINE
8
BLACK
6
CONTINUOUS
10
147.6743040000000065
20
-79.8252590000000026
11
147.6934640000000059
21
-80.0564809999999909
0
LINE
8
BLACK
6
CONTINUOUS
10
164.6581999999999937
20
-77.3999999999999915
11
165.2109639999999899
21
-77.4188829999999939
0
LINE
8
BLACK
6
CONTINUOUS
10
165.2109639999999899
20
-77.4188829999999939
11
165.7611499999999864
21
-77.475443999999996
0
LINE
8
BLACK
6
CONTINUOUS
10
165.7611499999999864
20
-77.475443999999996
11
166.306194000000005
21
-77.5694189999999963
0
LINE
8
BLACK
6
CONTINUOUS
10
166.306194000000005
20
-77.5694189999999963
11
166.8435539999999833
21
-77.7003699999999924
0
LINE
8
BLACK
6
CONTINUOUS
10
166.8435539999999833
20
-77.7003699999999924
11
167.3707249999999931
21
-77.8676869999999894
0
LINE
8
BLACK
6
CONTINUOUS
10
167.3707249999999931
20
-77.8676869999999894
11
167.8852489999999875
21
-78.0705880000000008
0
LINE
8
BLACK
6
CONTINUOUS
10
167.8852489999999875
20
-78.0705880000000008
11
168.384726999999998
21
-78.3081299999999914
0
LINE
8
BLACK
6
CONTINUOUS
10
168.384726999999998
20
-78.3081299999999914
11
168.8668299999999931
21
-78.5792029999999926
0
LINE
8
BLACK
6
CONTINUOUS
10
168.8668299999999931
20
-78.5792029999999926
11
169.3293109999999899
21
-78.8825439999999958
0
LINE
8
BLACK
6
CONTINUOUS
10
169.3293109999999899
20
-78.8825439999999958
11
169.7700119999999799
21
-79.2167389999999898
0
LINE
8
BLACK
6
CONTINUOUS
10
169.7700119999999799
20
-79.2167389999999898
11
170.1868800000000022
21
-79.5802290000000028
0
LINE
8
BLACK
6
CONTINUOUS
10
170.1868800000000022
20
-79.5802290000000028
11
170.5779709999999909
21
-79.9713199999999915
0
LINE
8
BLACK
6
CONTINUOUS
10
170.5779709999999909
20
-79.9713199999999915
11
170.9414610000000039
21
-80.3881879999999995
0
LINE
8
BLACK
6
CONTINUOUS
10
170.9414610000000039
20
-80.3881879999999995
11
171.2756559999999979
21
-80.8288889999999896
0
LINE
8
BLACK
6
CONTINUOUS
10
171.2756559999999979
20
-80.8288889999999896
11
171.5789969999999869
21
-81.2913700000000006
0
LINE
8
BLACK
6
CONTINUOUS
10
171.5789969999999869
20
-81.2913700000000006
11
171.8500699999999881
21
-81.7734729999999956
0
LINE
8
BLACK
6
CONTINUOUS
10
171.8500699999999881
20
-81.7734729999999956
11
172.0876119999999787
21
-82.272950999999992
0
LINE
8
BLACK
6
CONTINUOUS
10
172.0876119999999787
20
-82.272950999999992
11
172.2905130000000042
21
-82.7874750000000006
0
LINE
8
BLACK
6
CONTINUOUS
10
172.2905130000000042
20
-82.7874750000000006
11
172.4578300000000013
21
-83.3146459999999962
0
LINE
8
BLACK
6
CONTINUOUS
10
172.4578300000000013
20
-83.3146459999999962
11
172.5887809999999831
21
-83.8520060000000029
0
LINE
8
BLACK
6
CONTINUOUS
10
172.5887809999999831
20
-83.8520060000000029
11
172.6827559999999835
21
-84.397049999999993
0
LINE
8
BLACK
6
CONTINUOUS
10
172.6827559999999835
20
-84.397049999999993
11
172.7393169999999998
21
-84.9472359999999895
0
LINE
8
BLACK
6
CONTINUOUS
10
172.7393169999999998
20
-84.9472359999999895
11
172.7581969999999956
21
-85.4999370000000027
0
LINE
8
BLACK
6
CONTINUOUS
10
172.7581969999999956
20
-85.4999370000000027
11
172.7582040000000063
21
-85.5
0
LINE
8
BLACK
6
CONTINUOUS
10
172.7582040000000063
20
-85.5
11
172.7582040000000063
21
-116.5979099999999988
0
LINE
8
BLACK
6
CONTINUOUS
10
172.7582040000000063
20
-116.5979099999999988
11
172.7393199999999922
21
-117.1506729999999976
0
LINE
8
BLACK
6
CONTINUOUS
10
172.7393199999999922
20
-117.1506729999999976
11
172.6827590000000043
21
-117.7008579999999967
0
LINE
8
BLACK
6
CONTINUOUS
10
172.6827590000000043
20
-117.7008579999999967
11
172.588784000000004
21
-118.2459009999999893
0
LINE
8
BLACK
6
CONTINUOUS
10
172.588784000000004
20
-118.2459009999999893
11
172.4578329999999937
21
-118.7832599999999985
0
LINE
8
BLACK
6
CONTINUOUS
10
172.4578329999999937
20
-118.7832599999999985
11
172.2905159999999967
21
-119.3104299999999967
0
LINE
8
BLACK
6
CONTINUOUS
10
172.2905159999999967
20
-119.3104299999999967
11
172.0876140000000021
21
-119.8249519999999961
0
LINE
8
BLACK
6
CONTINUOUS
10
172.0876140000000021
20
-119.8249519999999961
11
171.8500729999999805
21
-120.324428999999995
0
LINE
8
BLACK
6
CONTINUOUS
10
171.8500729999999805
20
-120.324428999999995
11
171.5790010000000052
21
-120.80653199999999
0
LINE
8
BLACK
6
CONTINUOUS
10
171.5790010000000052
20
-120.80653199999999
11
171.2756599999999878
21
-121.2690109999999919
0
LINE
8
BLACK
6
CONTINUOUS
10
171.2756599999999878
20
-121.2690109999999919
11
170.9414669999999887
21
-121.7097119999999961
0
LINE
8
BLACK
6
CONTINUOUS
10
170.9414669999999887
20
-121.7097119999999961
11
170.5779770000000042
21
-122.1265799999999899
0
LINE
8
BLACK
6
CONTINUOUS
10
170.5779770000000042
20
-122.1265799999999899
11
170.1868869999999845
21
-122.5176699999999954
0
LINE
8
BLACK
6
CONTINUOUS
10
170.1868869999999845
20
-122.5176699999999954
11
169.7700199999999882
21
-122.8811599999999942
0
LINE
8
BLACK
6
CONTINUOUS
10
169.7700199999999882
20
-122.8811599999999942
11
169.3293199999999956
21
-123.2153549999999882
0
LINE
8
BLACK
6
CONTINUOUS
10
169.3293199999999956
20
-123.2153549999999882
11
168.8668399999999963
21
-123.5186959999999914
0
LINE
8
BLACK
6
CONTINUOUS
10
168.8668399999999963
20
-123.5186959999999914
11
168.3847379999999987
21
-123.7897689999999926
0
LINE
8
BLACK
6
CONTINUOUS
10
168.3847379999999987
20
-123.7897689999999926
11
167.8852619999999831
21
-124.0273099999999999
0
LINE
8
BLACK
6
CONTINUOUS
10
167.8852619999999831
20
-124.0273099999999999
11
167.3707389999999862
21
-124.230212999999992
0
LINE
8
BLACK
6
CONTINUOUS
10
167.3707389999999862
20
-124.230212999999992
11
166.8435690000000022
21
-124.3975299999999891
0
LINE
8
BLACK
6
CONTINUOUS
10
166.8435690000000022
20
-124.3975299999999891
11
166.306209999999993
21
-124.5284819999999968
0
LINE
8
BLACK
6
CONTINUOUS
10
166.306209999999993
20
-124.5284819999999968
11
165.7611679999999978
21
-124.6224579999999946
0
LINE
8
BLACK
6
CONTINUOUS
10
165.7611679999999978
20
-124.6224579999999946
11
165.2109829999999988
21
-124.6790199999999942
0
LINE
8
BLACK
6
CONTINUOUS
10
165.2109829999999988
20
-124.6790199999999942
11
164.65822
21
-124.6979039999999941
0
LINE
8
BLACK
6
CONTINUOUS
10
164.65822
20
-124.6979039999999941
11
164.65822
21
-124.697891999999996
0
LINE
8
BLACK
6
CONTINUOUS
10
164.65822
20
-124.697891999999996
11
133.5
21
-124.697891999999996
0
LINE
8
BLACK
6
CONTINUOUS
10
133.5
20
-124.697891999999996
11
132.9472370000000012
21
-124.6790089999999935
0
LINE
8
BLACK
6
CONTINUOUS
10
132.9472370000000012
20
-124.6790089999999935
11
132.3970510000000047
21
-124.6224479999999915
0
LINE
8
BLACK
6
CONTINUOUS
10
132.3970510000000047
20
-124.6224479999999915
11
131.8520069999999862
21
-124.5284729999999911
0
LINE
8
BLACK
6
CONTINUOUS
10
131.8520069999999862
20
-124.5284729999999911
11
131.3146470000000079
21
-124.397521999999995
0
LINE
8
BLACK
6
CONTINUOUS
10
131.3146470000000079
20
-124.397521999999995
11
130.7874759999999981
21
-124.230204999999998
0
LINE
8
BLACK
6
CONTINUOUS
10
130.7874759999999981
20
-124.230204999999998
11
130.2729520000000036
21
-124.0273029999999892
0
LINE
8
BLACK
6
CONTINUOUS
10
130.2729520000000036
20
-124.0273029999999892
11
129.7734749999999906
21
-123.7897619999999961
0
LINE
8
BLACK
6
CONTINUOUS
10
129.7734749999999906
20
-123.7897619999999961
11
129.2913719999999955
21
-123.5186889999999948
0
LINE
8
BLACK
6
CONTINUOUS
10
129.2913719999999955
20
-123.5186889999999948
11
128.8288909999999987
21
-123.2153479999999917
0
LINE
8
BLACK
6
CONTINUOUS
10
128.8288909999999987
20
-123.2153479999999917
11
128.3881899999999803
21
-122.8811529999999976
0
LINE
8
BLACK
6
CONTINUOUS
10
128.3881899999999803
20
-122.8811529999999976
11
127.9713220000000007
21
-122.5176629999999989
0
LINE
8
BLACK
6
CONTINUOUS
10
127.9713220000000007
20
-122.5176629999999989
11
127.5802319999999952
21
-122.1265719999999959
0
LINE
8
BLACK
6
CONTINUOUS
10
127.5802319999999952
20
-122.1265719999999959
11
127.2167419999999964
21
-121.7097039999999879
0
LINE
8
BLACK
6
CONTINUOUS
10
127.2167419999999964
20
-121.7097039999999879
11
126.8825479999999999
21
-121.2690020000000004
0
LINE
8
BLACK
6
CONTINUOUS
10
126.8825479999999999
20
-121.2690020000000004
11
126.5792069999999967
21
-120.8065209999999894
0
LINE
8
BLACK
6
CONTINUOUS
10
126.5792069999999967
20
-120.8065209999999894
11
126.3081339999999955
21
-120.3244179999999943
0
LINE
8
BLACK
6
CONTINUOUS
10
126.3081339999999955
20
-120.3244179999999943
11
126.0705929999999881
21
-119.824939999999998
0
LINE
8
BLACK
6
CONTINUOUS
10
126.0705929999999881
20
-119.824939999999998
11
125.867691999999991
21
-119.3104159999999894
0
LINE
8
BLACK
6
CONTINUOUS
10
125.867691999999991
20
-119.3104159999999894
11
125.7003759999999914
21
-118.7832449999999938
0
LINE
8
BLACK
6
CONTINUOUS
10
125.7003759999999914
20
-118.7832449999999938
11
125.5694249999999954
21
-118.2458850000000012
0
LINE
8
BLACK
6
CONTINUOUS
10
125.5694249999999954
20
-118.2458850000000012
11
125.4754509999999925
21
-117.7008409999999969
0
LINE
8
BLACK
6
CONTINUOUS
10
125.4754509999999925
20
-117.7008409999999969
11
125.4188899999999904
21
-117.1506550000000004
0
LINE
8
BLACK
6
CONTINUOUS
10
125.4188899999999904
20
-117.1506550000000004
11
125.4000119999999896
21
-116.5980160000000012
0
LINE
8
BLACK
6
CONTINUOUS
10
125.4000119999999896
20
-116.5980160000000012
11
125.3999999999999915
21
-116.5978920000000016
0
LINE
8
BLACK
6
CONTINUOUS
10
125.3999999999999915
20
-116.5978920000000016
11
125.3999999999999915
21
-85.5
0
LINE
8
BLACK
6
CONTINUOUS
10
125.3999999999999915
20
-85.5
11
125.4188829999999939
21
-84.9472359999999895
0
LINE
8
BLACK
6
CONTINUOUS
10
125.4188829999999939
20
-84.9472359999999895
11
125.475443999999996
21
-84.397049999999993
0
LINE
8
BLACK
6
CONTINUOUS
10
125.475443999999996
20
-84.397049999999993
11
125.5694189999999963
21
-83.8520060000000029
0
LINE
8
BLACK
6
CONTINUOUS
10
125.5694189999999963
20
-83.8520060000000029
11
125.7003699999999924
21
-83.3146459999999962
0
LINE
8
BLACK
6
CONTINUOUS
10
125.7003699999999924
20
-83.3146459999999962
11
125.8676869999999894
21
-82.7874750000000006
0
LINE
8
BLACK
6
CONTINUOUS
10
125.8676869999999894
20
-82.7874750000000006
11
126.0705880000000008
21
-82.272950999999992
0
LINE
8
BLACK
6
CONTINUOUS
10
126.0705880000000008
20
-82.272950999999992
11
126.3081299999999914
21
-81.7734729999999956
0
LINE
8
BLACK
6
CONTINUOUS
10
126.3081299999999914
20
-81.7734729999999956
11
126.5792029999999926
21
-81.2913700000000006
0
LINE
8
BLACK
6
CONTINUOUS
10
126.5792029999999926
20
-81.2913700000000006
11
126.8825439999999958
21
-80.8288889999999896
0
LINE
8
BLACK
6
CONTINUOUS
10
126.8825439999999958
20
-80.8288889999999896
11
127.2167389999999898
21
-80.3881879999999995
0
LINE
8
BLACK
6
CONTINUOUS
10
127.2167389999999898
20
-80.3881879999999995
11
127.5802289999999886
21
-79.9713199999999915
0
LINE
8
BLACK
6
CONTINUOUS
10
127.5802289999999886
20
-79.9713199999999915
11
127.9713199999999915
21
-79.5802290000000028
0
LINE
8
BLACK
6
CONTINUOUS
10
127.9713199999999915
20
-79.5802290000000028
11
128.3881879999999853
21
-79.2167389999999898
0
LINE
8
BLACK
6
CONTINUOUS
10
128.3881879999999853
20
-79.2167389999999898
11
128.8288890000000038
21
-78.8825439999999958
0
LINE
8
BLACK
6
CONTINUOUS
10
128.8288890000000038
20
-78.8825439999999958
11
129.2913700000000006
21
-78.5792029999999926
0
LINE
8
BLACK
6
CONTINUOUS
10
129.2913700000000006
20
-78.5792029999999926
11
129.7734729999999956
21
-78.3081299999999914
0
LINE
8
BLACK
6
CONTINUOUS
10
129.7734729999999956
20
-78.3081299999999914
11
130.2729510000000062
21
-78.0705880000000008
0
LINE
8
BLACK
6
CONTINUOUS
10
130.2729510000000062
20
-78.0705880000000008
11
130.7874750000000006
21
-77.8676869999999894
0
LINE
8
BLACK
6
CONTINUOUS
10
130.7874750000000006
20
-77.8676869999999894
11
131.314645999999982
21
-77.7003699999999924
0
LINE
8
BLACK
6
CONTINUOUS
10
131.314645999999982
20
-77.7003699999999924
11
131.8520059999999887
21
-77.5694189999999963
0
LINE
8
BLACK
6
CONTINUOUS
10
131.8520059999999887
20
-77.5694189999999963
11
132.3970500000000072
21
-77.475443999999996
0
LINE
8
BLACK
6
CONTINUOUS
10
132.3970500000000072
20
-77.475443999999996
11
132.9472360000000037
21
-77.4188829999999939
0
LINE
8
BLACK
6
CONTINUOUS
10
132.9472360000000037
20
-77.4188829999999939
11
133.5
21
-77.3999999999999915
0
LINE
8
BLACK
6
CONTINUOUS
10
133.5
20
-77.3999999999999915
11
164.6581999999999937
21
-77.3999999999999915
0
LINE
8
BLACK
6
CONTINUOUS
10
133.5
20
-77.5999999999999943
11
133.2301280000000077
21
-77.5999999999999943
0
LINE
8
BLACK
6
CONTINUOUS
10
133.2301280000000077
20
-77.5999999999999943
11
132.6916420000000016
21
-77.6368339999999932
0
LINE
8
BLACK
6
CONTINUOUS
10
132.6916420000000016
20
-77.6368339999999932
11
132.1569250000000011
21
-77.7103290000000015
0
LINE
8
BLACK
6
CONTINUOUS
10
132.1569250000000011
20
-77.7103290000000015
11
131.628469999999993
21
-77.8201430000000016
0
LINE
8
BLACK
6
CONTINUOUS
10
131.628469999999993
20
-77.8201430000000016
11
131.1087409999999807
21
-77.965763999999993
0
LINE
8
BLACK
6
CONTINUOUS
10
131.1087409999999807
20
-77.965763999999993
11
130.6001609999999857
21
-78.1465139999999963
0
LINE
8
BLACK
6
CONTINUOUS
10
130.6001609999999857
20
-78.1465139999999963
11
130.105101999999988
21
-78.3615479999999991
0
LINE
8
BLACK
6
CONTINUOUS
10
130.105101999999988
20
-78.3615479999999991
11
129.6258709999999894
21
-78.6098659999999967
0
LINE
8
BLACK
6
CONTINUOUS
10
129.6258709999999894
20
-78.6098659999999967
11
129.1647030000000029
21
-78.8903079999999903
0
LINE
8
BLACK
6
CONTINUOUS
10
129.1647030000000029
20
-78.8903079999999903
11
128.7237480000000005
21
-79.2015679999999946
0
LINE
8
BLACK
6
CONTINUOUS
10
128.7237480000000005
20
-79.2015679999999946
11
128.3050629999999899
21
-79.542193999999995
0
LINE
8
BLACK
6
CONTINUOUS
10
128.3050629999999899
20
-79.542193999999995
11
127.9105979999999931
21
-79.9105979999999931
0
LINE
8
BLACK
6
CONTINUOUS
10
127.9105979999999931
20
-79.9105979999999931
11
127.542193999999995
21
-80.3050629999999899
0
LINE
8
BLACK
6
CONTINUOUS
10
127.542193999999995
20
-80.3050629999999899
11
127.2015679999999946
21
-80.7237480000000005
0
LINE
8
BLACK
6
CONTINUOUS
10
127.2015679999999946
20
-80.7237480000000005
11
126.8903079999999903
21
-81.1647030000000029
0
LINE
8
BLACK
6
CONTINUOUS
10
126.8903079999999903
20
-81.1647030000000029
11
126.6098659999999967
21
-81.6258709999999894
0
LINE
8
BLACK
6
CONTINUOUS
10
126.6098659999999967
20
-81.6258709999999894
11
126.3615479999999991
21
-82.1051020000000022
0
LINE
8
BLACK
6
CONTINUOUS
10
126.3615479999999991
20
-82.1051020000000022
11
126.1465139999999963
21
-82.6001609999999999
0
LINE
8
BLACK
6
CONTINUOUS
10
126.1465139999999963
20
-82.6001609999999999
11
125.965763999999993
21
-83.1087409999999949
0
LINE
8
BLACK
6
CONTINUOUS
10
125.965763999999993
20
-83.1087409999999949
11
125.8201429999999874
21
-83.628469999999993
0
LINE
8
BLACK
6
CONTINUOUS
10
125.8201429999999874
20
-83.628469999999993
11
125.7103289999999873
21
-84.1569250000000011
0
LINE
8
BLACK
6
CONTINUOUS
10
125.7103289999999873
20
-84.1569250000000011
11
125.6368339999999932
21
-84.6916420000000016
0
LINE
8
BLACK
6
CONTINUOUS
10
125.6368339999999932
20
-84.6916420000000016
11
125.5999999999999943
21
-85.2301279999999934
0
LINE
8
BLACK
6
CONTINUOUS
10
125.5999999999999943
20
-85.2301279999999934
11
125.5999999999999943
21
-85.5
0
LINE
8
BLACK
6
CONTINUOUS
10
125.5999999999999943
20
-85.5
11
125.5999999999999943
21
-116.5978920000000016
0
LINE
8
BLACK
6
CONTINUOUS
10
125.5999999999999943
20
-116.5978920000000016
11
125.6000079999999883
21
-116.5978920000000016
0
LINE
8
BLACK
6
CONTINUOUS
10
125.6000079999999883
20
-116.5978920000000016
11
125.6000079999999883
21
-116.867763999999994
0
LINE
8
BLACK
6
CONTINUOUS
10
125.6000079999999883
20
-116.867763999999994
11
125.6368409999999898
21
-117.40625
0
LINE
8
BLACK
6
CONTINUOUS
10
125.6368409999999898
20
-117.40625
11
125.7103350000000006
21
-117.9409670000000006
0
LINE
8
BLACK
6
CONTINUOUS
10
125.7103350000000006
20
-117.9409670000000006
11
125.8201490000000007
21
-118.4694219999999945
0
LINE
8
BLACK
6
CONTINUOUS
10
125.8201490000000007
20
-118.4694219999999945
11
125.965769999999992
21
-118.9891499999999951
0
LINE
8
BLACK
6
CONTINUOUS
10
125.965769999999992
20
-118.9891499999999951
11
126.1465189999999978
21
-119.49772999999999
0
LINE
8
BLACK
6
CONTINUOUS
10
126.1465189999999978
20
-119.49772999999999
11
126.3615530000000007
21
-119.9927899999999994
0
LINE
8
BLACK
6
CONTINUOUS
10
126.3615530000000007
20
-119.9927899999999994
11
126.6098700000000008
21
-120.472020999999998
0
LINE
8
BLACK
6
CONTINUOUS
10
126.6098700000000008
20
-120.472020999999998
11
126.8903119999999944
21
-120.9331880000000012
0
LINE
8
BLACK
6
CONTINUOUS
10
126.8903119999999944
20
-120.9331880000000012
11
127.2015719999999988
21
-121.3741429999999895
0
LINE
8
BLACK
6
CONTINUOUS
10
127.2015719999999988
20
-121.3741429999999895
11
127.5421969999999874
21
-121.7928289999999976
0
LINE
8
BLACK
6
CONTINUOUS
10
127.5421969999999874
20
-121.7928289999999976
11
127.9106009999999998
21
-122.1872929999999968
0
LINE
8
BLACK
6
CONTINUOUS
10
127.9106009999999998
20
-122.1872929999999968
11
128.3050649999999848
21
-122.5556979999999925
0
LINE
8
BLACK
6
CONTINUOUS
10
128.3050649999999848
20
-122.5556979999999925
11
128.7237499999999955
21
-122.8963239999999928
0
LINE
8
BLACK
6
CONTINUOUS
10
128.7237499999999955
20
-122.8963239999999928
11
129.1647049999999979
21
-123.2075839999999971
0
LINE
8
BLACK
6
CONTINUOUS
10
129.1647049999999979
20
-123.2075839999999971
11
129.6258729999999844
21
-123.4880259999999907
0
LINE
8
BLACK
6
CONTINUOUS
10
129.6258729999999844
20
-123.4880259999999907
11
130.1051029999999855
21
-123.7363439999999883
0
LINE
8
BLACK
6
CONTINUOUS
10
130.1051029999999855
20
-123.7363439999999883
11
130.6001619999999832
21
-123.9513779999999912
0
LINE
8
BLACK
6
CONTINUOUS
10
130.6001619999999832
20
-123.9513779999999912
11
131.1087420000000066
21
-124.1321279999999945
0
LINE
8
BLACK
6
CONTINUOUS
10
131.1087420000000066
20
-124.1321279999999945
11
131.6284709999999905
21
-124.277749
0
LINE
8
BLACK
6
CONTINUOUS
10
131.6284709999999905
20
-124.277749
11
132.1569259999999986
21
-124.3875630000000001
0
LINE
8
BLACK
6
CONTINUOUS
10
132.1569259999999986
20
-124.3875630000000001
11
132.6916420000000016
21
-124.4610579999999942
0
LINE
8
BLACK
6
CONTINUOUS
10
132.6916420000000016
20
-124.4610579999999942
11
133.2301280000000077
21
-124.4978919999999931
0
LINE
8
BLACK
6
CONTINUOUS
10
133.2301280000000077
20
-124.4978919999999931
11
133.5
21
-124.4978919999999931
0
LINE
8
BLACK
6
CONTINUOUS
10
133.5
20
-124.4978919999999931
11
164.65822
21
-124.4978919999999931
0
LINE
8
BLACK
6
CONTINUOUS
10
164.65822
20
-124.4978919999999931
11
164.6583409999999787
21
-124.4979029999999938
0
LINE
8
BLACK
6
CONTINUOUS
10
164.6583409999999787
20
-124.4979029999999938
11
164.9280909999999949
21
-124.4979029999999938
0
LINE
8
BLACK
6
CONTINUOUS
10
164.9280909999999949
20
-124.4979029999999938
11
165.4665760000000034
21
-124.4610689999999948
0
LINE
8
BLACK
6
CONTINUOUS
10
165.4665760000000034
20
-124.4610689999999948
11
166.0012920000000065
21
-124.3875719999999916
0
LINE
8
BLACK
6
CONTINUOUS
10
166.0012920000000065
20
-124.3875719999999916
11
166.5297459999999887
21
-124.277756999999994
0
LINE
8
BLACK
6
CONTINUOUS
10
166.5297459999999887
20
-124.277756999999994
11
167.0494730000000061
21
-124.132134999999991
0
LINE
8
BLACK
6
CONTINUOUS
10
167.0494730000000061
20
-124.132134999999991
11
167.5580520000000035
21
-123.9513849999999877
0
LINE
8
BLACK
6
CONTINUOUS
10
167.5580520000000035
20
-123.9513849999999877
11
168.0531100000000038
21
-123.7363499999999874
0
LINE
8
BLACK
6
CONTINUOUS
10
168.0531100000000038
20
-123.7363499999999874
11
168.5323400000000049
21
-123.4880330000000015
0
LINE
8
BLACK
6
CONTINUOUS
10
168.5323400000000049
20
-123.4880330000000015
11
168.9935069999999939
21
-123.2075899999999962
0
LINE
8
BLACK
6
CONTINUOUS
10
168.9935069999999939
20
-123.2075899999999962
11
169.4344600000000014
21
-122.8963309999999893
0
LINE
8
BLACK
6
CONTINUOUS
10
169.4344600000000014
20
-122.8963309999999893
11
169.8531449999999836
21
-122.555704999999989
0
LINE
8
BLACK
6
CONTINUOUS
10
169.8531449999999836
20
-122.555704999999989
11
170.2476079999999854
21
-122.1873009999999908
0
LINE
8
BLACK
6
CONTINUOUS
10
170.2476079999999854
20
-122.1873009999999908
11
170.6160109999999861
21
-121.7928369999999916
0
LINE
8
BLACK
6
CONTINUOUS
10
170.6160109999999861
20
-121.7928369999999916
11
170.9566370000000006
21
-121.3741519999999952
0
LINE
8
BLACK
6
CONTINUOUS
10
170.9566370000000006
20
-121.3741519999999952
11
171.267895999999979
21
-120.9331979999999902
0
LINE
8
BLACK
6
CONTINUOUS
10
171.267895999999979
20
-120.9331979999999902
11
171.5483380000000011
21
-120.4720310000000012
0
LINE
8
BLACK
6
CONTINUOUS
10
171.5483380000000011
20
-120.4720310000000012
11
171.796654999999987
21
-119.992801
0
LINE
8
BLACK
6
CONTINUOUS
10
171.796654999999987
20
-119.992801
11
172.0116889999999898
21
-119.4977429999999998
0
LINE
8
BLACK
6
CONTINUOUS
10
172.0116889999999898
20
-119.4977429999999998
11
172.1924379999999815
21
-118.9891639999999882
0
LINE
8
BLACK
6
CONTINUOUS
10
172.1924379999999815
20
-118.9891639999999882
11
172.3380599999999845
21
-118.4694360000000017
0
LINE
8
BLACK
6
CONTINUOUS
10
172.3380599999999845
20
-118.4694360000000017
11
172.4478739999999846
21
-117.9409819999999911
0
LINE
8
BLACK
6
CONTINUOUS
10
172.4478739999999846
20
-117.9409819999999911
11
172.5213699999999903
21
-117.406265999999988
0
LINE
8
BLACK
6
CONTINUOUS
10
172.5213699999999903
20
-117.406265999999988
11
172.5582029999999918
21
-116.8677809999999937
0
LINE
8
BLACK
6
CONTINUOUS
10
172.5582029999999918
20
-116.8677809999999937
11
172.5582039999999893
21
-116.5979099999999988
0
LINE
8
BLACK
6
CONTINUOUS
10
172.5582039999999893
20
-116.5979099999999988
11
172.5582039999999893
21
-85.5000139999999931
0
LINE
8
BLACK
6
CONTINUOUS
10
172.5582039999999893
20
-85.5000139999999931
11
172.5581999999999994
21
-85.5
0
LINE
8
BLACK
6
CONTINUOUS
10
172.5581999999999994
20
-85.5
11
172.5581999999999994
21
-85.2301279999999934
0
LINE
8
BLACK
6
CONTINUOUS
10
172.5581999999999994
20
-85.2301279999999934
11
172.5213660000000004
21
-84.6916420000000016
0
LINE
8
BLACK
6
CONTINUOUS
10
172.5213660000000004
20
-84.6916420000000016
11
172.4478709999999921
21
-84.1569250000000011
0
LINE
8
BLACK
6
CONTINUOUS
10
172.4478709999999921
20
-84.1569250000000011
11
172.3380569999999921
21
-83.628469999999993
0
LINE
8
BLACK
6
CONTINUOUS
10
172.3380569999999921
20
-83.628469999999993
11
172.1924359999999865
21
-83.1087409999999949
0
LINE
8
BLACK
6
CONTINUOUS
10
172.1924359999999865
20
-83.1087409999999949
11
172.0116859999999974
21
-82.6001609999999999
0
LINE
8
BLACK
6
CONTINUOUS
10
172.0116859999999974
20
-82.6001609999999999
11
171.7966519999999946
21
-82.1051020000000022
0
LINE
8
BLACK
6
CONTINUOUS
10
171.7966519999999946
20
-82.1051020000000022
11
171.5483339999999828
21
-81.6258709999999894
0
LINE
8
BLACK
6
CONTINUOUS
10
171.5483339999999828
20
-81.6258709999999894
11
171.2678919999999891
21
-81.1647030000000029
0
LINE
8
BLACK
6
CONTINUOUS
10
171.2678919999999891
20
-81.1647030000000029
11
170.9566319999999848
21
-80.7237480000000005
0
LINE
8
BLACK
6
CONTINUOUS
10
170.9566319999999848
20
-80.7237480000000005
11
170.6160059999999987
21
-80.3050629999999899
0
LINE
8
BLACK
6
CONTINUOUS
10
170.6160059999999987
20
-80.3050629999999899
11
170.2476020000000005
21
-79.9105979999999931
0
LINE
8
BLACK
6
CONTINUOUS
10
170.2476020000000005
20
-79.9105979999999931
11
169.8531370000000038
21
-79.542193999999995
0
LINE
8
BLACK
6
CONTINUOUS
10
169.8531370000000038
20
-79.542193999999995
11
169.4344519999999932
21
-79.2015679999999946
0
LINE
8
BLACK
6
CONTINUOUS
10
169.4344519999999932
20
-79.2015679999999946
11
168.9934969999999907
21
-78.8903079999999903
0
LINE
8
BLACK
6
CONTINUOUS
10
168.9934969999999907
20
-78.8903079999999903
11
168.5323290000000043
21
-78.6098659999999967
0
LINE
8
BLACK
6
CONTINUOUS
10
168.5323290000000043
20
-78.6098659999999967
11
168.0530980000000056
21
-78.3615479999999991
0
LINE
8
BLACK
6
CONTINUOUS
10
168.0530980000000056
20
-78.3615479999999991
11
167.5580389999999795
21
-78.1465139999999963
0
LINE
8
BLACK
6
CONTINUOUS
10
167.5580389999999795
20
-78.1465139999999963
11
167.0494589999999846
21
-77.965763999999993
0
LINE
8
BLACK
6
CONTINUOUS
10
167.0494589999999846
20
-77.965763999999993
11
166.5297300000000007
21
-77.8201430000000016
0
LINE
8
BLACK
6
CONTINUOUS
10
166.5297300000000007
20
-77.8201430000000016
11
166.0012749999999926
21
-77.7103290000000015
0
LINE
8
BLACK
6
CONTINUOUS
10
166.0012749999999926
20
-77.7103290000000015
11
165.466557999999992
21
-77.6368339999999932
0
LINE
8
BLACK
6
CONTINUOUS
10
165.466557999999992
20
-77.6368339999999932
11
164.928071999999986
21
-77.5999999999999943
0
LINE
8
BLACK
6
CONTINUOUS
10
164.928071999999986
20
-77.5999999999999943
11
164.6581999999999937
21
-77.5999999999999943
0
LINE
8
BLACK
6
CONTINUOUS
10
164.6581999999999937
20
-77.5999999999999943
11
133.5
21
-77.5999999999999943
  0
ENDSEC
  0
EOF
